{
.appVersion = "913";
copyright = "Copyright (c) 2010, The Indie Flower Authors (kimberlygeswein.com)";
customParameters = (
{
name = licenseURL;
value = "http://scripts.sil.org/OFL";
},
{
name = license;
value = "This Font Software is licensed under the SIL Open Font License, Version 1.1. This license is available with a FAQ at: http://scripts.sil.org/OFL";
},
{
name = fsType;
value = 0;
},
{
name = "Use Typo Metrics";
value = 1;
}
);
date = "2016-08-24 09:53:31 +0000";
designer = "Kimberly Geswein";
designerURL = "http://kimberlygeswein.com";
familyName = "Indie Flower";
featurePrefixes = (
{
automatic = 1;
code = "languagesystem DFLT dflt;\012languagesystem latn dflt;\012languagesystem latn CAT;\012languagesystem latn ROM;\012languagesystem latn MOL;\012";
name = Languagesystems;
}
);
features = (
{
automatic = 1;
code = "feature locl;\012feature sups;\012feature frac;\012feature ordn;\012";
name = aalt;
},
{
automatic = 1;
code = "script latn;\012language CAT;\012sub  l' periodcentered' l by ldot;\012sub  L' periodcentered' L by Ldot;\012language ROM;\012sub Scedilla by Scommaaccent;\012sub scedilla by scommaaccent;\012language MOL;\012sub Scedilla by Scommaaccent;\012sub scedilla by scommaaccent;\012";
name = locl;
},
{
automatic = 1;
code = "sub one by onesuperior;\012sub two by twosuperior;\012sub three by threesuperior;\012";
name = sups;
},
{
automatic = 1;
code = "sub one slash four by onequarter;\012sub one slash two by onehalf;\012sub three slash four by threequarters;\012";
name = frac;
},
{
automatic = 1;
code = "sub [zero one two three four five six seven eight nine] [A a]' by ordfeminine;\012sub [zero one two three four five six seven eight nine] [O o]' by ordmasculine;\012";
name = ordn;
},
{
automatic = 1;
code = "sub f i by fi;\012sub f l by fl;\012";
name = liga;
}
);
fontMaster = (
{
ascender = 971;
capHeight = 693;
customParameters = (
{
name = typoDescender;
value = -488;
},
{
name = typoLineGap;
value = 0;
},
{
name = hheaLineGap;

glyphs = (
{
color = 3;
glyphname = A;
lastChange = "2016-08-31 20:12:14 +0000";
layers = (
{
anchors = (
{
name = bottom;
position = "{282, 0}";
},
{
name = ogonek;
position = "{507, 10}";
},
{
name = top;
position = "{262, 693}";
}
);
layerId = UUID0;
paths = (
{
closed = 1;
nodes = (
"498 -1 OFFCURVE",
"514 14 OFFCURVE",
"525 28 CURVE",
"533 81 OFFCURVE",
"535 108 OFFCURVE",
"535 156 CURVE SMOOTH",
"535 287 OFFCURVE",
"501 760 OFFCURVE",
"270 760 CURVE SMOOTH",
"53 760 OFFCURVE",
"60 521 OFFCURVE",
"48 355 CURVE",
"49 328 LINE",
"27 325 OFFCURVE",
"18 322 OFFCURVE",
"19 305 CURVE SMOOTH",
"20 289 OFFCURVE",
"27 281 OFFCURVE",
"57 279 CURVE",
"45 129 OFFCURVE",
"73 -44 OFFCURVE",
"131 10 CURVE",
"131 19 LINE SMOOTH",
"131 91 OFFCURVE",
"102 165 OFFCURVE",
"102 242 CURVE",
"100 281 LINE",
"112 281 OFFCURVE",
"144 281 OFFCURVE",
"235 281 CURVE SMOOTH",
"313 281 OFFCURVE",
"371 277 OFFCURVE",
"467 278 CURVE",
"478 240 OFFCURVE",
"479 195 OFFCURVE",
"479 159 CURVE SMOOTH",
"479 113 OFFCURVE",
"458 67 OFFCURVE",
"458 22 CURVE SMOOTH",
"458 8 OFFCURVE",
"462 -1 OFFCURVE",
"479 -1 CURVE SMOOTH"
);
},
{
closed = 1;
nodes = (
"92 328 LINE",
"92 434 OFFCURVE",
"87 713 OFFCURVE",
"248 713 CURVE SMOOTH",
"388 713 OFFCURVE",
"441 536 OFFCURVE",
"463 317 CURVE"
);
}
);
width = 573;
}
);
unicode = 0041;
},
{
color = 3;
glyphname = Aogonek;
lastChange = "2016-08-30 17:03:42 +0000";
layers = (
{
layerId = UUID0;
paths = (
{
closed = 1;
nodes = (
"561 -108 LINE",
"441 -116 OFFCURVE",
"386 -76 OFFCURVE",
"426 -30 CURVE SMOOTH",
"435 -20 OFFCURVE",
"449 -10 OFFCURVE",
"470 0 CURVE",
"472 -1 OFFCURVE",
"475 -1 OFFCURVE",
"479 -1 CURVE SMOOTH",
"498 -1 OFFCURVE",
"514 14 OFFCURVE",
"525 28 CURVE",
"533 81 OFFCURVE",
"535 108 OFFCURVE",
"535 156 CURVE SMOOTH",
"535 287 OFFCURVE",
"501 760 OFFCURVE",
"270 760 CURVE SMOOTH",
"53 760 OFFCURVE",
"60 521 OFFCURVE",
"48 355 CURVE",
"48 329 LINE",
"40 316 OFFCURVE",
"19 323 OFFCURVE",
"19 305 CURVE SMOOTH",
"19 300 LINE",
"23 292 OFFCURVE",
"49 261 OFFCURVE",
"57 253 CURVE",
"45 133 OFFCURVE",
"73 -44 OFFCURVE",
"131 10 CURVE",
"131 19 LINE SMOOTH",
"131 91 OFFCURVE",
"102 165 OFFCURVE",
"102 242 CURVE SMOOTH",
"102 250 OFFCURVE",
"104 271 OFFCURVE",
"104 272 CURVE",
"112 281 LINE",
"122 291 OFFCURVE",
"214 291 OFFCURVE",
"235 291 CURVE SMOOTH",
"313 291 OFFCURVE",
"393 263 OFFCURVE",
"467 278 CURVE",
"478 240 OFFCURVE",
"479 195 OFFCURVE",
"479 159 CURVE SMOOTH",
"479 125 OFFCURVE",
"469 90 OFFCURVE",
"461 57 CURVE",
"459 42 LINE",
"446 36 LINE",
"416 26 OFFCURVE",
"394 15 OFFCURVE",
"376 -13 CURVE",
"330 -128 OFFCURVE",
"412 -145 OFFCURVE",
"546 -142 CURVE"
);
},
{
closed = 1;
nodes = (
"92 338 LINE",
"92 434 OFFCURVE",
"87 713 OFFCURVE",
"248 713 CURVE SMOOTH",
"399 713 OFFCURVE",
"461 479 OFFCURVE",
"461 364 CURVE",
"456 318 OFFCURVE",
"444 317 OFFCURVE",
"436 317 CURVE"
);
}
);
width = 563;
}
);
unicode = 0104;
},
{
color = 3;
glyphname = Aring;
lastChange = "2016-08-30 17:03:42 +0000";
layers = (
{
layerId = UUID0;
paths = (
{
closed = 1;
nodes = (
"498 -1 OFFCURVE",
"514 14 OFFCURVE",
"525 28 CURVE",
"533 81 OFFCURVE",
"535 108 OFFCURVE",
"535 156 CURVE SMOOTH",
"535 273 OFFCURVE",
"509 645 OFFCURVE",
"347 739 CURVE SMOOTH",
"331 748 OFFCURVE",
"314 755 OFFCURVE",
"297 758 CURVE",
"303 761 OFFCURVE",
"308 765 OFFCURVE",
"313 769 CURVE SMOOTH",
"331 783 OFFCURVE",
"344 804 OFFCURVE",
"344 830 CURVE SMOOTH",
"344 863 OFFCURVE",
"312 913 OFFCURVE",
"271 913 CURVE SMOOTH",
"218 913 OFFCURVE",
"160 883 OFFCURVE",
"160 827 CURVE SMOOTH",
"160 802 OFFCURVE",
"168 782 OFFCURVE",
"185 768 CURVE",
"191 761 OFFCURVE",
"199 756 OFFCURVE",
"208 753 CURVE",
"197 750 OFFCURVE",
"188 746 OFFCURVE",
"179 741 CURVE",
"56 680 OFFCURVE",
"58 495 OFFCURVE",
"48 355 CURVE",
"48 329 LINE",
"40 316 OFFCURVE",
"19 323 OFFCURVE",
"19 305 CURVE SMOOTH",
"19 300 LINE",
"23 292 OFFCURVE",
"49 261 OFFCURVE",
"57 253 CURVE",
"45 133 OFFCURVE",
"73 -44 OFFCURVE",
"131 10 CURVE",
"131 19 LINE SMOOTH",
"131 91 OFFCURVE",
"102 165 OFFCURVE",
"102 242 CURVE SMOOTH",
"102 250 OFFCURVE",
"104 271 OFFCURVE",
"104 272 CURVE",
"112 281 LINE",
"122 291 OFFCURVE",
"214 291 OFFCURVE",
"235 291 CURVE SMOOTH",
"313 291 OFFCURVE",
"393 263 OFFCURVE",
"467 278 CURVE",
"478 240 OFFCURVE",
"479 195 OFFCURVE",
"479 159 CURVE SMOOTH",
"479 113 OFFCURVE",
"458 67 OFFCURVE",
"458 22 CURVE SMOOTH",
"458 8 OFFCURVE",
"462 -1 OFFCURVE",
"479 -1 CURVE SMOOTH"
);
},
{
closed = 1;
nodes = (
"92 338 LINE",
"92 434 OFFCURVE",
"87 713 OFFCURVE",
"248 713 CURVE SMOOTH",
"399 713 OFFCURVE",
"461 479 OFFCURVE",
"461 364 CURVE",
"456 318 OFFCURVE",
"444 317 OFFCURVE",
"436 317 CURVE"
);
},
{
closed = 1;
nodes = (
"212 777 OFFCURVE",
"191 793 OFFCURVE",
"191 825 CURVE SMOOTH",
"191 867 OFFCURVE",
"227 879 OFFCURVE",
"262 879 CURVE",
"366 836 OFFCURVE",
"271 773 OFFCURVE",
"247 777 CURVE"
);
}
);
width = 563;
}
);
unicode = 00C5;
},
{
color = 3;
glyphname = AE;
lastChange = "2016-08-30 17:03:42 +0000";
layers = (
{
layerId = UUID0;
paths = (
{
closed = 1;
nodes = (
"488 -1 OFFCURVE",
"497 2 OFFCURVE",
"505 8 CURVE SMOOTH",
"513 14 OFFCURVE",
"519 21 OFFCURVE",
"523 27 CURVE",
"536 19 OFFCURVE",
"551 13 OFFCURVE",
"567 9 CURVE SMOOTH",
"588 4 OFFCURVE",
"610 2 OFFCURVE",
"637 2 CURVE SMOOTH",
"669 2 LINE SMOOTH",
"748 2 OFFCURVE",
"938 8 OFFCURVE",
"938 68 CURVE SMOOTH",
"938 71 OFFCURVE",
"933 77 OFFCURVE",
"930 77 CURVE",
"926 79 OFFCURVE",
"907 85 OFFCURVE",
"901 88 CURVE",
"896 88 LINE SMOOTH",
"809 88 OFFCURVE",
"721 67 OFFCURVE",
"632 67 CURVE SMOOTH",
"613 67 OFFCURVE",
"548 60 OFFCURVE",
"535 88 CURVE",
"535 100 LINE SMOOTH",
"535 105 OFFCURVE",
"535 111 OFFCURVE",
"534 118 CURVE",
"534 123 LINE",
"535 134 OFFCURVE",
"535 145 OFFCURVE",
"535 156 CURVE SMOOTH",
"535 172 OFFCURVE",
"535 191 OFFCURVE",
"534 214 CURVE",
"534 229 LINE",
"535 256 OFFCURVE",
"538 282 OFFCURVE",
"546 303 CURVE",
"554 334 OFFCURVE",
"903 306 OFFCURVE",
"903 400 CURVE",
"896 400 OFFCURVE",
"854 396 OFFCURVE",
"845 396 CURVE",
"838 404 OFFCURVE",
"570 340 OFFCURVE",
"550 369 CURVE",
"550 546 LINE SMOOTH",
"550 549 OFFCURVE",
"549 554 OFFCURVE",
"546 560 CURVE",
"547 559 OFFCURVE",
"549 559 OFFCURVE",
"552 559 CURVE SMOOTH",
"866 567 LINE",
"913 549 LINE",
"916 548 OFFCURVE",
"923 555 OFFCURVE",
"923 559 CURVE SMOOTH",
"923 594 OFFCURVE",
"893 603 OFFCURVE",
"866 615 CURVE",
"521 607 OFFCURVE",
"493 649 OFFCURVE",
"493 584 CURVE SMOOTH",
"493 491 LINE",
"489 508 LINE",
"452 642 OFFCURVE",
"385 760 OFFCURVE",
"270 760 CURVE SMOOTH",
"53 760 OFFCURVE",
"60 521 OFFCURVE",
"48 355 CURVE",
"48 329 LINE",
"40 316 OFFCURVE",
"19 323 OFFCURVE",
"19 305 CURVE SMOOTH",
"19 300 LINE",
"23 292 OFFCURVE",
"49 261 OFFCURVE",
"57 253 CURVE",
"45 133 OFFCURVE",
"73 -44 OFFCURVE",
"131 10 CURVE",
"131 19 LINE SMOOTH",
"131 91 OFFCURVE",
"102 165 OFFCURVE",
"102 242 CURVE SMOOTH",
"102 250 OFFCURVE",
"104 271 OFFCURVE",
"104 272 CURVE",
"112 281 LINE",
"122 291 OFFCURVE",
"214 291 OFFCURVE",
"235 291 CURVE SMOOTH",
"313 291 OFFCURVE",
"393 263 OFFCURVE",
"467 278 CURVE",
"478 240 OFFCURVE",
"479 195 OFFCURVE",
"479 159 CURVE SMOOTH",
"479 151 LINE SMOOTH",
"479 143 OFFCURVE",
"478 133 OFFCURVE",
"476 124 CURVE",
"470 91 OFFCURVE",
"458 56 OFFCURVE",
"458 22 CURVE SMOOTH",
"458 8 OFFCURVE",
"462 -1 OFFCURVE",
"479 -1 CURVE SMOOTH"
);
},
{
closed = 1;
nodes = (
"92 338 LINE",
"92 434 OFFCURVE",
"87 713 OFFCURVE",
"248 713 CURVE SMOOTH",
"399 713 OFFCURVE",
"461 479 OFFCURVE",
"461 364 CURVE",
"456 318 OFFCURVE",
"444 317 OFFCURVE",
"436 317 CURVE"
);
}
);
width = 962;
}
);
unicode = 00C6;
},
{
color = 3;
glyphname = B;
lastChange = "2016-08-31 20:09:17 +0000";
layers = (
{
anchors = (
{
name = bottom;
position = "{457, 0}";
},
{
name = top;
position = "{351, 693}";
}
);
layerId = UUID0;
paths = (
{
closed = 1;
nodes = (
"616 -1 OFFCURVE",
"722 32 OFFCURVE",
"722 142 CURVE SMOOTH",
"722 297 OFFCURVE",
"398 413 OFFCURVE",
"401 414 CURVE SMOOTH",
"478 435 OFFCURVE",
"525 484 OFFCURVE",
"525 552 CURVE SMOOTH",
"525 645 OFFCURVE",
"358 693 OFFCURVE",
"287 693 CURVE SMOOTH",
"254 693 OFFCURVE",
"13 656 OFFCURVE",
"19 619 CURVE SMOOTH",
"23 595 LINE",
"69 613 OFFCURVE",
"107 622 OFFCURVE",
"179 638 CURVE",
"208 557 OFFCURVE",
"249 262 OFFCURVE",
"272 20 CURVE",
"357 3 OFFCURVE",
"443 -1 OFFCURVE",
"528 -1 CURVE SMOOTH"
);
},
{
closed = 1;
nodes = (
"414 57 OFFCURVE",
"348 66 OFFCURVE",
"329 85 CURVE",
"319 271 OFFCURVE",
"303 406 OFFCURVE",
"238 643 CURVE",
"323 660 OFFCURVE",
"472 621 OFFCURVE",
"472 539 CURVE SMOOTH",
"472 436 OFFCURVE",
"317 461 OFFCURVE",
"317 417 CURVE SMOOTH",
"317 334 OFFCURVE",
"656 314 OFFCURVE",
"656 144 CURVE SMOOTH",
"656 63 OFFCURVE",
"581 56 OFFCURVE",
"502 56 CURVE SMOOTH"
);
}
);
width = 741;
}
);
unicode = 0042;
},
{
color = 3;
glyphname = C;
lastChange = "2016-08-31 20:10:16 +0000";
layers = (
{
anchors = (
{
name = bottom;
position = "{259, 0}";
},
{
name = top;
position = "{259, 626}";
}
);
layerId = UUID0;
paths = (
{
closed = 1;
nodes = (
"440 48 LINE",
"448 48 OFFCURVE",
"488 76 OFFCURVE",
"488 89 CURVE SMOOTH",
"488 104 OFFCURVE",
"476 104 OFFCURVE",
"465 104 CURVE SMOOTH",
"376 104 OFFCURVE",
"291 64 OFFCURVE",
"202 64 CURVE SMOOTH",
"95 64 OFFCURVE",
"64 199 OFFCURVE",
"64 289 CURVE SMOOTH",
"64 427 OFFCURVE",
"166 555 OFFCURVE",
"280 589 CURVE SMOOTH",
"331 605 OFFCURVE",
"348 582 OFFCURVE",
"348 563 CURVE SMOOTH",
"348 535 OFFCURVE",
"326 518 OFFCURVE",
"326 490 CURVE",
"365 490 OFFCURVE",
"395 559 OFFCURVE",
"395 591 CURVE SMOOTH",
"395 629 OFFCURVE",
"386 647 OFFCURVE",
"347 647 CURVE SMOOTH",
"180 647 OFFCURVE",
"19 474 OFFCURVE",
"19 271 CURVE SMOOTH",
"19 165 OFFCURVE",
"66 -1 OFFCURVE",
"197 -1 CURVE SMOOTH"
);
}
);
width = 517;
}
);
unicode = 0043;
},
{
color = 3;
glyphname = Ccedilla;
lastChange = "2016-08-30 17:03:42 +0000";
layers = (
{
layerId = UUID0;
paths = (
{
closed = 1;
nodes = (
"315 -307 OFFCURVE",
"390 -276 OFFCURVE",
"390 -214 CURVE SMOOTH",
"390 -45 OFFCURVE",
"188 -154 OFFCURVE",
"188 -34 CURVE",
"192 -27 OFFCURVE",
"190 -13 OFFCURVE",
"186 0 CURVE",
"189 -1 OFFCURVE",
"193 -1 OFFCURVE",
"197 -1 CURVE",
"216 0 LINE",
"440 48 LINE",
"448 48 OFFCURVE",
"488 76 OFFCURVE",
"488 89 CURVE SMOOTH",
"488 104 OFFCURVE",
"476 104 OFFCURVE",
"465 104 CURVE SMOOTH",
"376 104 OFFCURVE",
"291 64 OFFCURVE",
"202 64 CURVE SMOOTH",
"95 64 OFFCURVE",
"64 199 OFFCURVE",
"64 289 CURVE SMOOTH",
"64 427 OFFCURVE",
"180 534 OFFCURVE",
"300 581 CURVE",
"314 582 LINE",
"329 582 OFFCURVE",
"348 582 OFFCURVE",
"348 563 CURVE SMOOTH",
"348 535 OFFCURVE",
"326 518 OFFCURVE",
"326 490 CURVE",
"365 490 OFFCURVE",
"395 559 OFFCURVE",
"395 591 CURVE SMOOTH",
"395 619 OFFCURVE",
"378 647 OFFCURVE",
"347 647 CURVE SMOOTH",
"180 647 OFFCURVE",
"19 424 OFFCURVE",
"19 271 CURVE SMOOTH",
"19 183 OFFCURVE",
"52 54 OFFCURVE",
"139 12 CURVE",
"146 8 LINE",
"145 1 OFFCURVE",
"144 -8 OFFCURVE",
"143 -21 CURVE",
"146 -202 OFFCURVE",
"339 -88 OFFCURVE",
"337 -210 CURVE SMOOTH",
"337 -271 OFFCURVE",
"310 -262 OFFCURVE",
"265 -262 CURVE SMOOTH",
"226 -262 OFFCURVE",
"196 -204 OFFCURVE",
"151 -204 CURVE SMOOTH",
"143 -204 OFFCURVE",
"136 -204 OFFCURVE",
"128 -211 CURVE",
"169 -260 OFFCURVE",
"187 -307 OFFCURVE",
"262 -307 CURVE SMOOTH"
);
}
);
width = 517;
}
);
unicode = 00C7;
},
{
color = 3;
glyphname = D;
lastChange = "2016-08-30 17:07:16 +0000";
layers = (
{
anchors = (
{
name = bottom;
position = "{371, 0}";
},
{
name = center;
position = "{371, 347}";
},
{
name = top;
position = "{371, 593}";
}
);
layerId = UUID0;
paths = (
{
closed = 1;
nodes = (
"495 -43 OFFCURVE",
"713 43 OFFCURVE",
"713 258 CURVE SMOOTH",
"713 494 OFFCURVE",
"416 628 OFFCURVE",
"216 628 CURVE SMOOTH",
"211 628 OFFCURVE",
"19 620 OFFCURVE",
"19 566 CURVE SMOOTH",
"19 563 LINE",
"21 556 OFFCURVE",
"26 536 OFFCURVE",
"28 534 CURVE",
"30 534 LINE",
"30 533 OFFCURVE",
"31 533 OFFCURVE",
"32 533 CURVE SMOOTH",
"33 533 OFFCURVE",
"34 533 OFFCURVE",
"35 534 CURVE",
"37 534 LINE",
"60 547 OFFCURVE",
"86 572 OFFCURVE",
"272 572 CURVE",
"290 550 OFFCURVE",
"307 473 OFFCURVE",
"310 440 CURVE",
"345 312 OFFCURVE",
"313 63 OFFCURVE",
"370 94 CURVE",
"395 94 OFFCURVE",
"395 118 OFFCURVE",
"395 133 CURVE",
"410 265 OFFCURVE",
"354 388 OFFCURVE",
"352 556 CURVE",
"481 532 OFFCURVE",
"657 401 OFFCURVE",
"657 261 CURVE SMOOTH",
"657 142 OFFCURVE",
"521 48 OFFCURVE",
"408 48 CURVE SMOOTH",
"403 48 LINE",
"378 51 OFFCURVE",
"271 85 OFFCURVE",
"258 85 CURVE SMOOTH",
"243 85 OFFCURVE",
"243 71 OFFCURVE",
"243 60 CURVE SMOOTH",
"243 26 OFFCURVE",
"295 8 OFFCURVE",
"318 0 CURVE"
);
}
);
width = 741;
}
);
unicode = 0044;
},
{
color = 3;
glyphname = Eth;
lastChange = "2016-08-30 17:03:42 +0000";
layers = (
{
layerId = UUID0;
paths = (
{
closed = 1;
nodes = (
"495 -43 OFFCURVE",
"713 43 OFFCURVE",
"713 258 CURVE SMOOTH",
"713 494 OFFCURVE",
"416 628 OFFCURVE",
"216 628 CURVE SMOOTH",
"211 628 OFFCURVE",
"19 620 OFFCURVE",
"19 566 CURVE SMOOTH",
"19 563 LINE",
"24 546 LINE",
"26 538 LINE",
"28 534 LINE",
"30 534 LINE",
"30 533 OFFCURVE",
"31 533 OFFCURVE",
"32 533 CURVE SMOOTH",
"33 533 OFFCURVE",
"34 533 OFFCURVE",
"35 534 CURVE",
"37 534 LINE",
"60 547 OFFCURVE",
"86 572 OFFCURVE",
"272 572 CURVE",
"286 555 OFFCURVE",
"313 396 OFFCURVE",
"317 360 CURVE",
"265 355 OFFCURVE",
"220 339 OFFCURVE",
"220 287 CURVE",
"256 287 OFFCURVE",
"293 293 OFFCURVE",
"329 298 CURVE",
"353 164 OFFCURVE",
"317 64 OFFCURVE",
"370 94 CURVE",
"395 94 OFFCURVE",
"395 118 OFFCURVE",
"395 133 CURVE",
"406 225 OFFCURVE",
"396 204 OFFCURVE",
"377 305 CURVE",
"399 308 OFFCURVE",
"421 310 OFFCURVE",
"443 310 CURVE SMOOTH",
"475 310 OFFCURVE",
"496 299 OFFCURVE",
"524 299 CURVE SMOOTH",
"537 299 OFFCURVE",
"543 306 OFFCURVE",
"543 318 CURVE SMOOTH",
"543 365 OFFCURVE",
"489 366 OFFCURVE",
"452 366 CURVE",
"430 365 LINE SMOOTH",
"413 364 OFFCURVE",
"392 362 OFFCURVE",
"369 362 CURVE",
"367 385 LINE",
"360 433 OFFCURVE",
"352 528 OFFCURVE",
"352 556 CURVE",
"481 532 OFFCURVE",
"657 401 OFFCURVE",
"657 261 CURVE SMOOTH",
"657 142 OFFCURVE",
"521 48 OFFCURVE",
"408 48 CURVE SMOOTH",
"403 48 LINE",
"378 51 OFFCURVE",
"271 85 OFFCURVE",
"258 85 CURVE SMOOTH",
"243 85 OFFCURVE",
"243 71 OFFCURVE",
"243 60 CURVE SMOOTH",
"243 26 OFFCURVE",
"295 8 OFFCURVE",
"318 0 CURVE"
);
}
);
width = 741;
}
);
unicode = 00D0;
},
{
color = 3;
glyphname = Dcroat;
lastChange = "2016-08-30 17:03:42 +0000";
layers = (
{
layerId = UUID0;
paths = (
{
closed = 1;
nodes = (
"495 -43 OFFCURVE",
"713 43 OFFCURVE",
"713 258 CURVE SMOOTH",
"713 494 OFFCURVE",
"416 628 OFFCURVE",
"216 628 CURVE SMOOTH",
"211 628 OFFCURVE",
"19 620 OFFCURVE",
"19 566 CURVE SMOOTH",
"19 563 LINE",
"24 546 LINE",
"26 538 LINE",
"28 534 LINE",
"30 534 LINE",
"30 533 OFFCURVE",
"31 533 OFFCURVE",
"32 533 CURVE SMOOTH",
"33 533 OFFCURVE",
"34 533 OFFCURVE",
"35 534 CURVE",
"37 534 LINE",
"60 547 OFFCURVE",
"86 572 OFFCURVE",
"272 572 CURVE",
"290 550 OFFCURVE",
"307 473 OFFCURVE",
"310 440 CURVE",
"315 419 OFFCURVE",
"319 395 OFFCURVE",
"322 368 CURVE SMOOTH",
"325 339 LINE",
"316 338 OFFCURVE",
"309 338 OFFCURVE",
"301 339 CURVE",
"249 341 OFFCURVE",
"208 332 OFFCURVE",
"208 266 CURVE",
"264 266 OFFCURVE",
"284 276 OFFCURVE",
"321 282 CURVE",
"329 284 LINE",
"332 207 LINE SMOOTH",
"334 132 OFFCURVE",
"342 79 OFFCURVE",
"370 94 CURVE",
"395 94 OFFCURVE",
"395 118 OFFCURVE",
"395 133 CURVE",
"398 166 OFFCURVE",
"398 198 OFFCURVE",
"395 230 CURVE SMOOTH",
"393 249 OFFCURVE",
"391 267 OFFCURVE",
"388 285 CURVE",
"395 284 OFFCURVE",
"401 282 OFFCURVE",
"408 280 CURVE",
"421 277 OFFCURVE",
"434 275 OFFCURVE",
"448 275 CURVE SMOOTH",
"461 275 OFFCURVE",
"467 282 OFFCURVE",
"467 296 CURVE SMOOTH",
"467 330 OFFCURVE",
"438 340 OFFCURVE",
"405 342 CURVE",
"396 343 OFFCURVE",
"386 343 OFFCURVE",
"377 343 CURVE",
"372 373 OFFCURVE",
"366 404 OFFCURVE",
"361 438 CURVE SMOOTH",
"355 475 OFFCURVE",
"353 514 OFFCURVE",
"352 556 CURVE",
"481 532 OFFCURVE",
"657 401 OFFCURVE",
"657 261 CURVE SMOOTH",
"657 142 OFFCURVE",
"521 48 OFFCURVE",
"408 48 CURVE SMOOTH",
"403 48 LINE",
"378 51 OFFCURVE",
"271 85 OFFCURVE",
"258 85 CURVE SMOOTH",
"243 85 OFFCURVE",
"243 71 OFFCURVE",
"243 60 CURVE SMOOTH",
"243 26 OFFCURVE",
"295 8 OFFCURVE",
"318 0 CURVE"
);
}
);
width = 741;
}
);
unicode = 0110;
},
{
color = 3;
glyphname = E;
lastChange = "2016-08-30 17:07:22 +0000";
layers = (
{
anchors = (
{
name = bottom;
position = "{263, 0}";
},
{
name = ogonek;
position = "{472, 10}";
},
{
name = top;
position = "{263, 593}";
},
{
name = topleft;
position = "{20, 593}";
}
);
layerId = UUID0;
paths = (
{
closed = 1;
nodes = (
"202 -1 OFFCURVE",
"479 -7 OFFCURVE",
"479 65 CURVE SMOOTH",
"479 68 OFFCURVE",
"472 74 OFFCURVE",
"469 74 CURVE",
"464 77 OFFCURVE",
"447 83 OFFCURVE",
"440 85 CURVE",
"436 85 LINE SMOOTH",
"348 85 OFFCURVE",
"260 64 OFFCURVE",
"171 64 CURVE SMOOTH",
"153 64 OFFCURVE",
"87 57 OFFCURVE",
"74 85 CURVE",
"74 150 LINE SMOOTH",
"74 193 OFFCURVE",
"69 259 OFFCURVE",
"85 300 CURVE",
"93 331 OFFCURVE",
"442 303 OFFCURVE",
"442 397 CURVE",
"435 397 OFFCURVE",
"393 394 OFFCURVE",
"385 394 CURVE",
"376 399 OFFCURVE",
"110 337 OFFCURVE",
"89 366 CURVE",
"89 543 LINE SMOOTH",
"89 546 OFFCURVE",
"88 551 OFFCURVE",
"85 557 CURVE",
"86 556 OFFCURVE",
"89 556 OFFCURVE",
"92 556 CURVE SMOOTH",
"405 564 LINE",
"452 546 LINE",
"456 545 OFFCURVE",
"462 552 OFFCURVE",
"462 556 CURVE SMOOTH",
"462 591 OFFCURVE",
"432 599 OFFCURVE",
"405 612 CURVE",
"61 604 OFFCURVE",
"33 646 OFFCURVE",
"33 581 CURVE SMOOTH",
"33 366 LINE",
"29 363 OFFCURVE",
"21 350 OFFCURVE",
"19 347 CURVE",
"19 342 LINE SMOOTH",
"19 325 OFFCURVE",
"29 314 OFFCURVE",
"29 292 CURVE SMOOTH",
"29 240 OFFCURVE",
"19 192 OFFCURVE",
"19 142 CURVE SMOOTH",
"19 31 OFFCURVE",
"70 -1 OFFCURVE",
"177 -1 CURVE SMOOTH"
);
}
);
width = 525;
}
);
unicode = 0045;
},
{
color = 3;
glyphname = Eogonek;
lastChange = "2016-08-30 17:03:42 +0000";
layers = (
{
layerId = UUID0;
paths = (
{
closed = 1;
nodes = (
"458 -108 LINE",
"302 -119 OFFCURVE",
"247 -45 OFFCURVE",
"402 15 CURVE",
"402 16 LINE",
"405 16 LINE",
"448 26 OFFCURVE",
"479 42 OFFCURVE",
"479 65 CURVE SMOOTH",
"479 68 OFFCURVE",
"472 74 OFFCURVE",
"469 74 CURVE",
"464 77 OFFCURVE",
"447 83 OFFCURVE",
"440 85 CURVE",
"436 85 LINE SMOOTH",
"348 85 OFFCURVE",
"260 64 OFFCURVE",
"171 64 CURVE SMOOTH",
"153 64 OFFCURVE",
"87 57 OFFCURVE",
"74 85 CURVE",
"74 150 LINE SMOOTH",
"74 193 OFFCURVE",
"69 259 OFFCURVE",
"85 300 CURVE",
"93 331 OFFCURVE",
"442 303 OFFCURVE",
"442 397 CURVE",
"435 397 OFFCURVE",
"393 394 OFFCURVE",
"385 394 CURVE",
"376 399 OFFCURVE",
"110 337 OFFCURVE",
"89 366 CURVE",
"89 543 LINE SMOOTH",
"89 546 OFFCURVE",
"88 551 OFFCURVE",
"85 557 CURVE",
"86 556 OFFCURVE",
"89 556 OFFCURVE",
"92 556 CURVE SMOOTH",
"405 564 LINE",
"452 546 LINE",
"456 545 OFFCURVE",
"462 552 OFFCURVE",
"462 556 CURVE SMOOTH",
"462 591 OFFCURVE",
"432 599 OFFCURVE",
"405 612 CURVE",
"61 604 OFFCURVE",
"33 646 OFFCURVE",
"33 581 CURVE SMOOTH",
"33 366 LINE",
"29 363 OFFCURVE",
"21 350 OFFCURVE",
"19 347 CURVE",
"19 342 LINE SMOOTH",
"19 325 OFFCURVE",
"29 314 OFFCURVE",
"29 292 CURVE SMOOTH",
"29 240 OFFCURVE",
"19 192 OFFCURVE",
"19 142 CURVE SMOOTH",
"19 31 OFFCURVE",
"70 -1 OFFCURVE",
"177 -1 CURVE SMOOTH",
"208 -1 LINE SMOOTH",
"225 -1 OFFCURVE",
"244 -1 OFFCURVE",
"267 0 CURVE",
"271 1 OFFCURVE",
"277 1 OFFCURVE",
"282 1 CURVE",
"273 -13 LINE",
"228 -128 OFFCURVE",
"310 -145 OFFCURVE",
"443 -142 CURVE"
);
}
);
width = 525;
}
);
unicode = 0118;
},
{
color = 3;
glyphname = F;
lastChange = "2016-08-31 21:32:32 +0000";
layers = (
{
anchors = (
{
name = bottom;
position = "{258, 0}";
},
{
name = top;
position = "{258, 572}";
}
);
layerId = UUID0;
paths = (
{
closed = 1;
nodes = (
"235 97 OFFCURVE",
"218 144 OFFCURVE",
"205 260 CURVE",
"358 266 OFFCURVE",
"447 277 OFFCURVE",
"446 320 CURVE",
"436 330 OFFCURVE",
"426 329 OFFCURVE",
"198 310 CURVE",
"195 395 OFFCURVE",
"193 460 OFFCURVE",
"193 545 CURVE",
"404 574 OFFCURVE",
"495 484 OFFCURVE",
"614 484 CURVE",
"594 642 OFFCURVE",
"36 615 OFFCURVE",
"-34 540 CURVE",
"-32 530 OFFCURVE",
"-26 522 OFFCURVE",
"-19 517 CURVE",
"-15 517 OFFCURVE",
"-8 519 OFFCURVE",
"3 526 CURVE",
"128 537 LINE",
"136 470 OFFCURVE",
"136 418 OFFCURVE",
"145 303 CURVE",
"103 297 OFFCURVE",
"97 297 OFFCURVE",
"51 292 CURVE",
"43 292 OFFCURVE",
"40 289 OFFCURVE",
"40 282 CURVE SMOOTH",
"40 240 OFFCURVE",
"83 248 OFFCURVE",
"155 259 CURVE",
"185 123 OFFCURVE",
"165 123 OFFCURVE",
"188 19 CURVE",
"187 12 OFFCURVE",
"202 17 OFFCURVE",
"240 12 CURVE"
);
}
);
width = 515;
}
);
unicode = 0046;
},
{
color = 3;
glyphname = G;
lastChange = "2016-08-31 19:55:18 +0000";
layers = (
{
anchors = (
{
name = bottom;
position = "{286, 0}";
},
{
name = top;
position = "{273, 511}";
}
);
layerId = UUID0;
paths = (
{
closed = 1;
nodes = (
"536 -69 OFFCURVE",
"565 -47 OFFCURVE",
"558 -31 CURVE",
"555 -15 OFFCURVE",
"533 -15 OFFCURVE",
"519 10 CURVE",
"525 241 LINE SMOOTH",
"526 266 OFFCURVE",
"498 288 OFFCURVE",
"476 288 CURVE SMOOTH",
"430 288 OFFCURVE",
"387 277 OFFCURVE",
"341 277 CURVE SMOOTH",
"313 277 OFFCURVE",
"288 298 OFFCURVE",
"262 298 CURVE SMOOTH",
"249 298 OFFCURVE",
"247 284 OFFCURVE",
"247 273 CURVE SMOOTH",
"247 255 OFFCURVE",
"267 231 OFFCURVE",
"286 231 CURVE SMOOTH",
"464 231 LINE",
"475 221 OFFCURVE",
"476 200 OFFCURVE",
"476 192 CURVE SMOOTH",
"476 64 OFFCURVE",
"336 63 OFFCURVE",
"221 63 CURVE SMOOTH",
"158 63 OFFCURVE",
"80 102 OFFCURVE",
"80 176 CURVE SMOOTH",
"80 332 OFFCURVE",
"276 467 OFFCURVE",
"417 467 CURVE SMOOTH",
"457 467 OFFCURVE",
"487 445 OFFCURVE",
"523 445 CURVE",
"523 496 OFFCURVE",
"479 527 OFFCURVE",
"427 522 CURVE SMOOTH",
"273 511 OFFCURVE",
"32 369 OFFCURVE",
"32 194 CURVE SMOOTH",
"32 86 OFFCURVE",
"103 6 OFFCURVE",
"212 6 CURVE SMOOTH",
"311 6 OFFCURVE",
"404 33 OFFCURVE",
"467 73 CURVE",
"464 44 LINE",
"464 10 OFFCURVE",
"468 -69 OFFCURVE",
"521 -69 CURVE SMOOTH"
);
}
);
width = 572;
}
);
unicode = 0047;
},
{
color = 3;
glyphname = H;
lastChange = "2016-08-31 19:57:53 +0000";
layers = (
{
anchors = (
{
name = bottom;
position = "{263, 0}";
},
{
name = center;
position = "{263, 347}";
},
{
name = top;
position = "{263, 657}";
},
{
name = topleft;
position = "{37, 637}";
}
);
layerId = UUID0;
paths = (
{
closed = 1;
nodes = (
"483 3 OFFCURVE",
"492 10 OFFCURVE",
"496 25 CURVE",
"491 36 OFFCURVE",
"488 47 OFFCURVE",
"487 57 CURVE SMOOTH",
"469 235 LINE SMOOTH",
"461 345 OFFCURVE",
"458 457 OFFCURVE",
"458 566 CURVE SMOOTH",
"458 577 OFFCURVE",
"460 628 OFFCURVE",
"460 637 CURVE",
"462 665 OFFCURVE",
"457 676 OFFCURVE",
"441 676 CURVE SMOOTH",
"417 676 OFFCURVE",
"412 654 OFFCURVE",
"412 637 CURVE SMOOTH",
"408 415 LINE",
"175 301 OFFCURVE",
"145 292 OFFCURVE",
"131 291 CURVE SMOOTH",
"121 290 OFFCURVE",
"114 292 OFFCURVE",
"112 307 CURVE SMOOTH",
"74 637 LINE",
"74 648 OFFCURVE",
"63 648 OFFCURVE",
"57 648 CURVE SMOOTH",
"49 648 OFFCURVE",
"41 648 OFFCURVE",
"37 637 CURVE",
"36 591 LINE SMOOTH",
"36 488 OFFCURVE",
"57 384 OFFCURVE",
"57 282 CURVE SMOOTH",
"57 259 OFFCURVE",
"38 259 OFFCURVE",
"15 249 CURVE",
"15 225 OFFCURVE",
"17 220 OFFCURVE",
"19 216 CURVE",
"35 215 OFFCURVE",
"51 221 OFFCURVE",
"67 229 CURVE",
"80 138 OFFCURVE",
"63 -1 OFFCURVE",
"115 10 CURVE SMOOTH",
"129 13 OFFCURVE",
"133 20 OFFCURVE",
"133 29 CURVE SMOOTH",
"131 242 LINE",
"131 242 OFFCURVE",
"257 288 OFFCURVE",
"405 358 CURVE",
"417 293 OFFCURVE",
"421 218 OFFCURVE",
"423 112 CURVE SMOOTH",
"424 42 OFFCURVE",
"434 -7 OFFCURVE",
"469 0 CURVE SMOOTH"
);
}
);
width = 525;
}
);
unicode = 0048;
},
{
color = 3;
glyphname = I;
lastChange = "2016-09-01 14:05:23 +0000";
layers = (
{
anchors = (
{
name = bottom;
position = "{131, 0}";
},
{
name = ogonek;
position = "{151, 10}";
},
{
name = top;
position = "{24, 567}";
},
{
name = topleft;
position = "{20, 562}";
}
);
layerId = UUID0;
paths = (
{
closed = 1;
nodes = (
"153 5 OFFCURVE",
"150 24 OFFCURVE",
"150 39 CURVE SMOOTH",
"150 131 OFFCURVE",
"75 631 OFFCURVE",
"15 546 CURVE",
"15 484 OFFCURVE",
"49 388 OFFCURVE",
"57 347 CURVE",
"72 252 OFFCURVE",
"81 133 OFFCURVE",
"94 37 CURVE",
"96 35 OFFCURVE",
"114 -6 OFFCURVE",
"131 0 CURVE"
);
}
);
width = 168;
}
);
unicode = 0049;
},
{
color = 3;
glyphname = Iogonek;
lastChange = "2016-08-30 17:03:42 +0000";
layers = (
{
layerId = UUID0;
paths = (
{
closed = 1;
nodes = (
"197 -108 LINE",
"78 -116 OFFCURVE",
"22 -76 OFFCURVE",
"63 -30 CURVE",
"72 -19 OFFCURVE",
"91 -7 OFFCURVE",
"117 4 CURVE",
"118 4 LINE",
"123 0 OFFCURVE",
"127 -1 OFFCURVE",
"131 0 CURVE SMOOTH",
"147 4 OFFCURVE",
"150 17 OFFCURVE",
"150 27 CURVE SMOOTH",
"150 39 LINE SMOOTH",
"150 131 OFFCURVE",
"75 631 OFFCURVE",
"15 546 CURVE",
"15 484 OFFCURVE",
"49 388 OFFCURVE",
"57 347 CURVE",
"68 276 OFFCURVE",
"76 191 OFFCURVE",
"84 112 CURVE SMOOTH",
"93 40 LINE",
"90 39 OFFCURVE",
"86 38 OFFCURVE",
"83 36 CURVE",
"53 26 OFFCURVE",
"30 15 OFFCURVE",
"13 -13 CURVE",
"-33 -128 OFFCURVE",
"49 -145 OFFCURVE",
"183 -142 CURVE"
);
}
);
width = 168;
}
);
unicode = 012E;
},
{
color = 3;
glyphname = J;
lastChange = "2016-08-31 20:03:52 +0000";
layers = (
{
anchors = (
{
name = bottom;
position = "{317, -1}";
},
{
name = top;
position = "{342, 693}";
}
);
layerId = UUID0;
paths = (
{
closed = 1;
nodes = (
"419 -1 OFFCURVE",
"425 192 OFFCURVE",
"421 293 CURVE SMOOTH",
"413 495 OFFCURVE",
"365 754 OFFCURVE",
"313 676 CURVE",
"367 310 LINE SMOOTH",
"385 191 OFFCURVE",
"359 56 OFFCURVE",
"323 56 CURVE SMOOTH",
"208 56 OFFCURVE",
"32 174 OFFCURVE",
"68 271 CURVE SMOOTH",
"75 290 OFFCURVE",
"83 298 OFFCURVE",
"68 304 CURVE",
"41 304 OFFCURVE",
"21 281 OFFCURVE",
"21 218 CURVE SMOOTH",
"21 102 OFFCURVE",
"170 13 OFFCURVE",
"317 -1 CURVE"
);
}
);
width = 440;
}
);
unicode = 004A;
},
{
color = 3;
glyphname = K;
lastChange = "2016-08-31 19:59:46 +0000";
layers = (
{
anchors = (
{
name = bottom;
position = "{235, 0}";
},
{
name = top;
position = "{149, 564}";
}
);
layerId = UUID0;
paths = (
{
closed = 1;
nodes = (
"116 -2 OFFCURVE",
"114 18 OFFCURVE",
"95 251 CURVE",
"142 163 OFFCURVE",
"320 58 OFFCURVE",
"385 10 CURVE",
"421 -9 OFFCURVE",
"433 -7 OFFCURVE",
"441 8 CURVE SMOOTH",
"450 26 OFFCURVE",
"437 51 OFFCURVE",
"405 62 CURVE",
"302 129 OFFCURVE",
"186 198 OFFCURVE",
"112 300 CURVE",
"144 357 OFFCURVE",
"228 433 OFFCURVE",
"281 497 CURVE",
"316 535 OFFCURVE",
"354 567 OFFCURVE",
"338 586 CURVE",
"247 590 OFFCURVE",
"139 403 OFFCURVE",
"87 332 CURVE",
"77 415 OFFCURVE",
"79 494 OFFCURVE",
"65 534 CURVE",
"63 547 OFFCURVE",
"63 584 OFFCURVE",
"40 584 CURVE SMOOTH",
"27 584 OFFCURVE",
"19 564 OFFCURVE",
"19 559 CURVE SMOOTH",
"19 479 OFFCURVE",
"43 374 OFFCURVE",
"48 291 CURVE",
"57 112 OFFCURVE",
"56 -2 OFFCURVE",
"92 -2 CURVE SMOOTH"
);
}
);
width = 469;
}
);
unicode = 004B;
},
{
color = 3;
glyphname = L;
lastChange = "2016-08-30 17:08:01 +0000";
layers = (
{
anchors = (
{
name = bottom;
position = "{174, 0}";
},
{
name = center;
position = "{104, 289}";
},
{
name = top;
position = "{83, 535}";
},
{
name = topright;
position = "{182, 527}";
}
);
layerId = UUID0;
paths = (
{
closed = 1;
nodes = (
"229 -2 OFFCURVE",
"280 0 OFFCURVE",
"291 0 CURVE",
"314 5 OFFCURVE",
"329 10 OFFCURVE",
"329 33 CURVE SMOOTH",
"329 40 OFFCURVE",
"330 56 OFFCURVE",
"318 57 CURVE SMOOTH",
"122 74 LINE SMOOTH",
"92 77 OFFCURVE",
"74 116 OFFCURVE",
"74 142 CURVE",
"66 280 OFFCURVE",
"140 531 OFFCURVE",
"83 535 CURVE",
"42 556 OFFCURVE",
"26 298 OFFCURVE",
"19 158 CURVE",
"19 29 OFFCURVE",
"100 -2 OFFCURVE",
"221 -2 CURVE SMOOTH"
);
}
);
width = 347;
}
);
unicode = 004C;
},
{
color = 3;
glyphname = Lslash;
lastChange = "2016-08-30 17:03:42 +0000";
layers = (
{
layerId = UUID0;
paths = (
{
closed = 1;
nodes = (
"276 7 OFFCURVE",
"324 9 OFFCURVE",
"336 9 CURVE",
"358 14 OFFCURVE",
"374 19 OFFCURVE",
"374 42 CURVE SMOOTH",
"374 50 OFFCURVE",
"375 64 OFFCURVE",
"364 65 CURVE SMOOTH",
"167 84 LINE SMOOTH",
"138 87 OFFCURVE",
"120 124 OFFCURVE",
"120 150 CURVE",
"119 161 OFFCURVE",
"118 173 OFFCURVE",
"119 188 CURVE",
"163 213 OFFCURVE",
"168 228 OFFCURVE",
"197 249 CURVE",
"212 249 OFFCURVE",
"174 286 OFFCURVE",
"174 300 CURVE",
"125 271 LINE",
"138 398 OFFCURVE",
"171 541 OFFCURVE",
"128 544 CURVE",
"94 563 OFFCURVE",
"74 374 OFFCURVE",
"66 235 CURVE",
"12 200 LINE",
"24 145 LINE",
"37 149 OFFCURVE",
"51 155 OFFCURVE",
"63 159 CURVE",
"65 36 OFFCURVE",
"148 7 OFFCURVE",
"265 7 CURVE SMOOTH"
);
}
);
width = 347;
}
);
unicode = 0141;
},
{
color = 3;
glyphname = M;
lastChange = "2016-08-31 20:00:18 +0000";
layers = (
{
anchors = (
{
name = bottom;
position = "{267, 0}";
},
{
name = top;
position = "{267, 591}";
}
);
layerId = UUID0;
paths = (
{
closed = 1;
nodes = (
"494 -2 OFFCURVE",
"506 -3 OFFCURVE",
"506 19 CURVE SMOOTH",
"506 150 OFFCURVE",
"468 280 OFFCURVE",
"468 412 CURVE SMOOTH",
"468 463 OFFCURVE",
"470 505 OFFCURVE",
"470 555 CURVE SMOOTH",
"470 567 OFFCURVE",
"470 612 OFFCURVE",
"440 610 CURVE",
"386 622 OFFCURVE",
"407 412 OFFCURVE",
"250 420 CURVE",
"124 420 OFFCURVE",
"135 610 OFFCURVE",
"38 610 CURVE SMOOTH",
"25 610 OFFCURVE",
"19 604 OFFCURVE",
"19 591 CURVE SMOOTH",
"19 542 OFFCURVE",
"66 513 OFFCURVE",
"66 461 CURVE SMOOTH",
"66 375 OFFCURVE",
"56 292 OFFCURVE",
"56 206 CURVE SMOOTH",
"56 66 LINE",
"59 50 OFFCURVE",
"63 27 OFFCURVE",
"84 27 CURVE SMOOTH",
"96 27 OFFCURVE",
"116 33 OFFCURVE",
"116 48 CURVE SMOOTH",
"117 375 LINE SMOOTH",
"117 400 OFFCURVE",
"120 456 OFFCURVE",
"106 456 CURVE",
"150 389 OFFCURVE",
"196 355 OFFCURVE",
"240 355 CURVE SMOOTH",
"301 355 OFFCURVE",
"355 391 OFFCURVE",
"411 456 CURVE",
"412 430 OFFCURVE",
"416 329 OFFCURVE",
"419 291 CURVE SMOOTH",
"440 19 LINE",
"447 -2 OFFCURVE",
"462 -2 OFFCURVE",
"479 -2 CURVE SMOOTH"
);
}
);
width = 534;
}
);
unicode = 004D;
},
{
color = 3;
glyphname = N;
lastChange = "2016-08-31 20:00:59 +0000";
layers = (
{
anchors = (
{
name = bottom;
position = "{305, 0}";
},
{
name = top;
position = "{248, 515}";
}
);
layerId = UUID0;
paths = (
{
closed = 1;
nodes = (
"91 -1 OFFCURVE",
"95 47 OFFCURVE",
"95 64 CURVE SMOOTH",
"95 32 OFFCURVE",
"93 304 OFFCURVE",
"93 304 CURVE",
"141 204 OFFCURVE",
"212 10 OFFCURVE",
"395 10 CURVE SMOOTH",
"507 10 OFFCURVE",
"583 89 OFFCURVE",
"583 201 CURVE SMOOTH",
"583 268 OFFCURVE",
"513 498 OFFCURVE",
"450 498 CURVE SMOOTH",
"432 498 OFFCURVE",
"424 483 OFFCURVE",
"431 469 CURVE SMOOTH",
"471 386 OFFCURVE",
"526 311 OFFCURVE",
"526 209 CURVE SMOOTH",
"526 131 OFFCURVE",
"487 74 OFFCURVE",
"406 74 CURVE SMOOTH",
"204 70 OFFCURVE",
"116 393 OFFCURVE",
"85 534 CURVE",
"75 534 LINE SMOOTH",
"69 534 OFFCURVE",
"44 525 OFFCURVE",
"38 525 CURVE",
"38 521 LINE SMOOTH",
"38 488 OFFCURVE",
"48 458 OFFCURVE",
"48 423 CURVE SMOOTH",
"48 304 OFFCURVE",
"28 183 OFFCURVE",
"28 60 CURVE SMOOTH",
"28 41 OFFCURVE",
"35 -1 OFFCURVE",
"62 -1 CURVE SMOOTH"
);
}
);
width = 610;
}
);
unicode = 004E;
},
{
color = 3;
glyphname = O;
lastChange = "2016-09-01 14:00:13 +0000";
layers = (
{
anchors = (
{
name = bottom;
position = "{305, 0}";
},
{
name = center;
position = "{305, 347}";
},
{
name = ogonek;
position = "{433, 37}";
},
{
name = top;
position = "{187, 475}";
},
{
name = topleft;
position = "{70, 406}";
},
{
name = topright;
position = "{426, 423}";
}
);
layerId = UUID0;
paths = (
{
closed = 1;
nodes = (
"403 -1 OFFCURVE",
"556 25 OFFCURVE",
"582 161 CURVE",
"571 343 OFFCURVE",
"399 456 OFFCURVE",
"204 484 CURVE",
"93 477 OFFCURVE",
"11 386 OFFCURVE",
"19 272 CURVE",
"19 108 OFFCURVE",
"135 -1 OFFCURVE",
"297 -1 CURVE SMOOTH"
);
},
{
closed = 1;
nodes = (
"184 67 OFFCURVE",
"62 157 OFFCURVE",
"64 276 CURVE SMOOTH",
"64 328 OFFCURVE",
"81 402 OFFCURVE",
"164 423 CURVE SMOOTH",
"261 448 OFFCURVE",
"498 363 OFFCURVE",
"525 171 CURVE",
"525 77 OFFCURVE",
"340 43 OFFCURVE",
"288 51 CURVE SMOOTH"
);
}
);
width = 610;
}
);
unicode = 004F;
},
{
color = 3;
glyphname = Oslash;
lastChange = "2016-08-30 17:03:42 +0000";
layers = (
{
layerId = UUID0;
paths = (
{
closed = 1;
nodes = (
"163 -102 OFFCURVE",
"186 -62 OFFCURVE",
"210 -2 CURVE",
"212 1 OFFCURVE",
"214 5 OFFCURVE",
"215 9 CURVE",
"241 2 OFFCURVE",
"269 -1 OFFCURVE",
"297 -1 CURVE",
"403 15 OFFCURVE",
"556 25 OFFCURVE",
"582 161 CURVE",
"577 252 OFFCURVE",
"531 325 OFFCURVE",
"462 380 CURVE SMOOTH",
"434 402 OFFCURVE",
"402 422 OFFCURVE",
"366 438 CURVE",
"372 460 LINE SMOOTH",
"393 530 OFFCURVE",
"405 585 OFFCURVE",
"405 604 CURVE SMOOTH",
"405 620 OFFCURVE",
"410 644 OFFCURVE",
"387 648 CURVE",
"353 638 OFFCURVE",
"348 553 OFFCURVE",
"340 518 CURVE",
"317 457 LINE",
"281 470 OFFCURVE",
"243 479 OFFCURVE",
"204 484 CURVE",
"93 477 OFFCURVE",
"11 386 OFFCURVE",
"19 272 CURVE",
"19 190 OFFCURVE",
"47 121 OFFCURVE",
"97 74 CURVE SMOOTH",
"114 58 OFFCURVE",
"134 43 OFFCURVE",
"156 31 CURVE",
"146 7 LINE SMOOTH",
"134 -21 OFFCURVE",
"124 -50 OFFCURVE",
"124 -68 CURVE SMOOTH",
"124 -81 OFFCURVE",
"136 -102 OFFCURVE",
"152 -102 CURVE SMOOTH"
);
},
{
closed = 1;
nodes = (
"167 99 OFFCURVE",
"150 110 OFFCURVE",
"136 124 CURVE",
"93 164 OFFCURVE",
"63 218 OFFCURVE",
"64 276 CURVE SMOOTH",
"64 328 OFFCURVE",
"83 395 OFFCURVE",
"164 423 CURVE",
"192 428 OFFCURVE",
"239 424 OFFCURVE",
"290 407 CURVE SMOOTH",
"299 404 LINE",
"184 89 LINE"
);
},
{
closed = 1;
nodes = (
"271 54 OFFCURVE",
"255 58 OFFCURVE",
"238 63 CURVE",
"252 101 LINE SMOOTH",
"280 179 OFFCURVE",
"311 264 OFFCURVE",
"337 346 CURVE",
"342 358 OFFCURVE",
"346 371 OFFCURVE",
"350 384 CURVE",
"367 375 LINE SMOOTH",
"444 334 OFFCURVE",
"512 267 OFFCURVE",
"525 171 CURVE",
"525 77 OFFCURVE",
"340 51 OFFCURVE",
"288 51 CURVE"
);
}
);
width = 610;
}
);
unicode = 00D8;
},
{
color = 3;
glyphname = Oslashacute;
lastChange = "2016-08-30 17:03:42 +0000";
layers = (
{
layerId = UUID0;
paths = (
{
closed = 1;
nodes = (
"196 -90 OFFCURVE",
"216 -59 OFFCURVE",
"238 -9 CURVE",
"244 3 LINE",
"262 0 OFFCURVE",
"279 -1 OFFCURVE",
"297 -1 CURVE",
"403 15 OFFCURVE",
"556 25 OFFCURVE",
"582 161 CURVE",
"577 252 OFFCURVE",
"531 325 OFFCURVE",
"462 380 CURVE SMOOTH",
"442 396 OFFCURVE",
"421 409 OFFCURVE",
"397 422 CURVE",
"399 429 OFFCURVE",
"401 435 OFFCURVE",
"402 440 CURVE",
"408 461 OFFCURVE",
"411 476 OFFCURVE",
"411 483 CURVE SMOOTH",
"411 496 OFFCURVE",
"414 515 OFFCURVE",
"394 520 CURVE",
"372 514 OFFCURVE",
"363 473 OFFCURVE",
"357 441 CURVE",
"344 447 LINE",
"300 465 OFFCURVE",
"253 478 OFFCURVE",
"204 484 CURVE",
"93 477 OFFCURVE",
"11 386 OFFCURVE",
"19 272 CURVE",
"19 147 OFFCURVE",
"83 60 OFFCURVE",
"186 19 CURVE",
"187 19 OFFCURVE",
"188 18 OFFCURVE",
"189 17 CURVE",
"182 -1 LINE",
"171 -24 OFFCURVE",
"162 -48 OFFCURVE",
"162 -63 CURVE SMOOTH",
"162 -74 OFFCURVE",
"173 -90 OFFCURVE",
"188 -90 CURVE SMOOTH"
);
},
{
closed = 1;
nodes = (
"208 76 LINE SMOOTH",
"130 112 OFFCURVE",
"63 188 OFFCURVE",
"64 276 CURVE SMOOTH",
"64 328 OFFCURVE",
"83 395 OFFCURVE",
"164 423 CURVE",
"192 428 OFFCURVE",
"239 424 OFFCURVE",
"290 407 CURVE",
"308 402 OFFCURVE",
"325 396 OFFCURVE",
"343 387 CURVE",
"218 71 LINE"
);
},
{
closed = 1;
nodes = (
"267 55 LINE",
"274 74 LINE",
"313 167 OFFCURVE",
"354 281 OFFCURVE",
"382 366 CURVE",
"382 367 LINE",
"402 354 OFFCURVE",
"421 341 OFFCURVE",
"439 325 CURVE SMOOTH",
"483 286 OFFCURVE",
"517 234 OFFCURVE",
"525 171 CURVE",
"525 77 OFFCURVE",
"340 51 OFFCURVE",
"288 51 CURVE"
);
},
{
closed = 1;
nodes = (
"318 629 OFFCURVE",
"399 673 OFFCURVE",
"344 699 CURVE",
"304 665 OFFCURVE",
"208 623 OFFCURVE",
"208 566 CURVE SMOOTH",
"208 548 OFFCURVE",
"213 543 OFFCURVE",
"232 543 CURVE"
);
}
);
width = 610;
}
);
unicode = 01FE;
},
{
color = 3;
glyphname = OE;
lastChange = "2016-08-30 17:03:42 +0000";
layers = (
{
layerId = UUID0;
paths = (
{
closed = 1;
nodes = (
"561 1 LINE SMOOTH",
"641 1 OFFCURVE",
"833 4 OFFCURVE",
"833 52 CURVE SMOOTH",
"833 55 OFFCURVE",
"825 58 OFFCURVE",
"822 59 CURVE SMOOTH",
"819 60 OFFCURVE",
"800 65 OFFCURVE",
"795 65 CURVE SMOOTH",
"789 65 LINE SMOOTH",
"700 65 OFFCURVE",
"612 51 OFFCURVE",
"523 51 CURVE SMOOTH",
"505 51 OFFCURVE",
"438 44 OFFCURVE",
"427 65 CURVE",
"427 74 LINE SMOOTH",
"427 85 OFFCURVE",
"426 95 OFFCURVE",
"426 105 CURVE SMOOTH",
"426 115 LINE SMOOTH",
"426 149 OFFCURVE",
"424 198 OFFCURVE",
"437 229 CURVE",
"446 254 OFFCURVE",
"796 230 OFFCURVE",
"796 305 CURVE",
"788 305 OFFCURVE",
"746 302 OFFCURVE",
"738 302 CURVE",
"729 307 OFFCURVE",
"464 261 OFFCURVE",
"440 280 CURVE",
"440 415 LINE SMOOTH",
"440 416 OFFCURVE",
"439 420 OFFCURVE",
"437 426 CURVE",
"438 425 OFFCURVE",
"440 425 OFFCURVE",
"443 425 CURVE SMOOTH",
"760 432 LINE",
"807 417 LINE",
"810 417 OFFCURVE",
"815 422 OFFCURVE",
"815 425 CURVE SMOOTH",
"815 451 OFFCURVE",
"785 459 OFFCURVE",
"760 468 CURVE",
"411 464 OFFCURVE",
"384 491 OFFCURVE",
"384 443 CURVE SMOOTH",
"384 382 LINE",
"354 438 OFFCURVE",
"306 472 OFFCURVE",
"204 487 CURVE",
"93 479 OFFCURVE",
"11 389 OFFCURVE",
"19 275 CURVE",
"19 112 OFFCURVE",
"135 2 OFFCURVE",
"297 2 CURVE",
"348 9 OFFCURVE",
"373 19 OFFCURVE",
"388 42 CURVE",
"412 11 OFFCURVE",
"459 1 OFFCURVE",
"528 1 CURVE SMOOTH"
);
},
{
closed = 1;
nodes = (
"183 69 OFFCURVE",
"62 160 OFFCURVE",
"64 279 CURVE SMOOTH",
"64 331 OFFCURVE",
"83 397 OFFCURVE",
"164 426 CURVE",
"250 441 OFFCURVE",
"349 402 OFFCURVE",
"375 210 CURVE",
"375 117 OFFCURVE",
"340 54 OFFCURVE",
"288 54 CURVE"
);
}
);
width = 849;
}
);
unicode = 0152;
},
{
color = 3;
glyphname = P;
lastChange = "2016-08-31 20:02:37 +0000";
layers = (
{
anchors = (
{
name = bottom;
position = "{314, 0}";
},
{
name = top;
position = "{314, 563}";
}
);
layerId = UUID0;
paths = (
{
closed = 1;
nodes = (
"327 -6 OFFCURVE",
"329 23 OFFCURVE",
"329 44 CURVE SMOOTH",
"329 90 OFFCURVE",
"318 133 OFFCURVE",
"318 179 CURVE SMOOTH",
"318 188 LINE",
"362 188 OFFCURVE",
"630 239 OFFCURVE",
"610 370 CURVE",
"610 556 OFFCURVE",
"313 590 OFFCURVE",
"183 590 CURVE SMOOTH",
"113 590 OFFCURVE",
"19 578 OFFCURVE",
"19 534 CURVE SMOOTH",
"19 467 OFFCURVE",
"22 458 OFFCURVE",
"33 458 CURVE SMOOTH",
"57 458 OFFCURVE",
"42 523 OFFCURVE",
"64 533 CURVE",
"100 549 OFFCURVE",
"128 544 OFFCURVE",
"214 544 CURVE SMOOTH",
"284 544 OFFCURVE",
"555 498 OFFCURVE",
"555 376 CURVE SMOOTH",
"555 300 OFFCURVE",
"452 263 OFFCURVE",
"385 253 CURVE SMOOTH",
"354 248 OFFCURVE",
"335 245 OFFCURVE",
"310 242 CURVE",
"284 321 OFFCURVE",
"292 407 OFFCURVE",
"281 479 CURVE",
"272 479 LINE SMOOTH",
"258 479 OFFCURVE",
"244 465 OFFCURVE",
"244 449 CURVE SMOOTH",
"244 281 LINE",
"254 226 OFFCURVE",
"264 64 OFFCURVE",
"300 0 CURVE"
);
}
);
width = 628;
}
);
unicode = 0050;
},
{
color = 3;
glyphname = Thorn;
lastChange = "2016-08-30 17:03:42 +0000";
layers = (
{
layerId = UUID0;
paths = (
{
closed = 1;
nodes = (
"120 45 LINE",
"139 37 OFFCURVE",
"224 -1 OFFCURVE",
"250 -1 CURVE SMOOTH",
"347 -1 OFFCURVE",
"479 12 OFFCURVE",
"479 133 CURVE SMOOTH",
"479 274 OFFCURVE",
"300 338 OFFCURVE",
"183 338 CURVE SMOOTH",
"156 338 OFFCURVE",
"135 326 OFFCURVE",
"111 326 CURVE",
"97 323 OFFCURVE",
"118 556 OFFCURVE",
"114 597 CURVE",
"57 608 LINE",
"39 614 OFFCURVE",
"57 316 OFFCURVE",
"57 300 CURVE",
"77 -135 LINE",
"132 -156 LINE"
);
},
{
closed = 1;
nodes = (
"369 3 OFFCURVE",
"83 42 OFFCURVE",
"122 212 CURVE",
"122 255 OFFCURVE",
"146 282 OFFCURVE",
"188 282 CURVE SMOOTH",
"269 282 OFFCURVE",
"423 235 OFFCURVE",
"423 131 CURVE"
);
}
);
width = 497;
}
);
unicode = 00DE;
},
{
color = 3;
glyphname = Q;
lastChange = "2016-08-31 21:36:34 +0000";
layers = (
{
anchors = (
{
name = bottom;
position = "{322, 0}";
},
{
name = top;
position = "{322, 493}";
}
);
layerId = UUID0;
paths = (
{
closed = 1;
nodes = (
"639 -50 OFFCURVE",
"574 -27 OFFCURVE",
"494 42 CURVE",
"561 78 OFFCURVE",
"616 128 OFFCURVE",
"616 199 CURVE SMOOTH",
"616 330 OFFCURVE",
"382 537 OFFCURVE",
"252 537 CURVE SMOOTH",
"123 537 OFFCURVE",
"24 412 OFFCURVE",
"24 287 CURVE SMOOTH",
"24 273 LINE SMOOTH",
"24 120 OFFCURVE",
"158 -13 OFFCURVE",
"324 1 CURVE SMOOTH",
"317 1 OFFCURVE",
"428 16 OFFCURVE",
"440 19 CURVE",
"550 -82 OFFCURVE",
"609 -136 OFFCURVE",
"654 -93 CURVE"
);
},
{
closed = 1;
nodes = (
"177 63 OFFCURVE",
"72 151 OFFCURVE",
"80 273 CURVE",
"80 355 OFFCURVE",
"96 438 OFFCURVE",
"185 470 CURVE",
"271 491 OFFCURVE",
"416 471 OFFCURVE",
"346 335 CURVE",
"359 328 OFFCURVE",
"366 317 OFFCURVE",
"381 320 CURVE",
"397 345 OFFCURVE",
"408 374 OFFCURVE",
"409 405 CURVE",
"422 405 OFFCURVE",
"472 352 OFFCURVE",
"493 330 CURVE SMOOTH",
"528 292 OFFCURVE",
"568 239 OFFCURVE",
"568 185 CURVE SMOOTH",
"568 144 OFFCURVE",
"512 108 OFFCURVE",
"439 89 CURVE",
"404 125 OFFCURVE",
"353 232 OFFCURVE",
"313 232 CURVE",
"275 206 OFFCURVE",
"312 153 OFFCURVE",
"384 74 CURVE",
"344 67 OFFCURVE",
"326 65 OFFCURVE",
"297 65 CURVE SMOOTH"
);
}
);
width = 643;
}
);
unicode = 0051;
},
{
color = 3;
glyphname = R;
lastChange = "2016-08-31 20:06:02 +0000";
layers = (
{
anchors = (
{
name = bottom;
position = "{290, 0}";
},
{
name = top;
position = "{232, 593}";
}
);
layerId = UUID0;
paths = (
{
closed = 1;
nodes = (
"598 4 OFFCURVE",
"404 17 OFFCURVE",
"206 285 CURVE",
"287 313 OFFCURVE",
"525 330 OFFCURVE",
"525 445 CURVE SMOOTH",
"525 575 OFFCURVE",
"356 624 OFFCURVE",
"250 624 CURVE SMOOTH",
"112 624 OFFCURVE",
"-11 615 OFFCURVE",
"-11 524 CURVE SMOOTH",
"-11 506 OFFCURVE",
"6 470 OFFCURVE",
"28 470 CURVE",
"28 577 OFFCURVE",
"133 567 OFFCURVE",
"211 567 CURVE SMOOTH",
"394 567 OFFCURVE",
"470 500 OFFCURVE",
"470 464 CURVE SMOOTH",
"470 383 OFFCURVE",
"245 345 OFFCURVE",
"189 342 CURVE",
"180 434 OFFCURVE",
"178 520 OFFCURVE",
"127 481 CURVE",
"96 372 OFFCURVE",
"196 -22 OFFCURVE",
"206 7 CURVE",
"251 20 OFFCURVE",
"212 100 OFFCURVE",
"193 217 CURVE",
"280 122 OFFCURVE",
"500 -86 OFFCURVE",
"544 -34 CURVE"
);
}
);
width = 579;
}
);
unicode = 0052;
},
{
color = 3;
glyphname = S;
lastChange = "2016-08-31 20:06:31 +0000";
layers = (
{
anchors = (
{
name = bottom;
position = "{314, 0}";
},
{
name = top;
position = "{304, 575}";
}
);
layerId = UUID0;
paths = (
{
closed = 1;
nodes = (
"201 56 OFFCURVE",
"71 112 OFFCURVE",
"71 240 CURVE",
"42 240 OFFCURVE",
"19 198 OFFCURVE",
"19 174 CURVE",
"74 -63 OFFCURVE",
"573 -76 OFFCURVE",
"601 112 CURVE SMOOTH",
"624 299 OFFCURVE",
"178 338 OFFCURVE",
"177 479 CURVE SMOOTH",
"176 550 OFFCURVE",
"262 557 OFFCURVE",
"351 555 CURVE SMOOTH",
"431 553 OFFCURVE",
"490 462 OFFCURVE",
"544 492 CURVE",
"544 556 OFFCURVE",
"446 601 OFFCURVE",
"329 601 CURVE SMOOTH",
"252 601 OFFCURVE",
"130 573 OFFCURVE",
"130 476 CURVE SMOOTH",
"130 376 OFFCURVE",
"195 361 OFFCURVE",
"497 197 CURVE",
"536 174 OFFCURVE",
"537 160 OFFCURVE",
"537 122 CURVE",
"540 44 OFFCURVE",
"410 48 OFFCURVE",
"355 48 CURVE"
);
}
);
width = 628;
}
);
unicode = 0053;
},
{
color = 3;
glyphname = Scedilla;
lastChange = "2016-08-30 17:03:42 +0000";
layers = (
{
layerId = UUID0;
paths = (
{
closed = 1;
nodes = (
"370 -307 OFFCURVE",
"444 -276 OFFCURVE",
"444 -214 CURVE SMOOTH",
"444 -45 OFFCURVE",
"242 -154 OFFCURVE",
"242 -34 CURVE",
"249 -27 OFFCURVE",
"245 -13 OFFCURVE",
"240 0 CURVE",
"235 10 LINE",
"264 3 OFFCURVE",
"292 -2 OFFCURVE",
"320 -5 CURVE SMOOTH",
"454 -18 OFFCURVE",
"588 18 OFFCURVE",
"601 112 CURVE SMOOTH",
"624 299 OFFCURVE",
"178 338 OFFCURVE",
"177 479 CURVE SMOOTH",
"177 550 OFFCURVE",
"302 555 OFFCURVE",
"351 555 CURVE",
"431 563 OFFCURVE",
"490 462 OFFCURVE",
"544 492 CURVE",
"544 576 OFFCURVE",
"386 601 OFFCURVE",
"329 601 CURVE SMOOTH",
"252 601 OFFCURVE",
"130 573 OFFCURVE",
"130 476 CURVE SMOOTH",
"130 429 OFFCURVE",
"163 379 OFFCURVE",
"206 355 CURVE SMOOTH",
"497 197 LINE",
"536 174 OFFCURVE",
"537 160 OFFCURVE",
"537 122 CURVE",
"540 44 OFFCURVE",
"410 48 OFFCURVE",
"355 48 CURVE",
"201 56 OFFCURVE",
"71 72 OFFCURVE",
"71 240 CURVE",
"42 240 OFFCURVE",
"19 198 OFFCURVE",
"19 174 CURVE",
"33 122 OFFCURVE",
"74 81 OFFCURVE",
"129 51 CURVE",
"151 37 OFFCURVE",
"177 26 OFFCURVE",
"205 19 CURVE",
"203 16 LINE",
"200 9 OFFCURVE",
"198 -4 OFFCURVE",
"197 -21 CURVE",
"200 -202 OFFCURVE",
"395 -88 OFFCURVE",
"392 -210 CURVE SMOOTH",
"392 -271 OFFCURVE",
"364 -262 OFFCURVE",
"320 -262 CURVE SMOOTH",
"282 -262 OFFCURVE",
"251 -204 OFFCURVE",
"206 -204 CURVE SMOOTH",
"197 -204 OFFCURVE",
"190 -204 OFFCURVE",
"183 -211 CURVE",
"224 -260 OFFCURVE",
"241 -307 OFFCURVE",
"317 -307 CURVE SMOOTH"
);
}
);
width = 628;
}
);
unicode = 015E;
},
{
color = 3;
glyphname = T;
lastChange = "2016-08-30 17:08:59 +0000";
layers = (
{
anchors = (
{
name = bottom;
position = "{407, -1}";
},
{
name = center;
position = "{354, 310}";
},
{
name = top;
position = "{329, 571}";
}
);
layerId = UUID0;
paths = (
{
closed = 1;
nodes = (
"421 -1 OFFCURVE",
"451 -4 OFFCURVE",
"451 19 CURVE SMOOTH",
"451 50 OFFCURVE",
"419 80 OFFCURVE",
"413 112 CURVE SMOOTH",
"390 245 OFFCURVE",
"360 416 OFFCURVE",
"360 537 CURVE",
"463 566 OFFCURVE",
"552 511 OFFCURVE",
"648 505 CURVE",
"664 505 OFFCURVE",
"666 522 OFFCURVE",
"666 535 CURVE SMOOTH",
"666 609 OFFCURVE",
"80 611 OFFCURVE",
"3 611 CURVE",
"3 601 OFFCURVE",
"5 567 OFFCURVE",
"28 572 CURVE",
"117 558 OFFCURVE",
"216 543 OFFCURVE",
"309 543 CURVE",
"319 396 OFFCURVE",
"326 273 OFFCURVE",
"347 131 CURVE",
"354 95 OFFCURVE",
"354 -1 OFFCURVE",
"407 -1 CURVE SMOOTH"
);
}
);
width = 581;
}
);
unicode = 0054;
},
{
color = 3;
glyphname = U;
lastChange = "2016-09-01 14:00:02 +0000";
layers = (
{
anchors = (
{
name = bottom;
position = "{247, 0}";
},
{
name = ogonek;
position = "{501, 31}";
},
{
name = top;
position = "{232, 517}";
},
{
name = topright;
position = "{472, 534}";
}
);
layerId = UUID0;
paths = (
{
closed = 1;
nodes = (
"324 -1 OFFCURVE",
"418 104 OFFCURVE",
"455 104 CURVE SMOOTH",
"488 104 OFFCURVE",
"485 28 OFFCURVE",
"534 28 CURVE SMOOTH",
"608 28 OFFCURVE",
"476 229 OFFCURVE",
"472 347 CURVE",
"479 508 OFFCURVE",
"416 625 OFFCURVE",
"402 443 CURVE",
"402 356 OFFCURVE",
"425 335 OFFCURVE",
"440 225 CURVE",
"440 221 LINE SMOOTH",
"440 138 OFFCURVE",
"311 61 OFFCURVE",
"235 65 CURVE SMOOTH",
"92 77 OFFCURVE",
"74 301 OFFCURVE",
"74 398 CURVE SMOOTH",
"74 407 OFFCURVE",
"71 487 OFFCURVE",
"95 487 CURVE",
"126 511 OFFCURVE",
"124 544 OFFCURVE",
"95 544 CURVE SMOOTH",
"25 544 OFFCURVE",
"27 415 OFFCURVE",
"27 381 CURVE SMOOTH",
"27 261 OFFCURVE",
"66 -1 OFFCURVE",
"232 -1 CURVE SMOOTH"
);
}
);
width = 572;
}
);
unicode = 0055;
},
{
color = 3;
glyphname = Uogonek;
lastChange = "2016-08-30 17:03:42 +0000";
layers = (
{
layerId = UUID0;
paths = (
{
closed = 1;
nodes = (
"602 -128 LINE",
"482 -136 OFFCURVE",
"426 -96 OFFCURVE",
"466 -50 CURVE SMOOTH",
"477 -37 OFFCURVE",
"498 -24 OFFCURVE",
"528 -12 CURVE",
"533 -15 OFFCURVE",
"539 -16 OFFCURVE",
"546 -16 CURVE SMOOTH",
"620 -16 OFFCURVE",
"487 186 OFFCURVE",
"483 303 CURVE",
"490 464 OFFCURVE",
"428 581 OFFCURVE",
"414 399 CURVE",
"414 313 OFFCURVE",
"437 291 OFFCURVE",
"452 181 CURVE",
"452 177 LINE SMOOTH",
"452 94 OFFCURVE",
"322 17 OFFCURVE",
"247 21 CURVE SMOOTH",
"104 33 OFFCURVE",
"86 257 OFFCURVE",
"86 354 CURVE SMOOTH",
"86 372 LINE SMOOTH",
"86 398 OFFCURVE",
"89 443 OFFCURVE",
"106 443 CURVE",
"138 467 OFFCURVE",
"136 500 OFFCURVE",
"106 500 CURVE SMOOTH",
"37 500 OFFCURVE",
"39 371 OFFCURVE",
"39 337 CURVE SMOOTH",
"39 217 OFFCURVE",
"78 -45 OFFCURVE",
"244 -45 CURVE SMOOTH",
"336 -45 OFFCURVE",
"430 60 OFFCURVE",
"467 60 CURVE SMOOTH",
"483 60 OFFCURVE",
"491 41 OFFCURVE",
"500 22 CURVE",
"486 17 LINE SMOOTH",
"458 7 OFFCURVE",
"433 -6 OFFCURVE",
"417 -32 CURVE",
"368 -148 OFFCURVE",
"452 -164 OFFCURVE",
"587 -161 CURVE"
);
}
);
width = 572;
}
);
unicode = 0172;
},
{
color = 3;
glyphname = V;
lastChange = "2016-08-31 21:37:30 +0000";
layers = (
{
anchors = (
{
name = bottom;
position = "{242, 0}";
},
{
name = top;
position = "{212, 454}";
}
);
layerId = UUID0;
paths = (
{
closed = 1;
nodes = (
"346 33 OFFCURVE",
"467 379 OFFCURVE",
"470 493 CURVE",
"470 518 OFFCURVE",
"451 519 OFFCURVE",
"440 518 CURVE",
"400 512 OFFCURVE",
"301 122 OFFCURVE",
"255 90 CURVE",
"200 185 OFFCURVE",
"74 518 OFFCURVE",
"31 518 CURVE SMOOTH",
"20 518 OFFCURVE",
"9 518 OFFCURVE",
"9 502 CURVE SMOOTH",
"9 449 OFFCURVE",
"121 220 OFFCURVE",
"147 168 CURVE SMOOTH",
"188 79 OFFCURVE",
"199 56 OFFCURVE",
"235 0 CURVE",
"248 -1 LINE"
);
}
);
width = 470;
}
);
unicode = 0056;
},
{
color = 3;
glyphname = W;
lastChange = "2016-08-31 21:34:29 +0000";
layers = (
{
anchors = (
{
name = bottom;
position = "{324, 0}";
},
{
name = top;
position = "{296, 454}";
}
);
layerId = UUID0;
paths = (
{
closed = 1;
nodes = (
"593 0 OFFCURVE",
"685 90 OFFCURVE",
"685 188 CURVE",
"688 255 OFFCURVE",
"604 571 OFFCURVE",
"553 460 CURVE",
"553 363 OFFCURVE",
"629 277 OFFCURVE",
"629 177 CURVE SMOOTH",
"629 114 OFFCURVE",
"561 64 OFFCURVE",
"502 64 CURVE SMOOTH",
"395 64 OFFCURVE",
"342 197 OFFCURVE",
"329 281 CURVE",
"316 315 OFFCURVE",
"296 329 OFFCURVE",
"282 291 CURVE",
"282 261 OFFCURVE",
"288 195 OFFCURVE",
"272 159 CURVE",
"243 100 OFFCURVE",
"212 74 OFFCURVE",
"164 74 CURVE SMOOTH",
"48 74 OFFCURVE",
"82 498 OFFCURVE",
"48 498 CURVE SMOOTH",
"5 498 OFFCURVE",
"10 393 OFFCURVE",
"10 385 CURVE SMOOTH",
"10 285 OFFCURVE",
"27 7 OFFCURVE",
"176 7 CURVE SMOOTH",
"221 7 OFFCURVE",
"269 53 OFFCURVE",
"323 133 CURVE",
"356 60 OFFCURVE",
"413 0 OFFCURVE",
"493 0 CURVE SMOOTH"
);
}
);
width = 704;
}
);
unicode = 0057;
},
{
color = 3;
glyphname = X;
lastChange = "2016-08-31 21:35:18 +0000";
layers = (
{
anchors = (
{
name = bottom;
position = "{226, 0}";
},
{
name = top;
position = "{257, 484}";
}
);
layerId = UUID0;
paths = (
{
closed = 1;
nodes = (
"60 -55 OFFCURVE",
"79 18 OFFCURVE",
"104 54 CURVE SMOOTH",
"134 97 OFFCURVE",
"173 160 OFFCURVE",
"226 221 CURVE",
"285 153 OFFCURVE",
"334 55 OFFCURVE",
"402 2 CURVE",
"519 -29 OFFCURVE",
"309 162 OFFCURVE",
"273 260 CURVE",
"333 335 OFFCURVE",
"445 421 OFFCURVE",
"526 471 CURVE",
"516 522 OFFCURVE",
"429 466 OFFCURVE",
"410 454 CURVE SMOOTH",
"327 402 OFFCURVE",
"301 383 OFFCURVE",
"238 325 CURVE",
"218 344 OFFCURVE",
"128 525 OFFCURVE",
"104 525 CURVE SMOOTH",
"87 525 OFFCURVE",
"83 518 OFFCURVE",
"83 502 CURVE SMOOTH",
"83 434 OFFCURVE",
"197 334 OFFCURVE",
"197 271 CURVE",
"135 192 OFFCURVE",
"20 64 OFFCURVE",
"20 -30 CURVE SMOOTH",
"20 -49 OFFCURVE",
"22 -61 OFFCURVE",
"38 -61 CURVE"
);
}
);
width = 534;
}
);
unicode = 0058;
},
{
color = 3;
glyphname = Y;
lastChange = "2016-08-31 21:35:55 +0000";
layers = (
{
anchors = (
{
name = bottom;
position = "{338, 77}";
},
{
name = top;
position = "{202, 517}";
},
{
name = topleft;
position = "{35, 536}";
}
);
layerId = UUID0;
paths = (
{
closed = 1;
nodes = (
"239 -87 OFFCURVE",
"246 -82 OFFCURVE",
"254 -66 CURVE",
"219 167 OFFCURVE",
"385 341 OFFCURVE",
"385 525 CURVE SMOOTH",
"385 549 OFFCURVE",
"338 536 OFFCURVE",
"338 525 CURVE",
"326 459 OFFCURVE",
"317 435 OFFCURVE",
"276 335 CURVE",
"142 365 OFFCURVE",
"71 433 OFFCURVE",
"48 573 CURVE",
"47 573 OFFCURVE",
"20 569 OFFCURVE",
"18 570 CURVE",
"-2 378 OFFCURVE",
"149 320 OFFCURVE",
"255 277 CURVE",
"223 154 OFFCURVE",
"197 91 OFFCURVE",
"197 -14 CURVE SMOOTH",
"197 -66 LINE",
"205 -82 OFFCURVE",
"212 -87 OFFCURVE",
"227 -87 CURVE SMOOTH"
);
}
);
width = 403;
}
);
unicode = 0059;
},
{
color = 3;
glyphname = Z;
lastChange = "2016-08-31 20:08:19 +0000";
layers = (
{
anchors = (
{
name = bottom;
position = "{286, 0}";
},
{
name = top;
position = "{235, 598}";
}
);
layerId = UUID0;
paths = (
{
closed = 1;
nodes = (
"368 -1 OFFCURVE",
"452 18 OFFCURVE",
"534 48 CURVE SMOOTH",
"554 56 OFFCURVE",
"555 63 OFFCURVE",
"555 79 CURVE SMOOTH",
"555 94 OFFCURVE",
"551 104 OFFCURVE",
"534 104 CURVE SMOOTH",
"444 104 OFFCURVE",
"354 56 OFFCURVE",
"261 56 CURVE SMOOTH",
"241 56 OFFCURVE",
"227 60 OFFCURVE",
"227 72 CURVE SMOOTH",
"227 82 OFFCURVE",
"297 186 OFFCURVE",
"351 278 CURVE",
"366 278 OFFCURVE",
"437 272 OFFCURVE",
"445 272 CURVE SMOOTH",
"466 272 OFFCURVE",
"499 292 OFFCURVE",
"517 300 CURVE",
"507 330 OFFCURVE",
"460 335 OFFCURVE",
"378 332 CURVE",
"392 381 OFFCURVE",
"402 397 OFFCURVE",
"402 438 CURVE SMOOTH",
"402 583 OFFCURVE",
"283 619 OFFCURVE",
"161 619 CURVE SMOOTH",
"121 619 OFFCURVE",
"17 615 OFFCURVE",
"17 549 CURVE SMOOTH",
"17 543 LINE",
"20 540 OFFCURVE",
"23 534 OFFCURVE",
"26 534 CURVE SMOOTH",
"67 534 OFFCURVE",
"114 572 OFFCURVE",
"177 572 CURVE SMOOTH",
"252 572 OFFCURVE",
"354 540 OFFCURVE",
"354 446 CURVE",
"349 391 OFFCURVE",
"338 367 OFFCURVE",
"327 330 CURVE",
"239 321 OFFCURVE",
"216 318 OFFCURVE",
"131 300 CURVE",
"111 292 OFFCURVE",
"106 270 OFFCURVE",
"106 251 CURVE",
"146 251 OFFCURVE",
"182 261 OFFCURVE",
"221 263 CURVE SMOOTH",
"297 277 LINE",
"263 227 OFFCURVE",
"168 91 OFFCURVE",
"168 70 CURVE SMOOTH",
"168 38 OFFCURVE",
"184 9 OFFCURVE",
"216 0 CURVE",
"281 -1 LINE SMOOTH"
);
}
);
width = 572;
}
);
unicode = 005A;
},
{
color = 3;
glyphname = R.alt;
lastChange = "2016-08-30 17:03:42 +0000";
layers = (
{
layerId = UUID0;
paths = (
{
closed = 1;
nodes = (
"598 4 OFFCURVE",
"404 17 OFFCURVE",
"206 285 CURVE",
"287 313 OFFCURVE",
"525 330 OFFCURVE",
"525 445 CURVE SMOOTH",
"525 575 OFFCURVE",
"356 624 OFFCURVE",
"250 624 CURVE SMOOTH",
"178 624 OFFCURVE",
"139 620 OFFCURVE",
"57 604 CURVE",
"26 589 OFFCURVE",
"-11 561 OFFCURVE",
"-11 524 CURVE SMOOTH",
"-11 506 OFFCURVE",
"6 470 OFFCURVE",
"28 470 CURVE",
"28 577 OFFCURVE",
"133 567 OFFCURVE",
"211 567 CURVE SMOOTH",
"320 567 OFFCURVE",
"394 558 OFFCURVE",
"469 473 CURVE",
"469 473 OFFCURVE",
"470 467 OFFCURVE",
"470 464 CURVE SMOOTH",
"470 390 OFFCURVE",
"244 355 OFFCURVE",
"188 352 CURVE",
"183 362 OFFCURVE",
"171 416 OFFCURVE",
"168 427 CURVE",
"175 453 OFFCURVE",
"159 506 OFFCURVE",
"127 481 CURVE",
"96 372 OFFCURVE",
"196 -22 OFFCURVE",
"206 7 CURVE",
"251 20 OFFCURVE",
"212 100 OFFCURVE",
"193 217 CURVE",
"280 122 OFFCURVE",
"500 -86 OFFCURVE",
"544 -34 CURVE"
);
}
);
width = 579;
}
);
},
{
color = 3;
glyphname = a;
lastChange = "2016-08-30 17:37:21 +0000";
layers = (
{
anchors = (
{
name = bottom;
position = "{253, 0}";
},
{
name = ogonek;
position = "{455, 10}";
},
{
name = top;
position = "{233, 454}";
}
);
layerId = UUID0;
paths = (
{
closed = 1;
nodes = (
"313 0 OFFCURVE",
"479 42 OFFCURVE",
"479 64 CURVE SMOOTH",
"479 82 OFFCURVE",
"475 86 OFFCURVE",
"436 86 CURVE SMOOTH",
"356 86 OFFCURVE",
"357 56 OFFCURVE",
"244 56 CURVE SMOOTH",
"150 56 OFFCURVE",
"80 96 OFFCURVE",
"80 158 CURVE SMOOTH",
"80 214 OFFCURVE",
"116 248 OFFCURVE",
"223 248 CURVE SMOOTH",
"289 248 OFFCURVE",
"384 220 OFFCURVE",
"440 106 CURVE",
"472 104 LINE",
"491 265 OFFCURVE",
"380 489 OFFCURVE",
"221 499 CURVE SMOOTH",
"156 502 OFFCURVE",
"99 473 OFFCURVE",
"99 417 CURVE SMOOTH",
"99 410 OFFCURVE",
"105 405 OFFCURVE",
"111 405 CURVE SMOOTH",
"135 405 OFFCURVE",
"173 446 OFFCURVE",
"219 446 CURVE SMOOTH",
"294 446 OFFCURVE",
"383 358 OFFCURVE",
"416 216 CURVE",
"326 301 OFFCURVE",
"252 299 OFFCURVE",
"193 299 CURVE SMOOTH",
"76 299 OFFCURVE",
"19 228 OFFCURVE",
"19 165 CURVE SMOOTH",
"19 29 OFFCURVE",
"167 0 OFFCURVE",
"276 0 CURVE SMOOTH"
);
}
);
width = 506;
}
);
unicode = 0061;
},
{
color = 3;
glyphname = aogonek;
lastChange = "2016-08-30 17:03:42 +0000";
layers = (
{
layerId = UUID0;
paths = (
{
closed = 1;
nodes = (
"473 -84 LINE",
"354 -92 OFFCURVE",
"297 -52 OFFCURVE",
"337 -6 CURVE",
"344 1 OFFCURVE",
"354 9 OFFCURVE",
"367 17 CURVE",
"391 23 LINE",
"438 37 OFFCURVE",
"479 54 OFFCURVE",
"479 64 CURVE SMOOTH",
"479 72 OFFCURVE",
"479 81 OFFCURVE",
"469 85 CURVE",
"462 85 LINE SMOOTH",
"457 85 OFFCURVE",
"449 86 OFFCURVE",
"442 86 CURVE SMOOTH",
"436 86 LINE SMOOTH",
"366 86 OFFCURVE",
"301 65 OFFCURVE",
"228 65 CURVE SMOOTH",
"184 65 OFFCURVE",
"65 88 OFFCURVE",
"65 150 CURVE SMOOTH",
"65 234 OFFCURVE",
"206 258 OFFCURVE",
"263 258 CURVE",
"298 250 OFFCURVE",
"386 230 OFFCURVE",
"440 106 CURVE",
"444 106 LINE",
"453 104 OFFCURVE",
"470 104 OFFCURVE",
"472 104 CURVE",
"491 265 OFFCURVE",
"380 479 OFFCURVE",
"221 499 CURVE",
"179 499 OFFCURVE",
"142 478 OFFCURVE",
"142 432 CURVE SMOOTH",
"142 431 OFFCURVE",
"146 424 OFFCURVE",
"150 423 CURVE",
"152 421 LINE SMOOTH",
"153 420 OFFCURVE",
"153 420 OFFCURVE",
"154 420 CURVE SMOOTH",
"178 420 OFFCURVE",
"186 441 OFFCURVE",
"214 441 CURVE SMOOTH",
"277 441 OFFCURVE",
"366 363 OFFCURVE",
"366 295 CURVE",
"367 276 LINE",
"125 370 OFFCURVE",
"19 232 OFFCURVE",
"19 165 CURVE SMOOTH",
"19 29 OFFCURVE",
"167 0 OFFCURVE",
"276 0 CURVE SMOOTH",
"282 0 LINE",
"274 -24 OFFCURVE",
"271 -43 OFFCURVE",
"274 -58 CURVE SMOOTH",
"286 -110 OFFCURVE",
"355 -119 OFFCURVE",
"458 -117 CURVE"
);
}
);
width = 506;
}
);
unicode = 0105;
},
{
color = 3;
glyphname = aring;
lastChange = "2016-08-30 17:03:42 +0000";
layers = (
{
layerId = UUID0;
paths = (
{
closed = 1;
nodes = (
"313 0 OFFCURVE",
"479 42 OFFCURVE",
"479 64 CURVE SMOOTH",
"479 72 OFFCURVE",
"479 81 OFFCURVE",
"469 85 CURVE",
"462 85 LINE SMOOTH",
"457 85 OFFCURVE",
"449 86 OFFCURVE",
"442 86 CURVE SMOOTH",
"436 86 LINE SMOOTH",
"366 86 OFFCURVE",
"301 65 OFFCURVE",
"228 65 CURVE SMOOTH",
"184 65 OFFCURVE",
"65 88 OFFCURVE",
"65 150 CURVE SMOOTH",
"65 234 OFFCURVE",
"206 258 OFFCURVE",
"263 258 CURVE",
"298 250 OFFCURVE",
"386 230 OFFCURVE",
"440 106 CURVE",
"444 106 LINE",
"453 104 OFFCURVE",
"470 104 OFFCURVE",
"472 104 CURVE",
"488 237 OFFCURVE",
"413 409 OFFCURVE",
"296 475 CURVE",
"270 487 LINE",
"272 487 OFFCURVE",
"276 488 OFFCURVE",
"279 490 CURVE",
"313 502 OFFCURVE",
"341 528 OFFCURVE",
"341 569 CURVE SMOOTH",
"341 602 OFFCURVE",
"311 651 OFFCURVE",
"268 651 CURVE SMOOTH",
"216 651 OFFCURVE",
"158 623 OFFCURVE",
"158 565 CURVE SMOOTH",
"158 541 OFFCURVE",
"166 521 OFFCURVE",
"183 506 CURVE",
"187 502 OFFCURVE",
"191 499 OFFCURVE",
"196 496 CURVE",
"190 494 LINE SMOOTH",
"163 486 OFFCURVE",
"142 468 OFFCURVE",
"142 432 CURVE SMOOTH",
"142 431 OFFCURVE",
"146 424 OFFCURVE",
"150 423 CURVE",
"152 421 LINE SMOOTH",
"153 420 OFFCURVE",
"153 420 OFFCURVE",
"154 420 CURVE SMOOTH",
"178 420 OFFCURVE",
"186 441 OFFCURVE",
"214 441 CURVE SMOOTH",
"277 441 OFFCURVE",
"366 363 OFFCURVE",
"366 295 CURVE",
"367 276 LINE",
"125 370 OFFCURVE",
"19 232 OFFCURVE",
"19 165 CURVE SMOOTH",
"19 29 OFFCURVE",
"167 0 OFFCURVE",
"276 0 CURVE SMOOTH"
);
},
{
closed = 1;
nodes = (
"209 516 OFFCURVE",
"188 532 OFFCURVE",
"188 563 CURVE SMOOTH",
"188 605 OFFCURVE",
"225 617 OFFCURVE",
"260 617 CURVE",
"363 573 OFFCURVE",
"271 512 OFFCURVE",
"244 516 CURVE"
);
}
);
width = 506;
}
);
unicode = 00E5;
},
{
color = 3;
glyphname = ae;
lastChange = "2016-08-30 17:03:42 +0000";
layers = (
{
layerId = UUID0;
paths = (
{
closed = 1;
nodes = (
"738 -22 OFFCURVE",
"829 -7 OFFCURVE",
"871 51 CURVE",
"697 39 LINE",
"578 45 OFFCURVE",
"516 77 OFFCURVE",
"486 121 CURVE SMOOTH",
"481 128 OFFCURVE",
"477 136 OFFCURVE",
"474 144 CURVE",
"474 158 OFFCURVE",
"473 172 OFFCURVE",
"471 187 CURVE SMOOTH",
"468 209 OFFCURVE",
"464 230 OFFCURVE",
"458 251 CURVE",
"458 269 LINE SMOOTH",
"458 354 OFFCURVE",
"517 438 OFFCURVE",
"608 446 CURVE",
"665 449 OFFCURVE",
"702 395 OFFCURVE",
"702 344 CURVE SMOOTH",
"702 293 OFFCURVE",
"579 239 OFFCURVE",
"543 239 CURVE",
"480 252 OFFCURVE",
"477 243 OFFCURVE",
"477 231 CURVE SMOOTH",
"477 190 OFFCURVE",
"512 191 OFFCURVE",
"543 191 CURVE SMOOTH",
"628 191 OFFCURVE",
"751 247 OFFCURVE",
"751 342 CURVE",
"754 420 OFFCURVE",
"714 483 OFFCURVE",
"628 494 CURVE",
"555 494 OFFCURVE",
"500 464 OFFCURVE",
"461 417 CURVE SMOOTH",
"443 396 OFFCURVE",
"430 371 OFFCURVE",
"420 344 CURVE",
"417 347 OFFCURVE",
"415 351 OFFCURVE",
"413 354 CURVE",
"368 433 OFFCURVE",
"300 489 OFFCURVE",
"221 499 CURVE",
"179 499 OFFCURVE",
"142 478 OFFCURVE",
"142 432 CURVE SMOOTH",
"142 431 OFFCURVE",
"146 424 OFFCURVE",
"150 423 CURVE",
"152 421 LINE SMOOTH",
"153 420 OFFCURVE",
"153 420 OFFCURVE",
"154 420 CURVE SMOOTH",
"178 420 OFFCURVE",
"186 441 OFFCURVE",
"214 441 CURVE SMOOTH",
"277 441 OFFCURVE",
"366 363 OFFCURVE",
"366 295 CURVE",
"367 276 LINE",
"125 370 OFFCURVE",
"19 232 OFFCURVE",
"19 165 CURVE SMOOTH",
"19 29 OFFCURVE",
"167 0 OFFCURVE",
"276 0 CURVE SMOOTH",
"309 0 OFFCURVE",
"425 31 OFFCURVE",
"467 51 CURVE",
"475 57 LINE",
"484 48 LINE",
"535 2 OFFCURVE",
"604 -22 OFFCURVE",
"679 -22 CURVE SMOOTH"
);
},
{
closed = 1;
nodes = (
"184 65 OFFCURVE",
"65 88 OFFCURVE",
"65 150 CURVE SMOOTH",
"65 234 OFFCURVE",
"206 258 OFFCURVE",
"263 258 CURVE",
"290 252 OFFCURVE",
"345 238 OFFCURVE",
"394 182 CURVE SMOOTH",
"401 174 OFFCURVE",
"408 165 OFFCURVE",
"414 154 CURVE",
"417 146 OFFCURVE",
"421 138 OFFCURVE",
"424 130 CURVE",
"432 114 OFFCURVE",
"440 100 OFFCURVE",
"450 85 CURVE",
"447 86 OFFCURVE",
"445 86 OFFCURVE",
"442 86 CURVE SMOOTH",
"436 86 LINE SMOOTH",
"366 86 OFFCURVE",
"301 65 OFFCURVE",
"228 65 CURVE SMOOTH"
);
}
);
width = 882;
}
);
unicode = 00E6;
},
{
color = 3;
glyphname = b;
lastChange = "2016-08-30 17:10:01 +0000";
layers = (
{
anchors = (
{
name = bottom;
position = "{249, 0}";
},
{
name = top;
position = "{249, 454}";
}
);
layerId = UUID0;
paths = (
{
closed = 1;
nodes = (
"347 -1 OFFCURVE",
"479 12 OFFCURVE",
"479 133 CURVE SMOOTH",
"479 274 OFFCURVE",
"300 338 OFFCURVE",
"183 338 CURVE SMOOTH",
"156 338 OFFCURVE",
"135 326 OFFCURVE",
"111 326 CURVE",
"94 322 OFFCURVE",
"73 597 OFFCURVE",
"65 637 CURVE",
"-19 626 OFFCURVE",
"16 584 OFFCURVE",
"28 469 CURVE",
"57 300 LINE",
"68 153 OFFCURVE",
"57 -1 OFFCURVE",
"250 -1 CURVE SMOOTH"
);
},
{
closed = 1;
nodes = (
"369 3 OFFCURVE",
"83 42 OFFCURVE",
"122 212 CURVE",
"122 255 OFFCURVE",
"146 282 OFFCURVE",
"188 282 CURVE SMOOTH",
"269 282 OFFCURVE",
"423 235 OFFCURVE",
"423 131 CURVE"
);
}
);
width = 497;
}
);
unicode = 0062;
},
{
color = 3;
glyphname = c;
lastChange = "2016-08-30 17:10:04 +0000";
layers = (
{
anchors = (
{
name = bottom;
position = "{225, 0}";
},
{
name = top;
position = "{225, 454}";
}
);
layerId = UUID0;
paths = (
{
closed = 1;
nodes = (
"287 -1 OFFCURVE",
"423 -4 OFFCURVE",
"423 42 CURVE SMOOTH",
"423 45 LINE",
"423 48 LINE",
"419 49 OFFCURVE",
"407 57 OFFCURVE",
"403 57 CURVE",
"267 49 OFFCURVE",
"74 39 OFFCURVE",
"74 216 CURVE SMOOTH",
"74 304 OFFCURVE",
"129 395 OFFCURVE",
"229 395 CURVE SMOOTH",
"295 395 OFFCURVE",
"329 349 OFFCURVE",
"329 287 CURVE",
"342 287 OFFCURVE",
"356 345 OFFCURVE",
"356 356 CURVE SMOOTH",
"356 421 OFFCURVE",
"279 441 OFFCURVE",
"229 441 CURVE SMOOTH",
"114 441 OFFCURVE",
"19 333 OFFCURVE",
"19 218 CURVE SMOOTH",
"19 64 OFFCURVE",
"114 -1 OFFCURVE",
"265 -1 CURVE SMOOTH"
);
}
);
width = 449;
}
);
unicode = 0063;
},
{
color = 3;
glyphname = ccedilla;
lastChange = "2016-08-30 17:03:42 +0000";
layers = (
{
layerId = UUID0;
paths = (
{
closed = 1;
nodes = (
"313 -299 OFFCURVE",
"388 -271 OFFCURVE",
"388 -207 CURVE SMOOTH",
"388 -36 OFFCURVE",
"186 -149 OFFCURVE",
"186 -26 CURVE",
"188 -23 OFFCURVE",
"189 -19 OFFCURVE",
"188 -12 CURVE",
"188 -6 OFFCURVE",
"187 0 OFFCURVE",
"184 7 CURVE",
"208 2 OFFCURVE",
"235 -1 OFFCURVE",
"265 -1 CURVE SMOOTH",
"284 -1 LINE SMOOTH",
"329 -1 OFFCURVE",
"423 5 OFFCURVE",
"423 42 CURVE SMOOTH",
"423 45 LINE",
"423 48 LINE",
"419 49 OFFCURVE",
"407 57 OFFCURVE",
"403 57 CURVE",
"267 49 OFFCURVE",
"74 39 OFFCURVE",
"74 216 CURVE SMOOTH",
"74 304 OFFCURVE",
"129 395 OFFCURVE",
"229 395 CURVE SMOOTH",
"295 395 OFFCURVE",
"329 349 OFFCURVE",
"329 287 CURVE",
"342 287 OFFCURVE",
"356 345 OFFCURVE",
"356 356 CURVE SMOOTH",
"356 421 OFFCURVE",
"279 441 OFFCURVE",
"229 441 CURVE SMOOTH",
"114 441 OFFCURVE",
"19 333 OFFCURVE",
"19 218 CURVE SMOOTH",
"19 141 OFFCURVE",
"43 86 OFFCURVE",
"85 51 CURVE SMOOTH",
"102 36 OFFCURVE",
"122 25 OFFCURVE",
"145 17 CURVE",
"143 10 OFFCURVE",
"142 -1 OFFCURVE",
"141 -14 CURVE",
"146 -193 OFFCURVE",
"335 -82 OFFCURVE",
"335 -202 CURVE SMOOTH",
"335 -265 OFFCURVE",
"306 -254 OFFCURVE",
"263 -254 CURVE SMOOTH",
"225 -254 OFFCURVE",
"192 -196 OFFCURVE",
"149 -196 CURVE SMOOTH",
"139 -196 OFFCURVE",
"134 -196 OFFCURVE",
"126 -204 CURVE",
"169 -252 OFFCURVE",
"184 -299 OFFCURVE",
"260 -299 CURVE SMOOTH"
);
}
);
width = 449;
}
);
unicode = 00E7;
},
{
color = 3;
glyphname = d;
lastChange = "2016-08-30 17:25:29 +0000";
layers = (
{
anchors = (
{
name = bottom;
position = "{263, 0}";
},
{
name = center;
position = "{263, 227}";
},
{
name = top;
position = "{233, 454}";
},
{
name = topright;
position = "{366, 639}";
}
);
layerId = UUID0;
paths = (
{
closed = 1;
nodes = (
"261 1 OFFCURVE",
"359 76 OFFCURVE",
"414 175 CURVE",
"422 175 LINE",
"425 80 OFFCURVE",
"433 40 OFFCURVE",
"467 40 CURVE SMOOTH",
"482 40 OFFCURVE",
"501 43 OFFCURVE",
"501 63 CURVE",
"466 128 OFFCURVE",
"425 693 OFFCURVE",
"352 729 CURVE",
"273 709 OFFCURVE",
"399 513 OFFCURVE",
"388 356 CURVE",
"316 409 OFFCURVE",
"267 450 OFFCURVE",
"183 450 CURVE SMOOTH",
"65 450 OFFCURVE",
"19 337 OFFCURVE",
"19 222 CURVE SMOOTH",
"19 116 OFFCURVE",
"71 1 OFFCURVE",
"170 1 CURVE SMOOTH"
);
},
{
closed = 1;
nodes = (
"116 65 OFFCURVE",
"85 119 OFFCURVE",
"79 214 CURVE SMOOTH",
"73 311 OFFCURVE",
"113 386 OFFCURVE",
"195 386 CURVE SMOOTH",
"243 386 OFFCURVE",
"307 356 OFFCURVE",
"385 281 CURVE",
"385 258 LINE SMOOTH",
"385 176 OFFCURVE",
"268 65 OFFCURVE",
"183 65 CURVE SMOOTH"
);
}
);
width = 525;
}
);
unicode = 0064;
},
{
color = 3;
glyphname = eth;
lastChange = "2016-08-30 17:03:42 +0000";
layers = (
{
layerId = UUID0;
paths = (
{
closed = 1;
nodes = (
"349 -13 OFFCURVE",
"394 81 OFFCURVE",
"394 175 CURVE SMOOTH",
"394 239 OFFCURVE",
"364 325 OFFCURVE",
"323 384 CURVE",
"358 384 OFFCURVE",
"405 424 OFFCURVE",
"402 435 CURVE",
"364 530 OFFCURVE",
"352 434 OFFCURVE",
"270 438 CURVE",
"214 504 OFFCURVE",
"168 521 OFFCURVE",
"94 528 CURVE",
"70 528 OFFCURVE",
"23 520 OFFCURVE",
"23 487 CURVE SMOOTH",
"23 473 OFFCURVE",
"30 451 OFFCURVE",
"45 451 CURVE SMOOTH",
"53 451 OFFCURVE",
"83 474 OFFCURVE",
"94 477 CURVE",
"98 477 LINE SMOOTH",
"127 477 OFFCURVE",
"188 438 OFFCURVE",
"225 411 CURVE",
"201 416 OFFCURVE",
"143 375 OFFCURVE",
"126 381 CURVE",
"122 271 OFFCURVE",
"194 347 OFFCURVE",
"268 370 CURVE",
"294 339 OFFCURVE",
"313 306 OFFCURVE",
"313 279 CURVE SMOOTH",
"313 274 LINE",
"264 293 OFFCURVE",
"238 292 OFFCURVE",
"189 292 CURVE SMOOTH",
"93 292 OFFCURVE",
"23 228 OFFCURVE",
"23 136 CURVE SMOOTH",
"23 26 OFFCURVE",
"138 -13 OFFCURVE",
"235 -13 CURVE SMOOTH"
);
},
{
closed = 1;
nodes = (
"155 46 OFFCURVE",
"75 65 OFFCURVE",
"75 146 CURVE SMOOTH",
"75 189 OFFCURVE",
"140 251 OFFCURVE",
"183 251 CURVE SMOOTH",
"270 251 OFFCURVE",
"355 221 OFFCURVE",
"348 156 CURVE",
"335 85 OFFCURVE",
"287 51 OFFCURVE",
"221 46 CURVE"
);
}
);
width = 408;
}
);
unicode = 00F0;
},
{
color = 3;
glyphname = dcroat;
lastChange = "2016-08-30 17:03:42 +0000";
layers = (
{
layerId = UUID0;
paths = (
{
closed = 1;
nodes = (
"257 0 OFFCURVE",
"346 63 OFFCURVE",
"394 131 CURVE",
"395 132 OFFCURVE",
"402 133 OFFCURVE",
"403 133 CURVE SMOOTH",
"436 133 OFFCURVE",
"425 40 OFFCURVE",
"467 40 CURVE SMOOTH",
"482 40 OFFCURVE",
"501 43 OFFCURVE",
"501 63 CURVE",
"479 104 OFFCURVE",
"481 315 OFFCURVE",
"452 490 CURVE SMOOTH",
"443 535 LINE",
"453 534 OFFCURVE",
"462 533 OFFCURVE",
"470 530 CURVE",
"482 527 OFFCURVE",
"495 525 OFFCURVE",
"510 525 CURVE SMOOTH",
"522 525 OFFCURVE",
"528 532 OFFCURVE",
"528 546 CURVE SMOOTH",
"528 592 OFFCURVE",
"476 593 OFFCURVE",
"438 593 CURVE SMOOTH",
"429 593 LINE",
"420 623 OFFCURVE",
"409 649 OFFCURVE",
"396 674 CURVE SMOOTH",
"384 698 OFFCURVE",
"369 716 OFFCURVE",
"352 729 CURVE",
"313 719 OFFCURVE",
"323 665 OFFCURVE",
"345 594 CURVE SMOOTH",
"347 588 LINE",
"329 588 LINE",
"268 585 OFFCURVE",
"205 576 OFFCURVE",
"205 514 CURVE",
"243 514 OFFCURVE",
"279 519 OFFCURVE",
"317 525 CURVE SMOOTH",
"363 531 LINE",
"367 518 LINE SMOOTH",
"382 466 OFFCURVE",
"392 408 OFFCURVE",
"388 356 CURVE",
"306 409 OFFCURVE",
"247 450 OFFCURVE",
"183 450 CURVE SMOOTH",
"65 450 OFFCURVE",
"19 317 OFFCURVE",
"19 222 CURVE SMOOTH",
"19 146 OFFCURVE",
"69 0 OFFCURVE",
"168 0 CURVE SMOOTH"
);
},
{
closed = 1;
nodes = (
"116 65 OFFCURVE",
"105 110 OFFCURVE",
"79 204 CURVE",
"75 318 OFFCURVE",
"175 483 OFFCURVE",
"385 281 CURVE",
"385 258 LINE SMOOTH",
"385 176 OFFCURVE",
"268 65 OFFCURVE",
"183 65 CURVE SMOOTH"
);
}
);
width = 525;
}
);
unicode = 0111;
},
{
color = 3;
glyphname = e;
lastChange = "2016-08-30 17:10:26 +0000";
layers = (
{
anchors = (
{
name = bottom;
position = "{299, 30}";
},
{
name = ogonek;
position = "{407, 39}";
},
{
name = top;
position = "{225, 491}";
}
);
layerId = UUID0;
paths = (
{
closed = 1;
nodes = (
"354 0 OFFCURVE",
"446 17 OFFCURVE",
"487 73 CURVE",
"313 62 LINE",
"71 73 OFFCURVE",
"74 191 OFFCURVE",
"74 291 CURVE SMOOTH",
"74 378 OFFCURVE",
"133 461 OFFCURVE",
"225 469 CURVE SMOOTH",
"281 472 OFFCURVE",
"318 417 OFFCURVE",
"318 366 CURVE SMOOTH",
"318 315 OFFCURVE",
"195 262 OFFCURVE",
"159 262 CURVE",
"97 274 OFFCURVE",
"93 266 OFFCURVE",
"93 254 CURVE SMOOTH",
"93 213 OFFCURVE",
"128 215 OFFCURVE",
"159 215 CURVE SMOOTH",
"244 215 OFFCURVE",
"367 271 OFFCURVE",
"367 364 CURVE",
"370 443 OFFCURVE",
"330 506 OFFCURVE",
"244 517 CURVE",
"100 517 OFFCURVE",
"19 397 OFFCURVE",
"19 262 CURVE SMOOTH",
"19 101 OFFCURVE",
"145 0 OFFCURVE",
"295 0 CURVE SMOOTH"
);
}
);
width = 517;
}
);
unicode = 0065;
},
{
color = 3;
glyphname = eogonek;
lastChange = "2016-08-30 17:03:42 +0000";
layers = (
{
layerId = UUID0;
paths = (
{
closed = 1;
nodes = (
"446 -105 LINE",
"327 -113 OFFCURVE",
"271 -73 OFFCURVE",
"312 -27 CURVE SMOOTH",
"321 -17 OFFCURVE",
"339 -5 OFFCURVE",
"364 7 CURVE",
"375 9 OFFCURVE",
"387 12 OFFCURVE",
"397 16 CURVE",
"434 27 OFFCURVE",
"467 45 OFFCURVE",
"487 73 CURVE",
"313 62 LINE",
"71 73 OFFCURVE",
"74 191 OFFCURVE",
"74 291 CURVE SMOOTH",
"74 378 OFFCURVE",
"133 461 OFFCURVE",
"225 469 CURVE SMOOTH",
"281 472 OFFCURVE",
"318 417 OFFCURVE",
"318 366 CURVE SMOOTH",
"318 315 OFFCURVE",
"195 262 OFFCURVE",
"159 262 CURVE",
"97 274 OFFCURVE",
"93 266 OFFCURVE",
"93 254 CURVE SMOOTH",
"93 213 OFFCURVE",
"128 215 OFFCURVE",
"159 215 CURVE SMOOTH",
"244 215 OFFCURVE",
"367 271 OFFCURVE",
"367 364 CURVE",
"370 443 OFFCURVE",
"330 506 OFFCURVE",
"244 517 CURVE",
"100 517 OFFCURVE",
"19 397 OFFCURVE",
"19 262 CURVE SMOOTH",
"19 142 OFFCURVE",
"90 54 OFFCURVE",
"188 19 CURVE SMOOTH",
"214 9 OFFCURVE",
"240 3 OFFCURVE",
"269 1 CURVE",
"266 -2 OFFCURVE",
"264 -6 OFFCURVE",
"262 -10 CURVE",
"216 -125 OFFCURVE",
"298 -142 OFFCURVE",
"432 -139 CURVE"
);
}
);
width = 517;
}
);
unicode = 0119;
},
{
color = 3;
glyphname = f;
lastChange = "2016-08-30 17:30:54 +0000";
layers = (
{
anchors = (
{
name = bottom;
position = "{276, -1}";
},
{
name = top;
position = "{249, 693}";
}
);
layerId = UUID0;
paths = (
{
closed = 1;
nodes = (
"152 289 CURVE",
"139 352 OFFCURVE",
"135 416 OFFCURVE",
"142 479 CURVE SMOOTH",
"151 562 OFFCURVE",
"200 648 OFFCURVE",
"278 648 CURVE SMOOTH",
"364 648 OFFCURVE",
"382 554 OFFCURVE",
"433 554 CURVE SMOOTH",
"455 554 LINE",
"455 625 OFFCURVE",
"369 704 OFFCURVE",
"277 704 CURVE SMOOTH",
"89 704 OFFCURVE",
"87 436 OFFCURVE",
"95 318 CURVE",
"63 315 OFFCURVE",
"-9 315 OFFCURVE",
"-9 272 CURVE SMOOTH",
"-9 262 OFFCURVE",
"-6 253 OFFCURVE",
"5 253 CURVE SMOOTH",
"35 252 OFFCURVE",
"71 270 OFFCURVE",
"114 275 CURVE",
"158 171 OFFCURVE",
"228 -1 OFFCURVE",
"276 -1 CURVE SMOOTH",
"292 -1 OFFCURVE",
"303 3 OFFCURVE",
"303 19 CURVE SMOOTH",
"303 66 OFFCURVE",
"195 161 OFFCURVE"
);
},
{
closed = 1;
nodes = (
"143 286 LINE",
"269 255 OFFCURVE",
"348 257 OFFCURVE",
"348 291 CURVE SMOOTH",
"348 305 OFFCURVE",
"343 311 OFFCURVE",
"329 311 CURVE",
"190 319 OFFCURVE",
"134 322 OFFCURVE",
"136 326 CURVE"
);
}
);
width = 377;
}
);
unicode = 0066;
},
{
color = 3;
glyphname = g;
lastChange = "2016-08-30 17:10:35 +0000";
layers = (
{
anchors = (
{
name = bottom;
position = "{183, 0}";
},
{
name = top;
position = "{183, 454}";
}
);
layerId = UUID0;
paths = (
{
closed = 1;
nodes = (
"345 -488 OFFCURVE",
"366 -287 OFFCURVE",
"366 -196 CURVE",
"343 6 OFFCURVE",
"381 373 OFFCURVE",
"239 412 CURVE",
"116 412 OFFCURVE",
"19 272 OFFCURVE",
"19 158 CURVE SMOOTH",
"19 85 OFFCURVE",
"85 19 OFFCURVE",
"159 19 CURVE SMOOTH",
"198 19 OFFCURVE",
"239 57 OFFCURVE",
"268 57 CURVE SMOOTH",
"291 57 OFFCURVE",
"311 -158 OFFCURVE",
"311 -188 CURVE SMOOTH",
"311 -257 OFFCURVE",
"300 -424 OFFCURVE",
"203 -424 CURVE SMOOTH",
"160 -424 OFFCURVE",
"-84 -361 OFFCURVE",
"-84 -271 CURVE",
"-52 -188 OFFCURVE",
"-146 -220 OFFCURVE",
"-131 -271 CURVE",
"-131 -413 OFFCURVE",
"115 -488 OFFCURVE",
"217 -488 CURVE SMOOTH"
);
},
{
closed = 1;
nodes = (
"104 85 OFFCURVE",
"74 128 OFFCURVE",
"74 175 CURVE SMOOTH",
"74 247 OFFCURVE",
"133 355 OFFCURVE",
"221 355 CURVE SMOOTH",
"264 355 OFFCURVE",
"272 312 OFFCURVE",
"272 276 CURVE",
"277 203 OFFCURVE",
"288 85 OFFCURVE",
"154 85 CURVE SMOOTH"
);
}
);
width = 366;
}
);
unicode = 0067;
},
{
color = 3;
glyphname = h;
lastChange = "2016-08-30 17:10:37 +0000";
layers = (
{
anchors = (
{
name = bottom;
position = "{215, 0}";
},
{
name = center;
position = "{215, 227}";
},
{
name = top;
position = "{215, 454}";
}
);
layerId = UUID0;
paths = (
{
closed = 1;
nodes = (
"111 2 OFFCURVE",
"122 4 OFFCURVE",
"130 22 CURVE",
"130 64 LINE SMOOTH",
"130 125 OFFCURVE",
"103 270 OFFCURVE",
"103 329 CURVE",
"104 343 LINE",
"147 371 OFFCURVE",
"159 381 OFFCURVE",
"195 381 CURVE SMOOTH",
"285 381 OFFCURVE",
"329 312 OFFCURVE",
"329 227 CURVE SMOOTH",
"329 169 OFFCURVE",
"328 83 OFFCURVE",
"320 18 CURVE",
"440 -125 OFFCURVE",
"436 621 OFFCURVE",
"95 417 CURVE",
"83 512 OFFCURVE",
"99 507 OFFCURVE",
"25 704 CURVE",
"16 704 OFFCURVE",
"-14 695 OFFCURVE",
"-14 685 CURVE SMOOTH",
"-14 681 LINE",
"-4 619 OFFCURVE",
"-1 604 OFFCURVE",
"21 530 CURVE",
"83 248 OFFCURVE",
"49 -6 OFFCURVE",
"96 2 CURVE"
);
}
);
width = 429;
}
);
unicode = 0068;
},
{
color = 3;
glyphname = hbar;
lastChange = "2016-08-30 17:03:42 +0000";
layers = (
{
layerId = UUID0;
paths = (
{
closed = 1;
nodes = (
"111 2 OFFCURVE",
"122 4 OFFCURVE",
"130 22 CURVE",
"130 64 LINE SMOOTH",
"130 125 OFFCURVE",
"103 270 OFFCURVE",
"103 329 CURVE",
"104 343 LINE",
"147 371 OFFCURVE",
"159 381 OFFCURVE",
"195 381 CURVE SMOOTH",
"285 381 OFFCURVE",
"329 312 OFFCURVE",
"329 227 CURVE SMOOTH",
"329 169 OFFCURVE",
"328 83 OFFCURVE",
"320 18 CURVE",
"440 -125 OFFCURVE",
"436 621 OFFCURVE",
"95 417 CURVE",
"91 448 OFFCURVE",
"90 470 OFFCURVE",
"87 490 CURVE",
"86 502 LINE",
"99 501 OFFCURVE",
"110 499 OFFCURVE",
"121 496 CURVE",
"133 492 OFFCURVE",
"146 490 OFFCURVE",
"160 490 CURVE SMOOTH",
"173 490 OFFCURVE",
"179 497 OFFCURVE",
"179 511 CURVE SMOOTH",
"179 559 OFFCURVE",
"125 558 OFFCURVE",
"88 558 CURVE SMOOTH",
"75 558 LINE",
"73 563 LINE",
"64 595 OFFCURVE",
"50 638 OFFCURVE",
"25 704 CURVE",
"16 704 OFFCURVE",
"-14 695 OFFCURVE",
"-14 685 CURVE SMOOTH",
"-14 681 LINE",
"-6 634 OFFCURVE",
"0 617 OFFCURVE",
"8 576 CURVE",
"9 569 OFFCURVE",
"11 563 OFFCURVE",
"13 555 CURVE",
"-39 555 OFFCURVE",
"-80 549 OFFCURVE",
"-80 481 CURVE",
"-42 481 OFFCURVE",
"-22 486 OFFCURVE",
"0 491 CURVE SMOOTH",
"27 497 LINE",
"34 461 OFFCURVE",
"39 427 OFFCURVE",
"44 393 CURVE SMOOTH",
"73 170 OFFCURVE",
"57 -5 OFFCURVE",
"96 2 CURVE"
);
}
);
width = 429;
}
);
unicode = 0127;
},
{
color = 3;
glyphname = i;
lastChange = "2016-08-30 17:10:46 +0000";
layers = (
{
anchors = (
{
name = bottom;
position = "{118, 0}";
}
);
layerId = UUID0;
paths = (
{
closed = 1;
nodes = (
"146 -1 OFFCURVE",
"156 23 OFFCURVE",
"156 40 CURVE SMOOTH",
"156 176 OFFCURVE",
"102 284 OFFCURVE",
"109 423 CURVE",
"102 436 OFFCURVE",
"95 442 OFFCURVE",
"80 442 CURVE SMOOTH",
"65 442 OFFCURVE",
"60 433 OFFCURVE",
"63 412 CURVE",
"62 338 LINE SMOOTH",
"62 292 OFFCURVE",
"72 -1 OFFCURVE",
"123 -1 CURVE SMOOTH"
);
},
{
closed = 1;
nodes = (
"66 537 LINE",
"106 545 OFFCURVE",
"53 604 OFFCURVE",
"36 602 CURVE",
"21 602 OFFCURVE",
"12 599 OFFCURVE",
"12 583 CURVE SMOOTH",
"12 542 OFFCURVE",
"22 537 OFFCURVE",
"62 537 CURVE SMOOTH"
);
}
);
width = 175;
}
);
unicode = 0069;
},
{
color = 3;
glyphname = idotless;
lastChange = "2016-09-01 14:01:46 +0000";
layers = (
{
anchors = (
{
name = bottom;
position = "{88, 0}";
},
{
name = ogonek;
position = "{157, 10}";
},
{
name = top;
position = "{88, 454}";
}
);
layerId = UUID0;
paths = (
{
closed = 1;
nodes = (
"146 -1 OFFCURVE",
"156 23 OFFCURVE",
"156 40 CURVE SMOOTH",
"156 176 OFFCURVE",
"102 284 OFFCURVE",
"109 423 CURVE",
"102 436 OFFCURVE",
"95 442 OFFCURVE",
"80 442 CURVE SMOOTH",
"65 442 OFFCURVE",
"60 433 OFFCURVE",
"63 412 CURVE",
"63 396 LINE SMOOTH",
"63 384 OFFCURVE",
"62 367 OFFCURVE",
"62 353 CURVE SMOOTH",
"62 338 LINE SMOOTH",
"62 292 OFFCURVE",
"72 -1 OFFCURVE",
"123 -1 CURVE SMOOTH"
);
}
);
width = 175;
}
);
unicode = 0131;
},
{
color = 3;
glyphname = iacute;
lastChange = "2016-08-30 17:03:42 +0000";
layers = (
{
layerId = UUID0;
paths = (
{
closed = 1;
nodes = (
"146 -1 OFFCURVE",
"156 23 OFFCURVE",
"156 40 CURVE SMOOTH",
"156 176 OFFCURVE",
"102 284 OFFCURVE",
"109 423 CURVE",
"102 436 OFFCURVE",
"95 442 OFFCURVE",
"80 442 CURVE SMOOTH",
"65 442 OFFCURVE",
"60 433 OFFCURVE",
"63 412 CURVE",
"63 396 LINE SMOOTH",
"63 384 OFFCURVE",
"62 367 OFFCURVE",
"62 353 CURVE SMOOTH",
"62 338 LINE SMOOTH",
"62 292 OFFCURVE",
"72 -1 OFFCURVE",
"123 -1 CURVE SMOOTH"
);
},
{
closed = 1;
nodes = (
"99 556 OFFCURVE",
"181 599 OFFCURVE",
"125 625 CURVE",
"84 594 OFFCURVE",
"-11 547 OFFCURVE",
"-11 493 CURVE SMOOTH",
"-11 474 OFFCURVE",
"-7 470 OFFCURVE",
"13 470 CURVE"
);
}
);
width = 175;
}
);
unicode = 00ED;
},
{
color = 3;
glyphname = ibreve;
lastChange = "2016-08-30 17:03:42 +0000";
layers = (
{
layerId = UUID0;
paths = (
{
closed = 1;
nodes = (
"146 -1 OFFCURVE",
"156 23 OFFCURVE",
"156 40 CURVE SMOOTH",
"156 176 OFFCURVE",
"102 284 OFFCURVE",
"109 423 CURVE",
"102 436 OFFCURVE",
"95 442 OFFCURVE",
"80 442 CURVE SMOOTH",
"65 442 OFFCURVE",
"60 433 OFFCURVE",
"63 412 CURVE",
"63 396 LINE SMOOTH",
"63 384 OFFCURVE",
"62 367 OFFCURVE",
"62 353 CURVE SMOOTH",
"62 338 LINE SMOOTH",
"62 292 OFFCURVE",
"72 -1 OFFCURVE",
"123 -1 CURVE SMOOTH"
);
},
{
closed = 1;
nodes = (
"119 507 OFFCURVE",
"168 539 OFFCURVE",
"168 592 CURVE SMOOTH",
"168 599 OFFCURVE",
"166 595 OFFCURVE",
"162 603 CURVE",
"122 605 LINE",
"161 542 OFFCURVE",
"16 526 OFFCURVE",
"16 587 CURVE SMOOTH",
"16 590 OFFCURVE",
"16 593 OFFCURVE",
"-16 596 CURVE",
"-16 588 LINE SMOOTH",
"-16 538 OFFCURVE",
"21 507 OFFCURVE",
"70 507 CURVE SMOOTH"
);
}
);
width = 175;
}
);
unicode = 012D;
},
{
color = 3;
glyphname = icircumflex;
lastChange = "2016-08-30 17:03:42 +0000";
layers = (
{
layerId = UUID0;
paths = (
{
closed = 1;
nodes = (
"223 525 OFFCURVE",
"224 538 OFFCURVE",
"224 555 CURVE SMOOTH",
"224 579 OFFCURVE",
"222 583 OFFCURVE",
"204 610 CURVE SMOOTH",
"188 634 OFFCURVE",
"144 678 OFFCURVE",
"128 704 CURVE SMOOTH",
"116 724 OFFCURVE",
"110 731 OFFCURVE",
"92 731 CURVE SMOOTH",
"84 731 OFFCURVE",
"75 732 OFFCURVE",
"71 722 CURVE",
"48 627 OFFCURVE",
"28 627 OFFCURVE",
"-48 559 CURVE",
"-26 484 OFFCURVE",
"42 557 OFFCURVE",
"91 619 CURVE",
"141 588 OFFCURVE",
"166 525 OFFCURVE",
"204 525 CURVE SMOOTH"
);
},
{
closed = 1;
nodes = (
"146 -1 OFFCURVE",
"156 23 OFFCURVE",
"156 40 CURVE SMOOTH",
"156 176 OFFCURVE",
"102 284 OFFCURVE",
"109 423 CURVE",
"102 436 OFFCURVE",
"95 442 OFFCURVE",
"80 442 CURVE SMOOTH",
"65 442 OFFCURVE",
"60 433 OFFCURVE",
"63 412 CURVE",
"63 396 LINE SMOOTH",
"63 384 OFFCURVE",
"62 367 OFFCURVE",
"62 353 CURVE SMOOTH",
"62 338 LINE SMOOTH",
"62 292 OFFCURVE",
"72 -1 OFFCURVE",
"123 -1 CURVE SMOOTH"
);
}
);
width = 175;
}
);
unicode = 00EE;
},
{
color = 3;
glyphname = idieresis;
lastChange = "2016-08-30 17:03:42 +0000";
layers = (
{
layerId = UUID0;
paths = (
{
closed = 1;
nodes = (
"146 -1 OFFCURVE",
"156 23 OFFCURVE",
"156 40 CURVE SMOOTH",
"156 176 OFFCURVE",
"102 284 OFFCURVE",
"109 423 CURVE",
"102 436 OFFCURVE",
"95 442 OFFCURVE",
"80 442 CURVE SMOOTH",
"65 442 OFFCURVE",
"60 433 OFFCURVE",
"63 412 CURVE",
"63 396 LINE SMOOTH",
"63 384 OFFCURVE",
"62 367 OFFCURVE",
"62 353 CURVE SMOOTH",
"62 338 LINE SMOOTH",
"62 292 OFFCURVE",
"72 -1 OFFCURVE",
"123 -1 CURVE SMOOTH"
);
},
{
closed = 1;
nodes = (
"22 487 OFFCURVE",
"52 514 OFFCURVE",
"52 529 CURVE SMOOTH",
"52 553 OFFCURVE",
"34 584 OFFCURVE",
"-7 584 CURVE SMOOTH",
"-21 584 OFFCURVE",
"-49 546 OFFCURVE",
"-49 534 CURVE SMOOTH",
"-49 520 OFFCURVE",
"-33 487 OFFCURVE",
"-2 487 CURVE SMOOTH"
);
},
{
closed = 1;
nodes = (
"180 487 OFFCURVE",
"208 514 OFFCURVE",
"208 529 CURVE SMOOTH",
"208 553 OFFCURVE",
"188 584 OFFCURVE",
"150 584 CURVE SMOOTH",
"136 584 OFFCURVE",
"106 546 OFFCURVE",
"106 534 CURVE SMOOTH",
"106 520 OFFCURVE",
"125 487 OFFCURVE",
"153 487 CURVE SMOOTH"
);
}
);
width = 175;
}
);
unicode = 00EF;
},
{
color = 3;
glyphname = igrave;
lastChange = "2016-08-30 17:03:42 +0000";
layers = (
{
layerId = UUID0;
paths = (
{
closed = 1;
nodes = (
"146 -1 OFFCURVE",
"156 23 OFFCURVE",
"156 40 CURVE SMOOTH",
"156 176 OFFCURVE",
"102 284 OFFCURVE",
"109 423 CURVE",
"102 436 OFFCURVE",
"95 442 OFFCURVE",
"80 442 CURVE SMOOTH",
"65 442 OFFCURVE",
"60 433 OFFCURVE",
"63 412 CURVE",
"63 396 LINE SMOOTH",
"63 384 OFFCURVE",
"62 367 OFFCURVE",
"62 353 CURVE SMOOTH",
"62 338 LINE SMOOTH",
"62 292 OFFCURVE",
"72 -1 OFFCURVE",
"123 -1 CURVE SMOOTH"
);
},
{
closed = 1;
nodes = (
"142 476 OFFCURVE",
"150 478 OFFCURVE",
"150 505 CURVE SMOOTH",
"150 509 OFFCURVE",
"145 521 OFFCURVE",
"142 522 CURVE",
"110 548 OFFCURVE",
"113 552 OFFCURVE",
"82 575 CURVE",
"-12 622 OFFCURVE",
"14 576 OFFCURVE",
"35 547 CURVE",
"107 478 OFFCURVE",
"119 476 OFFCURVE",
"123 476 CURVE SMOOTH"
);
}
);
width = 175;
}
);
unicode = 00EC;
},
{
color = 3;
glyphname = imacron;
lastChange = "2016-08-30 17:03:42 +0000";
layers = (
{
layerId = UUID0;
paths = (
{
closed = 1;
nodes = (
"146 -1 OFFCURVE",
"156 23 OFFCURVE",
"156 40 CURVE SMOOTH",
"156 176 OFFCURVE",
"102 284 OFFCURVE",
"109 423 CURVE",
"102 436 OFFCURVE",
"95 442 OFFCURVE",
"80 442 CURVE SMOOTH",
"65 442 OFFCURVE",
"60 433 OFFCURVE",
"63 412 CURVE",
"63 396 LINE SMOOTH",
"63 384 OFFCURVE",
"62 367 OFFCURVE",
"62 353 CURVE SMOOTH",
"62 338 LINE SMOOTH",
"62 292 OFFCURVE",
"72 -1 OFFCURVE",
"123 -1 CURVE SMOOTH"
);
},
{
closed = 1;
nodes = (
"30 525 OFFCURVE",
"38 546 OFFCURVE",
"115 546 CURVE SMOOTH",
"146 546 OFFCURVE",
"167 535 OFFCURVE",
"195 535 CURVE SMOOTH",
"208 535 OFFCURVE",
"214 542 OFFCURVE",
"214 556 CURVE SMOOTH",
"214 604 OFFCURVE",
"160 603 OFFCURVE",
"123 603 CURVE",
"101 602 LINE",
"29 594 OFFCURVE",
"-45 617 OFFCURVE",
"-45 525 CURVE"
);
}
);
width = 175;
}
);
unicode = 012B;
},
{
color = 3;
glyphname = iogonek;
lastChange = "2016-08-30 17:03:42 +0000";
layers = (
{
layerId = UUID0;
paths = (
{
closed = 1;
nodes = (
"184 -111 LINE",
"65 -119 OFFCURVE",
"8 -79 OFFCURVE",
"48 -33 CURVE",
"60 -21 OFFCURVE",
"80 -8 OFFCURVE",
"110 5 CURVE",
"114 1 OFFCURVE",
"118 -1 OFFCURVE",
"123 -1 CURVE SMOOTH",
"146 -1 OFFCURVE",
"156 23 OFFCURVE",
"156 40 CURVE SMOOTH",
"156 176 OFFCURVE",
"102 284 OFFCURVE",
"109 423 CURVE",
"102 436 OFFCURVE",
"95 442 OFFCURVE",
"80 442 CURVE SMOOTH",
"65 442 OFFCURVE",
"60 433 OFFCURVE",
"63 412 CURVE",
"63 396 LINE SMOOTH",
"63 384 OFFCURVE",
"62 367 OFFCURVE",
"62 353 CURVE SMOOTH",
"62 338 LINE SMOOTH",
"62 308 OFFCURVE",
"66 167 OFFCURVE",
"85 77 CURVE SMOOTH",
"93 43 LINE",
"84 40 OFFCURVE",
"76 36 OFFCURVE",
"68 33 CURVE SMOOTH",
"40 23 OFFCURVE",
"15 11 OFFCURVE",
"-1 -16 CURVE",
"-50 -131 OFFCURVE",
"34 -147 OFFCURVE",
"169 -145 CURVE"
);
},
{
closed = 1;
nodes = (
"66 537 LINE",
"106 545 OFFCURVE",
"53 604 OFFCURVE",
"36 602 CURVE",
"21 602 OFFCURVE",
"12 599 OFFCURVE",
"12 583 CURVE SMOOTH",
"12 542 OFFCURVE",
"22 537 OFFCURVE",
"62 537 CURVE SMOOTH"
);
}
);
width = 175;
}
);
unicode = 012F;
},
{
color = 3;
glyphname = itilde;
lastChange = "2016-08-30 17:03:42 +0000";
layers = (
{
layerId = UUID0;
paths = (
{
closed = 1;
nodes = (
"34 447 OFFCURVE",
"-58 622 OFFCURVE",
"54 614 CURVE",
"108 588 OFFCURVE",
"144 527 OFFCURVE",
"212 553 CURVE",
"240 561 OFFCURVE",
"192 537 OFFCURVE",
"295 625 CURVE",
"302 632 OFFCURVE",
"303 653 OFFCURVE",
"271 656 CURVE",
"210 609 LINE",
"210 608 OFFCURVE",
"208 606 OFFCURVE",
"204 605 CURVE",
"195 602 LINE",
"175 594 OFFCURVE",
"163 595 OFFCURVE",
"139 609 CURVE SMOOTH",
"58 659 OFFCURVE",
"40 656 OFFCURVE",
"33 654 CURVE",
"-21 654 OFFCURVE",
"-66 601 OFFCURVE",
"-46 539 CURVE"
);
},
{
closed = 1;
nodes = (
"146 -1 OFFCURVE",
"156 23 OFFCURVE",
"156 40 CURVE SMOOTH",
"156 176 OFFCURVE",
"102 284 OFFCURVE",
"109 423 CURVE",
"102 436 OFFCURVE",
"95 442 OFFCURVE",
"80 442 CURVE SMOOTH",
"65 442 OFFCURVE",
"60 433 OFFCURVE",
"63 412 CURVE",
"63 396 LINE SMOOTH",
"63 384 OFFCURVE",
"62 367 OFFCURVE",
"62 353 CURVE SMOOTH",
"62 338 LINE SMOOTH",
"62 292 OFFCURVE",
"72 -1 OFFCURVE",
"123 -1 CURVE SMOOTH"
);
}
);
width = 175;
}
);
unicode = 0129;
},
{
color = 3;
glyphname = j;
lastChange = "2016-08-30 17:03:42 +0000";
layers = (
{
layerId = UUID0;
paths = (
{
closed = 1;
nodes = (
"313 -483 OFFCURVE",
"171 354 OFFCURVE",
"106 394 CURVE",
"79 394 OFFCURVE",
"82 386 OFFCURVE",
"79 367 CURVE",
"98 145 OFFCURVE",
"176 -81 OFFCURVE",
"168 -312 CURVE SMOOTH",
"168 -332 OFFCURVE",
"160 -368 OFFCURVE",
"131 -368 CURVE SMOOTH",
"-5 -368 OFFCURVE",
"-40 -131 OFFCURVE",
"-92 -107 CURVE",
"-114 -112 OFFCURVE",
"-110 -134 OFFCURVE",
"-110 -149 CURVE",
"-95 -285 OFFCURVE",
"19 -415 OFFCURVE",
"143 -448 CURVE"
);
},
{
closed = 1;
nodes = (
"98 543 OFFCURVE",
"83 591 OFFCURVE",
"48 583 CURVE",
"41 580 OFFCURVE",
"28 568 OFFCURVE",
"28 563 CURVE SMOOTH",
"28 515 OFFCURVE",
"67 492 OFFCURVE",
"98 518 CURVE"
);
}
);
width = 200;
}
);
unicode = 006A;
},
{
color = 3;
glyphname = jcircumflex;
lastChange = "2016-08-30 17:03:42 +0000";
layers = (
{
layerId = UUID0;
paths = (
{
closed = 1;
nodes = (
"313 -483 OFFCURVE",
"171 354 OFFCURVE",
"106 394 CURVE",
"79 394 OFFCURVE",
"82 386 OFFCURVE",
"79 367 CURVE",
"98 145 OFFCURVE",
"176 -81 OFFCURVE",
"168 -312 CURVE SMOOTH",
"168 -332 OFFCURVE",
"160 -368 OFFCURVE",
"131 -368 CURVE SMOOTH",
"-5 -368 OFFCURVE",
"-40 -131 OFFCURVE",
"-92 -107 CURVE",
"-114 -112 OFFCURVE",
"-110 -134 OFFCURVE",
"-110 -149 CURVE",
"-95 -285 OFFCURVE",
"19 -415 OFFCURVE",
"143 -448 CURVE"
);
},
{
closed = 1;
nodes = (
"235 525 OFFCURVE",
"235 538 OFFCURVE",
"235 555 CURVE SMOOTH",
"235 580 OFFCURVE",
"234 583 OFFCURVE",
"217 610 CURVE SMOOTH",
"201 634 OFFCURVE",
"156 678 OFFCURVE",
"141 704 CURVE SMOOTH",
"129 724 OFFCURVE",
"123 731 OFFCURVE",
"104 731 CURVE SMOOTH",
"96 731 OFFCURVE",
"87 732 OFFCURVE",
"84 722 CURVE",
"61 627 OFFCURVE",
"39 627 OFFCURVE",
"-35 559 CURVE",
"-14 485 OFFCURVE",
"54 557 OFFCURVE",
"104 619 CURVE",
"151 587 OFFCURVE",
"179 525 OFFCURVE",
"217 525 CURVE SMOOTH"
);
}
);
width = 200;
}
);
unicode = 0135;
},
{
color = 3;
glyphname = k;
lastChange = "2016-08-30 17:10:55 +0000";
layers = (
{
anchors = (
{
name = bottom;
position = "{172, 0}";
},
{
name = top;
position = "{172, 454}";
}
);
layerId = UUID0;
paths = (
{
closed = 1;
nodes = (
"122 -1 OFFCURVE",
"95 95 OFFCURVE",
"136 95 CURVE SMOOTH",
"155 95 OFFCURVE",
"254 8 OFFCURVE",
"312 8 CURVE SMOOTH",
"339 8 OFFCURVE",
"396 2 OFFCURVE",
"396 42 CURVE SMOOTH",
"396 51 OFFCURVE",
"396 63 OFFCURVE",
"385 65 CURVE",
"324 69 OFFCURVE",
"140 108 OFFCURVE",
"140 195 CURVE SMOOTH",
"140 253 OFFCURVE",
"268 378 OFFCURVE",
"319 423 CURVE",
"320 438 OFFCURVE",
"319 450 OFFCURVE",
"301 450 CURVE SMOOTH",
"215 450 OFFCURVE",
"193 288 OFFCURVE",
"118 288 CURVE SMOOTH",
"115 288 OFFCURVE",
"106 288 OFFCURVE",
"104 291 CURVE",
"92 374 OFFCURVE",
"33 690 OFFCURVE",
"-2 597 CURVE",
"6 489 OFFCURVE",
"49 336 OFFCURVE",
"57 216 CURVE",
"58 154 LINE",
"58 136 OFFCURVE",
"57 89 OFFCURVE",
"57 85 CURVE SMOOTH",
"57 78 OFFCURVE",
"48 33 OFFCURVE",
"48 28 CURVE SMOOTH",
"48 8 OFFCURVE",
"66 -1 OFFCURVE",
"83 -1 CURVE SMOOTH"
);
}
);
width = 403;
}
);
unicode = 006B;
},
{
color = 3;
glyphname = l;
lastChange = "2016-08-30 17:10:57 +0000";
layers = (
{
anchors = (
{
name = bottom;
position = "{60, 0}";
},
{
name = center;
position = "{60, 227}";
},
{
name = top;
position = "{60, 454}";
},
{
name = topright;
position = "{100, 454}";
}
);
layerId = UUID0;
paths = (
{
closed = 1;
nodes = (
"81 -1 OFFCURVE",
"108 -45 OFFCURVE",
"85 517 CURVE",
"85 532 OFFCURVE",
"71 572 OFFCURVE",
"48 572 CURVE SMOOTH",
"37 572 OFFCURVE",
"28 569 OFFCURVE",
"28 559 CURVE",
"31 375 OFFCURVE",
"14 193 OFFCURVE",
"40 7 CURVE"
);
}
);
width = 120;
}
);
unicode = 006C;
},
{
color = 3;
glyphname = lslash;
lastChange = "2016-08-30 17:03:42 +0000";
layers = (
{
layerId = UUID0;
paths = (
{
closed = 1;
nodes = (
"82 12 OFFCURVE",
"108 -19 OFFCURVE",
"101 299 CURVE",
"124 310 OFFCURVE",
"148 319 OFFCURVE",
"177 324 CURVE",
"188 324 OFFCURVE",
"147 379 OFFCURVE",
"147 394 CURVE",
"100 358 LINE",
"97 409 OFFCURVE",
"95 463 OFFCURVE",
"94 528 CURVE SMOOTH",
"94 544 OFFCURVE",
"81 585 OFFCURVE",
"57 585 CURVE SMOOTH",
"48 585 OFFCURVE",
"37 582 OFFCURVE",
"37 570 CURVE",
"38 484 OFFCURVE",
"35 400 OFFCURVE",
"34 313 CURVE",
"-69 241 LINE",
"-64 171 OFFCURVE",
"-33 212 OFFCURVE",
"34 259 CURVE",
"34 180 OFFCURVE",
"38 101 OFFCURVE",
"50 20 CURVE"
);
}
);
width = 120;
}
);
unicode = 0142;
},
{
color = 3;
glyphname = m;
lastChange = "2016-08-30 17:11:01 +0000";
layers = (
{
anchors = (
{
name = bottom;
position = "{375, 0}";
},
{
name = top;
position = "{345, 454}";
}
);
layerId = UUID0;
paths = (
{
closed = 1;
nodes = (
"724 -1 OFFCURVE",
"723 118 OFFCURVE",
"723 145 CURVE SMOOTH",
"723 244 OFFCURVE",
"670 423 OFFCURVE",
"539 423 CURVE SMOOTH",
"452 423 OFFCURVE",
"347 300 OFFCURVE",
"343 300 CURVE SMOOTH",
"338 300 LINE",
"299 365 OFFCURVE",
"254 395 OFFCURVE",
"180 395 CURVE SMOOTH",
"134 395 OFFCURVE",
"118 393 OFFCURVE",
"75 347 CURVE",
"75 367 OFFCURVE",
"65 385 OFFCURVE",
"42 385 CURVE SMOOTH",
"38 385 LINE",
"28 375 LINE",
"27 342 LINE SMOOTH",
"27 247 OFFCURVE",
"41 184 OFFCURVE",
"38 74 CURVE",
"43 51 OFFCURVE",
"53 19 OFFCURVE",
"81 19 CURVE SMOOTH",
"104 19 OFFCURVE",
"104 36 OFFCURVE",
"104 55 CURVE SMOOTH",
"104 105 OFFCURVE",
"93 155 OFFCURVE",
"93 207 CURVE SMOOTH",
"93 272 OFFCURVE",
"130 338 OFFCURVE",
"201 338 CURVE SMOOTH",
"337 338 OFFCURVE",
"318 57 OFFCURVE",
"389 57 CURVE SMOOTH",
"411 57 OFFCURVE",
"414 76 OFFCURVE",
"414 92 CURVE SMOOTH",
"414 133 OFFCURVE",
"384 168 OFFCURVE",
"384 206 CURVE SMOOTH",
"384 283 OFFCURVE",
"480 358 OFFCURVE",
"550 358 CURVE SMOOTH",
"630 358 OFFCURVE",
"661 214 OFFCURVE",
"666 159 CURVE",
"666 150 OFFCURVE",
"657 74 OFFCURVE",
"657 65 CURVE",
"656 63 OFFCURVE",
"656 41 OFFCURVE",
"655 34 CURVE",
"655 18 OFFCURVE",
"653 -1 OFFCURVE",
"676 -1 CURVE SMOOTH"
);
}
);
width = 750;
}
);
unicode = 006D;
},
{
color = 3;
glyphname = n;
lastChange = "2016-08-30 17:27:12 +0000";
layers = (
{
anchors = (
{
name = bottom;
position = "{250, 0}";
},
{
name = top;
position = "{210, 454}";
}
);
layerId = UUID0;
paths = (
{
closed = 1;
nodes = (
"133 80 OFFCURVE",
"95 161 OFFCURVE",
"95 244 CURVE SMOOTH",
"95 329 OFFCURVE",
"158 385 OFFCURVE",
"239 385 CURVE SMOOTH",
"323 385 OFFCURVE",
"399 219 OFFCURVE",
"376 19 CURVE",
"376 11 OFFCURVE",
"398 8 OFFCURVE",
"404 8 CURVE SMOOTH",
"437 8 OFFCURVE",
"441 90 OFFCURVE",
"441 113 CURVE SMOOTH",
"441 217 OFFCURVE",
"381 442 OFFCURVE",
"246 442 CURVE SMOOTH",
"138 442 OFFCURVE",
"86 347 OFFCURVE",
"77 347 CURVE SMOOTH",
"57 347 OFFCURVE",
"65 395 OFFCURVE",
"48 395 CURVE SMOOTH",
"39 395 OFFCURVE",
"28 393 OFFCURVE",
"28 381 CURVE SMOOTH",
"28 292 OFFCURVE",
"49 -4 OFFCURVE",
"133 -4 CURVE"
);
}
);
width = 460;
}
);
unicode = 006E;
},
{
color = 3;
glyphname = o;
lastChange = "2016-09-01 13:59:38 +0000";
layers = (
{
anchors = (
{
name = bottom;
position = "{244, 0}";
},
{
name = center;
position = "{244, 227}";
},
{
name = ogonek;
position = "{330, 47}";
},
{
name = top;
position = "{218, 454}";
},
{
name = topright;
position = "{395, 389}";
}
);
layerId = UUID0;
paths = (
{
closed = 1;
nodes = (
"344 -1 OFFCURVE",
"459 76 OFFCURVE",
"459 209 CURVE SMOOTH",
"459 292 OFFCURVE",
"383 414 OFFCURVE",
"284 414 CURVE SMOOTH",
"156 414 OFFCURVE",
"19 342 OFFCURVE",
"19 199 CURVE SMOOTH",
"19 75 OFFCURVE",
"106 -1 OFFCURVE",
"226 -1 CURVE SMOOTH"
);
},
{
closed = 1;
nodes = (
"131 56 OFFCURVE",
"65 126 OFFCURVE",
"65 206 CURVE SMOOTH",
"65 307 OFFCURVE",
"177 356 OFFCURVE",
"262 356 CURVE",
"563 247 OFFCURVE",
"306 45 OFFCURVE",
"215 56 CURVE"
);
}
);
width = 487;
}
);
unicode = 006F;
},
{
color = 3;
glyphname = oslash;
lastChange = "2016-08-30 17:03:42 +0000";
layers = (
{
layerId = UUID0;
paths = (
{
closed = 1;
nodes = (
"344 -1 OFFCURVE",
"459 76 OFFCURVE",
"459 209 CURVE SMOOTH",
"459 263 OFFCURVE",
"427 338 OFFCURVE",
"373 379 CURVE",
"364 387 LINE",
"370 400 LINE SMOOTH",
"378 417 OFFCURVE",
"382 428 OFFCURVE",
"382 434 CURVE SMOOTH",
"382 444 OFFCURVE",
"386 458 OFFCURVE",
"359 461 CURVE",
"340 457 OFFCURVE",
"328 442 OFFCURVE",
"320 426 CURVE",
"314 411 LINE",
"305 413 OFFCURVE",
"295 414 OFFCURVE",
"284 414 CURVE SMOOTH",
"156 414 OFFCURVE",
"19 342 OFFCURVE",
"19 199 CURVE SMOOTH",
"19 169 OFFCURVE",
"23 141 OFFCURVE",
"33 115 CURVE",
"43 92 OFFCURVE",
"57 72 OFFCURVE",
"73 57 CURVE",
"70 51 OFFCURVE",
"66 46 OFFCURVE",
"63 41 CURVE SMOOTH",
"58 32 OFFCURVE",
"56 25 OFFCURVE",
"56 21 CURVE SMOOTH",
"56 12 OFFCURVE",
"69 0 OFFCURVE",
"89 0 CURVE SMOOTH",
"95 0 OFFCURVE",
"104 6 OFFCURVE",
"115 17 CURVE",
"121 21 LINE",
"143 13 LINE SMOOTH",
"168 4 OFFCURVE",
"195 -1 OFFCURVE",
"226 -1 CURVE SMOOTH"
);
},
{
closed = 1;
nodes = (
"108 101 LINE",
"82 128 OFFCURVE",
"65 167 OFFCURVE",
"65 206 CURVE SMOOTH",
"65 307 OFFCURVE",
"177 356 OFFCURVE",
"262 356 CURVE",
"283 349 LINE",
"121 109 LINE",
"109 99 LINE"
);
},
{
closed = 1;
nodes = (
"195 56 OFFCURVE",
"177 59 OFFCURVE",
"159 65 CURVE",
"203 124 LINE SMOOTH",
"238 171 OFFCURVE",
"271 224 OFFCURVE",
"302 274 CURVE SMOOTH",
"332 324 LINE",
"339 320 OFFCURVE",
"345 316 OFFCURVE",
"350 312 CURVE",
"503 200 OFFCURVE",
"294 47 OFFCURVE",
"215 56 CURVE"
);
}
);
width = 487;
}
);
unicode = 00F8;
},
{
color = 3;
glyphname = oslashacute;
lastChange = "2016-08-30 17:03:42 +0000";
layers = (
{
layerId = UUID0;
paths = (
{
closed = 1;
nodes = (
"344 -1 OFFCURVE",
"459 76 OFFCURVE",
"459 209 CURVE SMOOTH",
"459 250 OFFCURVE",
"440 303 OFFCURVE",
"408 342 CURVE",
"406 345 LINE",
"417 364 LINE",
"424 379 OFFCURVE",
"428 390 OFFCURVE",
"428 395 CURVE SMOOTH",
"428 403 OFFCURVE",
"433 417 OFFCURVE",
"405 420 CURVE",
"386 416 OFFCURVE",
"374 403 OFFCURVE",
"366 388 CURVE",
"365 387 OFFCURVE",
"365 386 OFFCURVE",
"365 385 CURVE",
"354 393 OFFCURVE",
"344 399 OFFCURVE",
"331 405 CURVE",
"316 411 OFFCURVE",
"301 414 OFFCURVE",
"284 414 CURVE SMOOTH",
"156 414 OFFCURVE",
"19 342 OFFCURVE",
"19 199 CURVE SMOOTH",
"19 138 OFFCURVE",
"41 87 OFFCURVE",
"77 53 CURVE SMOOTH",
"86 45 OFFCURVE",
"95 38 OFFCURVE",
"104 31 CURVE",
"102 26 OFFCURVE",
"101 21 OFFCURVE",
"101 19 CURVE SMOOTH",
"101 11 OFFCURVE",
"114 0 OFFCURVE",
"133 0 CURVE SMOOTH",
"138 0 OFFCURVE",
"145 3 OFFCURVE",
"153 10 CURVE",
"176 3 OFFCURVE",
"199 -1 OFFCURVE",
"226 -1 CURVE SMOOTH"
);
},
{
closed = 1;
nodes = (
"129 82 OFFCURVE",
"118 91 OFFCURVE",
"108 101 CURVE SMOOTH",
"82 128 OFFCURVE",
"65 167 OFFCURVE",
"65 206 CURVE SMOOTH",
"65 307 OFFCURVE",
"177 356 OFFCURVE",
"262 356 CURVE",
"290 346 OFFCURVE",
"314 335 OFFCURVE",
"333 323 CURVE",
"165 101 LINE",
"147 83 LINE",
"140 75 LINE"
);
},
{
closed = 1;
nodes = (
"246 104 OFFCURVE",
"302 183 OFFCURVE",
"348 250 CURVE",
"374 291 LINE",
"383 281 OFFCURVE",
"390 271 OFFCURVE",
"395 262 CURVE",
"444 158 OFFCURVE",
"283 48 OFFCURVE",
"215 56 CURVE",
"201 56 LINE"
);
},
{
closed = 1;
nodes = (
"285 534 OFFCURVE",
"365 575 OFFCURVE",
"311 604 CURVE",
"271 571 OFFCURVE",
"174 524 OFFCURVE",
"174 471 CURVE SMOOTH",
"174 452 OFFCURVE",
"179 447 OFFCURVE",
"198 447 CURVE"
);
}
);
width = 487;
}
);
unicode = 01FF;
},
{
color = 3;
glyphname = oe;
lastChange = "2016-08-30 17:03:42 +0000";
layers = (
{
layerId = UUID0;
paths = (
{
closed = 1;
nodes = (
"729 -35 OFFCURVE",
"818 -19 OFFCURVE",
"861 38 CURVE",
"687 26 LINE",
"525 34 OFFCURVE",
"474 89 OFFCURVE",
"455 154 CURVE",
"455 157 OFFCURVE",
"455 159 OFFCURVE",
"454 161 CURVE",
"457 176 OFFCURVE",
"459 192 OFFCURVE",
"459 209 CURVE SMOOTH",
"459 223 OFFCURVE",
"457 237 OFFCURVE",
"452 253 CURVE SMOOTH",
"447 270 LINE",
"448 286 OFFCURVE",
"452 303 OFFCURVE",
"458 319 CURVE SMOOTH",
"479 380 OFFCURVE",
"528 428 OFFCURVE",
"599 434 CURVE SMOOTH",
"654 437 OFFCURVE",
"692 382 OFFCURVE",
"692 331 CURVE SMOOTH",
"692 280 OFFCURVE",
"567 227 OFFCURVE",
"533 227 CURVE",
"469 239 OFFCURVE",
"467 231 OFFCURVE",
"467 219 CURVE SMOOTH",
"467 178 OFFCURVE",
"501 180 OFFCURVE",
"533 180 CURVE SMOOTH",
"615 180 OFFCURVE",
"741 235 OFFCURVE",
"741 329 CURVE",
"744 408 OFFCURVE",
"703 471 OFFCURVE",
"617 481 CURVE",
"546 481 OFFCURVE",
"489 452 OFFCURVE",
"450 405 CURVE SMOOTH",
"434 386 OFFCURVE",
"421 363 OFFCURVE",
"411 338 CURVE",
"408 342 LINE",
"379 385 OFFCURVE",
"332 414 OFFCURVE",
"284 414 CURVE SMOOTH",
"156 414 OFFCURVE",
"19 342 OFFCURVE",
"19 199 CURVE SMOOTH",
"19 75 OFFCURVE",
"106 -1 OFFCURVE",
"226 -1 CURVE SMOOTH",
"284 -1 OFFCURVE",
"343 19 OFFCURVE",
"387 54 CURVE",
"401 66 OFFCURVE",
"414 80 OFFCURVE",
"425 96 CURVE",
"438 73 OFFCURVE",
"455 53 OFFCURVE",
"474 35 CURVE SMOOTH",
"524 -11 OFFCURVE",
"594 -35 OFFCURVE",
"669 -35 CURVE SMOOTH"
);
},
{
closed = 1;
nodes = (
"131 56 OFFCURVE",
"65 126 OFFCURVE",
"65 206 CURVE SMOOTH",
"65 307 OFFCURVE",
"177 356 OFFCURVE",
"262 356 CURVE",
"300 343 OFFCURVE",
"329 328 OFFCURVE",
"350 312 CURVE SMOOTH",
"370 296 OFFCURVE",
"385 280 OFFCURVE",
"394 264 CURVE",
"393 251 OFFCURVE",
"392 239 OFFCURVE",
"392 227 CURVE SMOOTH",
"392 210 OFFCURVE",
"393 194 OFFCURVE",
"395 180 CURVE",
"385 160 LINE",
"349 98 OFFCURVE",
"260 51 OFFCURVE",
"215 56 CURVE"
);
}
);
width = 876;
}
);
unicode = 0153;
},
{
color = 3;
glyphname = p;
lastChange = "2016-08-30 17:38:10 +0000";
layers = (
{
anchors = (
{
name = bottom;
position = "{261, 0}";
},
{
name = top;
position = "{261, 353}";
}
);
layerId = UUID0;
paths = (
{
closed = 1;
nodes = (
"162 -354 OFFCURVE",
"174 -348 OFFCURVE",
"184 -333 CURVE SMOOTH",
"186 -330 OFFCURVE",
"187 -328 OFFCURVE",
"184 -322 CURVE SMOOTH",
"119 -192 OFFCURVE",
"96 -6 OFFCURVE",
"96 180 CURVE SMOOTH",
"96 239 OFFCURVE",
"163 291 OFFCURVE",
"279 291 CURVE SMOOTH",
"357 291 OFFCURVE",
"443 245 OFFCURVE",
"443 159 CURVE SMOOTH",
"443 95 OFFCURVE",
"402 75 OFFCURVE",
"317 75 CURVE SMOOTH",
"231 75 OFFCURVE",
"172 172 OFFCURVE",
"140 136 CURVE",
"130 65 OFFCURVE",
"224 27 OFFCURVE",
"326 27 CURVE SMOOTH",
"411 27 OFFCURVE",
"500 53 OFFCURVE",
"500 156 CURVE SMOOTH",
"500 275 OFFCURVE",
"391 347 OFFCURVE",
"279 347 CURVE SMOOTH",
"151 347 OFFCURVE",
"36 298 OFFCURVE",
"36 153 CURVE SMOOTH",
"36 93 OFFCURVE",
"109 -356 OFFCURVE",
"154 -356 CURVE SMOOTH"
);
}
);
width = 521;
}
);
unicode = 0070;
},
{
color = 3;
glyphname = thorn;
lastChange = "2016-08-30 17:03:42 +0000";
layers = (
{
layerId = UUID0;
paths = (
{
closed = 1;
nodes = (
"92 -184 LINE",
"93 -181 LINE",
"90 -79 OFFCURVE",
"89 -27 OFFCURVE",
"94 84 CURVE",
"151 50 OFFCURVE",
"266 54 OFFCURVE",
"326 54 CURVE SMOOTH",
"411 54 OFFCURVE",
"500 77 OFFCURVE",
"500 183 CURVE SMOOTH",
"496 413 OFFCURVE",
"204 400 OFFCURVE",
"77 312 CURVE",
"104 509 LINE",
"57 497 LINE",
"37 465 OFFCURVE",
"36 232 OFFCURVE",
"36 183 CURVE SMOOTH",
"36 126 OFFCURVE",
"14 -42 OFFCURVE",
"40 -184 CURVE",
"52 -179 OFFCURVE",
"89 -191 OFFCURVE",
"92 -186 CURVE"
);
},
{
closed = 1;
nodes = (
"251 111 OFFCURVE",
"159 132 OFFCURVE",
"96 143 CURVE",
"99 171 OFFCURVE",
"100 197 OFFCURVE",
"104 224 CURVE",
"104 235 LINE SMOOTH",
"104 293 OFFCURVE",
"261 317 OFFCURVE",
"279 317 CURVE SMOOTH",
"357 317 OFFCURVE",
"443 271 OFFCURVE",
"443 186 CURVE SMOOTH",
"443 124 OFFCURVE",
"342 111 OFFCURVE",
"297 111 CURVE SMOOTH"
);
}
);
width = 521;
}
);
unicode = 00FE;
},
{
color = 3;
glyphname = q;
lastChange = "2016-08-30 17:11:23 +0000";
layers = (
{
anchors = (
{
name = bottom;
position = "{206, 0}";
},
{
name = top;
position = "{206, 454}";
}
);
layerId = UUID0;
paths = (
{
closed = 1;
nodes = (
"370 -319 OFFCURVE",
"367 -304 OFFCURVE",
"367 -284 CURVE SMOOTH",
"367 -171 OFFCURVE",
"346 -58 OFFCURVE",
"346 57 CURVE",
"375 394 LINE",
"375 463 OFFCURVE",
"295 498 OFFCURVE",
"242 498 CURVE SMOOTH",
"103 498 OFFCURVE",
"19 366 OFFCURVE",
"19 235 CURVE SMOOTH",
"19 126 OFFCURVE",
"70 19 OFFCURVE",
"197 19 CURVE SMOOTH",
"201 19 OFFCURVE",
"248 26 OFFCURVE",
"253 28 CURVE",
"263 28 LINE SMOOTH",
"334 28 OFFCURVE",
"262 -319 OFFCURVE",
"347 -319 CURVE SMOOTH"
);
},
{
closed = 1;
nodes = (
"112 83 OFFCURVE",
"64 157 OFFCURVE",
"64 232 CURVE SMOOTH",
"64 313 OFFCURVE",
"127 449 OFFCURVE",
"225 449 CURVE SMOOTH",
"266 449 OFFCURVE",
"319 426 OFFCURVE",
"319 382 CURVE",
"283 292 OFFCURVE",
"295 184 OFFCURVE",
"281 104 CURVE",
"255 87 OFFCURVE",
"225 83 OFFCURVE",
"194 83 CURVE SMOOTH"
);
}
);
width = 412;
}
);
unicode = 0071;
},
{
color = 3;
glyphname = r;
lastChange = "2016-08-30 17:11:28 +0000";
layers = (
{
anchors = (
{
name = bottom;
position = "{174, 0}";
},
{
name = top;
position = "{174, 432}";
}
);
layerId = UUID0;
paths = (
{
closed = 1;
nodes = (
"125 0 OFFCURVE",
"142 18 OFFCURVE",
"142 32 CURVE",
"138 138 OFFCURVE",
"58 233 OFFCURVE",
"85 347 CURVE",
"147 447 OFFCURVE",
"272 358 OFFCURVE",
"338 366 CURVE",
"338 407 OFFCURVE",
"320 416 OFFCURVE",
"300 432 CURVE",
"260 445 OFFCURVE",
"242 450 OFFCURVE",
"207 450 CURVE SMOOTH",
"156 450 OFFCURVE",
"104 419 OFFCURVE",
"57 403 CURVE",
"53 406 OFFCURVE",
"40 411 OFFCURVE",
"37 412 CURVE",
"35 412 LINE SMOOTH",
"32 412 OFFCURVE",
"33 413 OFFCURVE",
"32 413 CURVE SMOOTH",
"31 413 OFFCURVE",
"30 412 OFFCURVE",
"30 412 CURVE",
"28 412 LINE",
"13 396 OFFCURVE",
"19 367 OFFCURVE",
"19 350 CURVE",
"23 253 OFFCURVE",
"52 104 OFFCURVE",
"106 0 CURVE"
);
}
);
width = 347;
}
);
unicode = 0072;
},
{
color = 3;
glyphname = s;
lastChange = "2016-08-30 17:11:58 +0000";
layers = (
{
anchors = (
{
name = bottom;
position = "{258, 0}";
},
{
name = top;
position = "{188, 431}";
}
);
layerId = UUID0;
paths = (
{
closed = 1;
nodes = (
"393 0 OFFCURVE",
"486 36 OFFCURVE",
"486 117 CURVE SMOOTH",
"486 231 OFFCURVE",
"375 244 OFFCURVE",
"270 254 CURVE SMOOTH",
"178 263 OFFCURVE",
"91 270 OFFCURVE",
"91 343 CURVE",
"87 380 OFFCURVE",
"151 404 OFFCURVE",
"211 404 CURVE SMOOTH",
"258 404 OFFCURVE",
"302 389 OFFCURVE",
"309 356 CURVE",
"288 319 OFFCURVE",
"300 299 OFFCURVE",
"317 299 CURVE SMOOTH",
"333 299 OFFCURVE",
"352 318 OFFCURVE",
"349 357 CURVE",
"347 423 OFFCURVE",
"277 455 OFFCURVE",
"203 455 CURVE SMOOTH",
"127 455 OFFCURVE",
"47 421 OFFCURVE",
"35 358 CURVE",
"38 242 OFFCURVE",
"136 222 OFFCURVE",
"233 211 CURVE SMOOTH",
"328 200 OFFCURVE",
"420 198 OFFCURVE",
"420 123 CURVE SMOOTH",
"420 45 OFFCURVE",
"305 56 OFFCURVE",
"251 56 CURVE SMOOTH",
"178 56 OFFCURVE",
"178 61 OFFCURVE",
"110 89 CURVE",
"87 100 OFFCURVE",
"70 127 OFFCURVE",
"45 127 CURVE SMOOTH",
"33 127 OFFCURVE",
"27 126 OFFCURVE",
"17 118 CURVE",
"66 -5 OFFCURVE",
"226 0 OFFCURVE",
"325 0 CURVE SMOOTH"
);
}
);
width = 515;
}
);
unicode = 0073;
},
{
color = 3;
glyphname = scedilla;
lastChange = "2016-08-30 17:03:42 +0000";
layers = (
{
layerId = UUID0;
paths = (
{
closed = 1;
nodes = (
"314 -307 OFFCURVE",
"389 -276 OFFCURVE",
"389 -214 CURVE SMOOTH",
"389 -45 OFFCURVE",
"187 -154 OFFCURVE",
"187 -34 CURVE",
"193 -27 OFFCURVE",
"189 -13 OFFCURVE",
"185 0 CURVE",
"181 7 LINE",
"212 4 LINE SMOOTH",
"252 0 OFFCURVE",
"291 0 OFFCURVE",
"325 0 CURVE SMOOTH",
"393 0 OFFCURVE",
"486 36 OFFCURVE",
"486 117 CURVE SMOOTH",
"486 332 OFFCURVE",
"91 188 OFFCURVE",
"91 343 CURVE",
"83 409 OFFCURVE",
"293 432 OFFCURVE",
"309 356 CURVE",
"267 283 OFFCURVE",
"356 278 OFFCURVE",
"349 357 CURVE",
"345 492 OFFCURVE",
"59 483 OFFCURVE",
"35 358 CURVE",
"40 129 OFFCURVE",
"420 275 OFFCURVE",
"420 123 CURVE SMOOTH",
"420 45 OFFCURVE",
"305 56 OFFCURVE",
"251 56 CURVE SMOOTH",
"178 56 OFFCURVE",
"178 61 OFFCURVE",
"110 89 CURVE",
"104 92 OFFCURVE",
"99 95 OFFCURVE",
"94 99 CURVE SMOOTH",
"78 111 LINE",
"69 120 OFFCURVE",
"57 127 OFFCURVE",
"45 127 CURVE SMOOTH",
"33 127 OFFCURVE",
"27 126 OFFCURVE",
"17 118 CURVE",
"33 76 OFFCURVE",
"62 50 OFFCURVE",
"96 33 CURVE",
"112 24 OFFCURVE",
"129 19 OFFCURVE",
"147 14 CURVE",
"145 7 OFFCURVE",
"143 -5 OFFCURVE",
"142 -21 CURVE",
"145 -202 OFFCURVE",
"339 -88 OFFCURVE",
"336 -210 CURVE SMOOTH",
"336 -271 OFFCURVE",
"309 -262 OFFCURVE",
"265 -262 CURVE SMOOTH",
"227 -262 OFFCURVE",
"195 -204 OFFCURVE",
"150 -204 CURVE SMOOTH",
"142 -204 OFFCURVE",
"135 -204 OFFCURVE",
"127 -211 CURVE",
"168 -260 OFFCURVE",
"186 -307 OFFCURVE",
"262 -307 CURVE SMOOTH"
);
}
);
width = 515;
}
);
unicode = 015F;
},
{
color = 3;
glyphname = germandbls;
lastChange = "2016-08-30 17:03:42 +0000";
layers = (
{
layerId = UUID0;
paths = (
{
closed = 1;
nodes = (
"94 600 LINE",
"122 622 OFFCURVE",
"165 629 OFFCURVE",
"201 629 CURVE SMOOTH",
"251 629 OFFCURVE",
"321 596 OFFCURVE",
"321 539 CURVE SMOOTH",
"321 436 OFFCURVE",
"168 461 OFFCURVE",
"168 417 CURVE SMOOTH",
"168 334 OFFCURVE",
"506 344 OFFCURVE",
"506 154 CURVE SMOOTH",
"506 64 OFFCURVE",
"305 81 OFFCURVE",
"225 81 CURVE",
"212 25 OFFCURVE",
"229 24 OFFCURVE",
"250 24 CURVE SMOOTH",
"338 24 OFFCURVE",
"572 33 OFFCURVE",
"572 142 CURVE SMOOTH",
"572 297 OFFCURVE",
"308 408 OFFCURVE",
"308 412 CURVE SMOOTH",
"308 440 OFFCURVE",
"376 484 OFFCURVE",
"376 552 CURVE SMOOTH",
"376 645 OFFCURVE",
"208 693 OFFCURVE",
"137 693 CURVE",
"-112 740 OFFCURVE",
"172 195 OFFCURVE",
"63 -99 CURVE",
"58 -124 OFFCURVE",
"146 -134 OFFCURVE",
"150 -134 CURVE"
);
}
);
width = 591;
}
);
unicode = 00DF;
},
{
color = 3;
glyphname = t;
lastChange = "2016-08-30 17:12:06 +0000";
layers = (
{
anchors = (
{
name = bottom;
position = "{184, 0}";
},
{
name = center;
position = "{165, 227}";
},
{
name = top;
position = "{165, 454}";
},
{
name = topright;
position = "{236, 556}";
}
);
layerId = UUID0;
paths = (
{
closed = 1;
nodes = (
"203 12 OFFCURVE",
"193 310 OFFCURVE",
"193 334 CURVE",
"228 357 OFFCURVE",
"292 327 OFFCURVE",
"323 360 CURVE",
"322 389 OFFCURVE",
"300 400 OFFCURVE",
"276 397 CURVE",
"193 401 LINE",
"186 584 LINE",
"186 599 OFFCURVE",
"168 622 OFFCURVE",
"151 622 CURVE SMOOTH",
"141 622 OFFCURVE",
"123 618 OFFCURVE",
"123 602 CURVE",
"126 509 OFFCURVE",
"134 495 OFFCURVE",
"121 399 CURVE",
"21 392 LINE",
"10 392 OFFCURVE",
"10 378 OFFCURVE",
"10 373 CURVE SMOOTH",
"10 334 OFFCURVE",
"115 335 OFFCURVE",
"133 335 CURVE",
"125 272 OFFCURVE",
"117 -53 OFFCURVE",
"203 0 CURVE"
);
}
);
width = 329;
}
);
unicode = 0074;
},
{
color = 3;
glyphname = u;
lastChange = "2016-09-01 13:59:29 +0000";
layers = (
{
anchors = (
{
name = bottom;
position = "{216, 0}";
},
{
name = ogonek;
position = "{452, 10}";
},
{
name = top;
position = "{216, 454}";
},
{
name = topright;
position = "{425, 423}";
}
);
layerId = UUID0;
paths = (
{
closed = 1;
nodes = (
"474 5 OFFCURVE",
"486 6 OFFCURVE",
"486 25 CURVE SMOOTH",
"486 51 OFFCURVE",
"445 135 OFFCURVE",
"432 188 CURVE",
"421 214 OFFCURVE",
"436 424 OFFCURVE",
"385 424 CURVE SMOOTH",
"372 424 OFFCURVE",
"363 418 OFFCURVE",
"355 403 CURVE",
"355 244 LINE SMOOTH",
"355 198 OFFCURVE",
"271 94 OFFCURVE",
"225 94 CURVE SMOOTH",
"114 94 OFFCURVE",
"65 285 OFFCURVE",
"65 366 CURVE SMOOTH",
"65 374 OFFCURVE",
"71 413 OFFCURVE",
"74 423 CURVE",
"95 504 OFFCURVE",
"-5 490 OFFCURVE",
"17 349 CURVE",
"17 239 OFFCURVE",
"76 36 OFFCURVE",
"216 36 CURVE SMOOTH",
"298 36 OFFCURVE",
"315 107 OFFCURVE",
"375 142 CURVE",
"439 105 OFFCURVE",
"396 5 OFFCURVE",
"457 5 CURVE SMOOTH"
);
}
);
width = 502;
}
);
unicode = 0075;
},
{
color = 3;
glyphname = uogonek;
lastChange = "2016-08-30 17:03:42 +0000";
layers = (
{
layerId = UUID0;
paths = (
{
closed = 1;
nodes = (
"520 -96 LINE",
"400 -104 OFFCURVE",
"345 -63 OFFCURVE",
"385 -18 CURVE SMOOTH",
"395 -7 OFFCURVE",
"410 3 OFFCURVE",
"433 14 CURVE",
"435 13 LINE",
"439 8 OFFCURVE",
"446 5 OFFCURVE",
"457 5 CURVE SMOOTH",
"474 5 OFFCURVE",
"486 6 OFFCURVE",
"486 25 CURVE SMOOTH",
"486 51 OFFCURVE",
"445 135 OFFCURVE",
"432 188 CURVE",
"421 214 OFFCURVE",
"436 424 OFFCURVE",
"385 424 CURVE SMOOTH",
"372 424 OFFCURVE",
"363 418 OFFCURVE",
"355 403 CURVE",
"355 244 LINE SMOOTH",
"355 198 OFFCURVE",
"271 94 OFFCURVE",
"225 94 CURVE SMOOTH",
"114 94 OFFCURVE",
"65 285 OFFCURVE",
"65 366 CURVE SMOOTH",
"65 374 OFFCURVE",
"71 413 OFFCURVE",
"74 423 CURVE",
"95 504 OFFCURVE",
"-5 490 OFFCURVE",
"17 349 CURVE",
"17 239 OFFCURVE",
"76 36 OFFCURVE",
"216 36 CURVE SMOOTH",
"298 36 OFFCURVE",
"315 107 OFFCURVE",
"375 142 CURVE",
"405 125 OFFCURVE",
"415 88 OFFCURVE",
"417 60 CURVE",
"418 54 LINE",
"413 52 OFFCURVE",
"409 50 OFFCURVE",
"405 49 CURVE",
"375 39 OFFCURVE",
"353 27 OFFCURVE",
"335 0 CURVE",
"288 -116 OFFCURVE",
"371 -132 OFFCURVE",
"505 -129 CURVE"
);
}
);
width = 502;
}
);
unicode = 0173;
},
{
color = 3;
glyphname = v;
lastChange = "2016-08-30 17:12:21 +0000";
layers = (
{
anchors = (
{
name = bottom;
position = "{205, 0}";
},
{
name = top;
position = "{185, 366}";
}
);
layerId = UUID0;
paths = (
{
closed = 1;
nodes = (
"260 -5 OFFCURVE",
"328 263 OFFCURVE",
"356 291 CURVE",
"390 330 OFFCURVE",
"375 352 OFFCURVE",
"313 323 CURVE",
"261 230 OFFCURVE",
"238 166 OFFCURVE",
"215 87 CURVE",
"112 167 OFFCURVE",
"129 332 OFFCURVE",
"38 375 CURVE",
"36 375 LINE SMOOTH",
"33 375 OFFCURVE",
"33 376 OFFCURVE",
"33 376 CURVE",
"23 376 OFFCURVE",
"10 354 OFFCURVE",
"10 347 CURVE",
"45 276 OFFCURVE",
"161 -1 OFFCURVE",
"212 -1 CURVE"
);
}
);
width = 390;
}
);
unicode = 0076;
},
{
color = 3;
glyphname = w;
lastChange = "2016-08-30 17:12:25 +0000";
layers = (
{
anchors = (
{
name = bottom;
position = "{328, 0}";
},
{
name = top;
position = "{328, 378}";
}
);
layerId = UUID0;
paths = (
{
closed = 1;
nodes = (
"694 99 OFFCURVE",
"607 340 OFFCURVE",
"538 356 CURVE",
"528 356 OFFCURVE",
"512 356 OFFCURVE",
"517 338 CURVE",
"572 264 OFFCURVE",
"619 74 OFFCURVE",
"473 74 CURVE SMOOTH",
"328 74 OFFCURVE",
"392 318 OFFCURVE",
"338 318 CURVE SMOOTH",
"332 318 OFFCURVE",
"310 308 OFFCURVE",
"310 300 CURVE",
"304 174 LINE",
"304 121 OFFCURVE",
"216 63 OFFCURVE",
"171 63 CURVE SMOOTH",
"98 63 OFFCURVE",
"64 206 OFFCURVE",
"64 256 CURVE SMOOTH",
"64 303 OFFCURVE",
"86 342 OFFCURVE",
"86 385 CURVE SMOOTH",
"86 401 OFFCURVE",
"86 415 OFFCURVE",
"65 423 CURVE",
"-96 241 OFFCURVE",
"126 -186 OFFCURVE",
"338 94 CURVE",
"407 24 OFFCURVE",
"386 7 OFFCURVE",
"554 19 CURVE"
);
}
);
width = 656;
}
);
unicode = 0077;
},
{
color = 3;
glyphname = x;
lastChange = "2016-08-30 17:12:31 +0000";
layers = (
{
anchors = (
{
name = bottom;
position = "{204, 0}";
},
{
name = top;
position = "{191, 362}";
}
);
layerId = UUID0;
paths = (
{
closed = 1;
nodes = (
"394 -52 LINE SMOOTH",
"409 -52 OFFCURVE",
"416 -37 OFFCURVE",
"421 -22 CURVE",
"392 49 OFFCURVE",
"288 143 OFFCURVE",
"233 192 CURVE",
"272 235 OFFCURVE",
"440 344 OFFCURVE",
"440 362 CURVE",
"421 460 OFFCURVE",
"269 252 OFFCURVE",
"191 240 CURVE",
"137 269 OFFCURVE",
"88 358 OFFCURVE",
"22 382 CURVE",
"12 382 OFFCURVE",
"-4 382 OFFCURVE",
"-1 361 CURVE",
"28 306 OFFCURVE",
"104 235 OFFCURVE",
"149 192 CURVE",
"150 188 LINE",
"150 146 OFFCURVE",
"56 88 OFFCURVE",
"56 13 CURVE SMOOTH",
"56 1 OFFCURVE",
"62 -5 OFFCURVE",
"74 -5 CURVE",
"99 3 OFFCURVE",
"134 137 OFFCURVE",
"187 137 CURVE",
"266 93 OFFCURVE",
"314 10 OFFCURVE",
"384 -52 CURVE"
);
}
);
width = 448;
}
);
unicode = 0078;
},
{
color = 3;
glyphname = y;
lastChange = "2016-08-30 17:12:34 +0000";
layers = (
{
anchors = (
{
name = bottom;
position = "{244, 0}";
},
{
name = top;
position = "{202, 416}";
}
);
layerId = UUID0;
paths = (
{
closed = 1;
nodes = (
"619 -476 OFFCURVE",
"398 765 OFFCURVE",
"386 368 CURVE SMOOTH",
"386 352 OFFCURVE",
"394 194 OFFCURVE",
"394 179 CURVE",
"368 127 OFFCURVE",
"298 74 OFFCURVE",
"239 74 CURVE SMOOTH",
"60 74 OFFCURVE",
"65 432 OFFCURVE",
"48 432 CURVE SMOOTH",
"7 432 OFFCURVE",
"19 352 OFFCURVE",
"19 335 CURVE SMOOTH",
"19 211 OFFCURVE",
"99 19 OFFCURVE",
"246 19 CURVE SMOOTH",
"299 19 OFFCURVE",
"356 82 OFFCURVE",
"400 82 CURVE SMOOTH",
"448 82 OFFCURVE",
"417 -132 OFFCURVE",
"413 -172 CURVE",
"401 -253 OFFCURVE",
"395 -423 OFFCURVE",
"282 -427 CURVE",
"197 -424 OFFCURVE",
"104 -315 OFFCURVE",
"65 -271 CURVE",
"44 -271 OFFCURVE",
"45 -286 OFFCURVE",
"45 -305 CURVE SMOOTH",
"45 -396 OFFCURVE",
"216 -488 OFFCURVE",
"294 -488 CURVE"
);
}
);
width = 487;
}
);
unicode = 0079;
},
{
color = 3;
glyphname = z;
lastChange = "2016-08-30 17:37:45 +0000";
layers = (
{
anchors = (
{
name = bottom;
position = "{230, 0}";
},
{
name = top;
position = "{183, 454}";
}
);
layerId = UUID0;
paths = (
{
closed = 1;
nodes = (
"219 255 LINE",
"168 201 OFFCURVE",
"93 106 OFFCURVE",
"93 56 CURVE SMOOTH",
"93 9 OFFCURVE",
"165 0 OFFCURVE",
"200 0 CURVE SMOOTH",
"251 0 OFFCURVE",
"432 21 OFFCURVE",
"432 80 CURVE SMOOTH",
"432 92 OFFCURVE",
"423 104 OFFCURVE",
"412 112 CURVE",
"362 73 OFFCURVE",
"312 49 OFFCURVE",
"225 49 CURVE",
"185 54 OFFCURVE",
"166 62 OFFCURVE",
"163 75 CURVE SMOOTH",
"155 102 OFFCURVE",
"199 172 OFFCURVE",
"265 250 CURVE"
);
},
{
closed = 1;
nodes = (
"65 262 LINE SMOOTH",
"45 262 OFFCURVE",
"36 262 OFFCURVE",
"36 239 CURVE SMOOTH",
"36 221 OFFCURVE",
"40 215 OFFCURVE",
"48 216 CURVE SMOOTH",
"366 239 LINE",
"374 239 OFFCURVE",
"384 248 OFFCURVE",
"385 262 CURVE SMOOTH",
"386 279 OFFCURVE",
"375 283 OFFCURVE",
"320 280 CURVE SMOOTH"
);
},
{
closed = 1;
nodes = (
"272 255 LINE",
"309 309 OFFCURVE",
"338 348 OFFCURVE",
"338 400 CURVE SMOOTH",
"338 476 OFFCURVE",
"284 517 OFFCURVE",
"260 517 CURVE",
"119 537 OFFCURVE",
"19 496 OFFCURVE",
"19 446 CURVE SMOOTH",
"19 423 OFFCURVE",
"24 411 OFFCURVE",
"57 411 CURVE",
"64 461 OFFCURVE",
"153 482 OFFCURVE",
"252 472 CURVE",
"274 451 OFFCURVE",
"282 424 OFFCURVE",
"282 396 CURVE SMOOTH",
"282 343 OFFCURVE",
"268 332 OFFCURVE",
"220 259 CURVE"
);
}
);
width = 460;
}
);
unicode = 007A;
},
{
color = 3;
glyphname = u.end;
lastChange = "2016-08-30 17:03:42 +0000";
layers = (
{
layerId = UUID0;
paths = (
{
closed = 1;
nodes = (
"474 5 OFFCURVE",
"486 6 OFFCURVE",
"486 25 CURVE SMOOTH",
"486 51 OFFCURVE",
"445 135 OFFCURVE",
"432 188 CURVE",
"421 214 OFFCURVE",
"436 424 OFFCURVE",
"385 424 CURVE SMOOTH",
"372 424 OFFCURVE",
"363 418 OFFCURVE",
"355 403 CURVE",
"355 244 LINE SMOOTH",
"355 198 OFFCURVE",
"271 94 OFFCURVE",
"225 94 CURVE SMOOTH",
"114 94 OFFCURVE",
"65 285 OFFCURVE",
"65 366 CURVE SMOOTH",
"65 374 OFFCURVE",
"71 413 OFFCURVE",
"74 423 CURVE",
"95 504 OFFCURVE",
"-5 490 OFFCURVE",
"17 349 CURVE",
"17 239 OFFCURVE",
"76 36 OFFCURVE",
"216 36 CURVE SMOOTH",
"298 36 OFFCURVE",
"315 107 OFFCURVE",
"375 142 CURVE",
"439 105 OFFCURVE",
"396 5 OFFCURVE",
"457 5 CURVE SMOOTH"
);
}
);
width = 502;
}
);
},
{
color = 3;
glyphname = fi;
lastChange = "2016-08-30 17:03:42 +0000";
layers = (
{
layerId = UUID0;
paths = (
{
closed = 1;
nodes = (
"417 -21 OFFCURVE",
"428 2 OFFCURVE",
"428 21 CURVE SMOOTH",
"428 156 OFFCURVE",
"373 266 OFFCURVE",
"381 402 CURVE",
"373 417 OFFCURVE",
"364 423 OFFCURVE",
"352 423 CURVE SMOOTH",
"337 423 OFFCURVE",
"330 413 OFFCURVE",
"333 393 CURVE",
"333 377 LINE SMOOTH",
"333 364 OFFCURVE",
"332 348 OFFCURVE",
"332 332 CURVE SMOOTH",
"332 311 LINE",
"329 311 LINE",
"202 318 OFFCURVE",
"164 325 OFFCURVE",
"160 329 CURVE",
"142 469 LINE",
"142 479 LINE SMOOTH",
"142 562 OFFCURVE",
"200 648 OFFCURVE",
"288 648 CURVE SMOOTH",
"354 648 OFFCURVE",
"382 554 OFFCURVE",
"433 554 CURVE SMOOTH",
"455 554 LINE",
"455 625 OFFCURVE",
"349 704 OFFCURVE",
"277 704 CURVE SMOOTH",
"89 704 OFFCURVE",
"87 436 OFFCURVE",
"95 318 CURVE",
"63 315 OFFCURVE",
"-9 315 OFFCURVE",
"-9 272 CURVE SMOOTH",
"-9 262 OFFCURVE",
"-6 253 OFFCURVE",
"5 253 CURVE SMOOTH",
"10 253 LINE",
"24 255 OFFCURVE",
"91 268 OFFCURVE",
"104 272 CURVE",
"114 262 LINE",
"127 231 OFFCURVE",
"193 96 OFFCURVE",
"208 65 CURVE",
"219 45 OFFCURVE",
"249 -1 OFFCURVE",
"276 -1 CURVE SMOOTH",
"292 -1 OFFCURVE",
"303 3 OFFCURVE",
"303 19 CURVE SMOOTH",
"303 94 OFFCURVE",
"192 162 OFFCURVE",
"192 262 CURVE",
"243 251 OFFCURVE",
"288 252 OFFCURVE",
"316 257 CURVE SMOOTH",
"323 258 OFFCURVE",
"329 260 OFFCURVE",
"334 262 CURVE",
"337 210 LINE SMOOTH",
"345 110 OFFCURVE",
"361 -21 OFFCURVE",
"394 -21 CURVE SMOOTH"
);
},
{
closed = 1;
nodes = (
"338 518 LINE",
"377 522 OFFCURVE",
"325 585 OFFCURVE",
"307 582 CURVE",
"292 582 OFFCURVE",
"282 579 OFFCURVE",
"282 563 CURVE SMOOTH",
"282 522 OFFCURVE",
"295 518 OFFCURVE",
"332 518 CURVE SMOOTH"
);
}
);
width = 552;
}
);
unicode = FB01;
},
{
color = 3;
glyphname = fl;
lastChange = "2016-08-30 17:03:42 +0000";
layers = (
{
layerId = UUID0;
paths = (
{
closed = 1;
nodes = (
"371 -10 OFFCURVE",
"398 -54 OFFCURVE",
"375 508 CURVE",
"375 523 OFFCURVE",
"361 563 OFFCURVE",
"338 563 CURVE SMOOTH",
"327 563 OFFCURVE",
"318 561 OFFCURVE",
"318 550 CURVE",
"319 504 OFFCURVE",
"318 458 OFFCURVE",
"317 412 CURVE SMOOTH",
"314 312 LINE",
"289 313 OFFCURVE",
"268 314 OFFCURVE",
"249 316 CURVE SMOOTH",
"187 322 OFFCURVE",
"163 326 OFFCURVE",
"160 329 CURVE",
"142 469 LINE",
"142 479 LINE SMOOTH",
"142 562 OFFCURVE",
"200 648 OFFCURVE",
"288 648 CURVE SMOOTH",
"354 648 OFFCURVE",
"382 554 OFFCURVE",
"433 554 CURVE SMOOTH",
"455 554 LINE",
"455 625 OFFCURVE",
"349 704 OFFCURVE",
"277 704 CURVE SMOOTH",
"89 704 OFFCURVE",
"87 436 OFFCURVE",
"95 318 CURVE",
"63 315 OFFCURVE",
"-9 315 OFFCURVE",
"-9 272 CURVE SMOOTH",
"-9 262 OFFCURVE",
"-6 253 OFFCURVE",
"5 253 CURVE SMOOTH",
"10 253 LINE",
"24 255 OFFCURVE",
"91 268 OFFCURVE",
"104 272 CURVE",
"114 262 LINE",
"127 231 OFFCURVE",
"193 96 OFFCURVE",
"208 65 CURVE",
"219 45 OFFCURVE",
"249 -1 OFFCURVE",
"276 -1 CURVE SMOOTH",
"292 -1 OFFCURVE",
"303 3 OFFCURVE",
"303 19 CURVE SMOOTH",
"303 94 OFFCURVE",
"192 162 OFFCURVE",
"192 262 CURVE",
"218 257 OFFCURVE",
"241 254 OFFCURVE",
"263 253 CURVE",
"283 253 OFFCURVE",
"301 254 OFFCURVE",
"314 257 CURVE",
"314 217 OFFCURVE",
"315 177 OFFCURVE",
"317 137 CURVE SMOOTH",
"319 91 OFFCURVE",
"323 45 OFFCURVE",
"330 -2 CURVE"
);
}
);
width = 725;
}
);
unicode = FB02;
},
{
color = 3;
glyphname = zero;
lastChange = "2016-08-30 17:03:42 +0000";
layers = (
{
layerId = UUID0;
paths = (
{
closed = 1;
nodes = (
"347 -1 OFFCURVE",
"404 120 OFFCURVE",
"404 217 CURVE SMOOTH",
"404 299 OFFCURVE",
"310 432 OFFCURVE",
"221 432 CURVE SMOOTH",
"124 432 OFFCURVE",
"19 307 OFFCURVE",
"19 218 CURVE SMOOTH",
"19 97 OFFCURVE",
"111 -1 OFFCURVE",
"232 -1 CURVE SMOOTH"
);
},
{
closed = 1;
nodes = (
"126 56 OFFCURVE",
"55 135 OFFCURVE",
"65 225 CURVE SMOOTH",
"73 287 OFFCURVE",
"126 366 OFFCURVE",
"195 366 CURVE SMOOTH",
"292 366 OFFCURVE",
"348 284 OFFCURVE",
"348 198 CURVE SMOOTH",
"348 134 OFFCURVE",
"305 119 OFFCURVE",
"300 85 CURVE",
"265 63 OFFCURVE",
"250 56 OFFCURVE",
"217 56 CURVE SMOOTH"
);
}
);
width = 432;
}
);
unicode = 0030;
},
{
color = 3;
glyphname = one;
lastChange = "2016-08-30 17:03:42 +0000";
layers = (
{
layerId = UUID0;
paths = (
{
closed = 1;
nodes = (
"238 -1 OFFCURVE",
"296 526 OFFCURVE",
"296 548 CURVE SMOOTH",
"295 581 LINE",
"291 590 OFFCURVE",
"284 590 OFFCURVE",
"276 590 CURVE SMOOTH",
"229 590 OFFCURVE",
"245 473 OFFCURVE",
"212 439 CURVE SMOOTH",
"33 252 LINE SMOOTH",
"28 247 OFFCURVE",
"19 230 OFFCURVE",
"14 224 CURVE",
"14 219 LINE SMOOTH",
"14 202 OFFCURVE",
"21 194 OFFCURVE",
"37 194 CURVE SMOOTH",
"74 194 OFFCURVE",
"155 312 OFFCURVE",
"174 326 CURVE",
"196 321 OFFCURVE",
"193 303 OFFCURVE",
"193 288 CURVE SMOOTH",
"193 248 OFFCURVE",
"178 91 OFFCURVE",
"178 52 CURVE",
"179 19 LINE",
"187 3 OFFCURVE",
"194 -1 OFFCURVE",
"207 -1 CURVE SMOOTH"
);
}
);
width = 318;
}
);
unicode = 0031;
},
{
color = 3;
glyphname = two;
lastChange = "2016-08-30 17:03:42 +0000";
layers = (
{
layerId = UUID0;
paths = (
{
closed = 1;
nodes = (
"456 0 OFFCURVE",
"470 16 OFFCURVE",
"470 28 CURVE SMOOTH",
"470 83 OFFCURVE",
"338 52 OFFCURVE",
"338 94 CURVE SMOOTH",
"338 113 OFFCURVE",
"376 166 OFFCURVE",
"395 179 CURVE",
"426 252 OFFCURVE",
"434 279 OFFCURVE",
"434 347 CURVE SMOOTH",
"434 418 OFFCURVE",
"396 543 OFFCURVE",
"306 543 CURVE SMOOTH",
"249 543 OFFCURVE",
"206 501 OFFCURVE",
"206 449 CURVE SMOOTH",
"206 430 OFFCURVE",
"206 408 OFFCURVE",
"226 394 CURVE",
"256 406 OFFCURVE",
"246 497 OFFCURVE",
"301 497 CURVE SMOOTH",
"359 497 OFFCURVE",
"376 379 OFFCURVE",
"376 342 CURVE SMOOTH",
"376 287 OFFCURVE",
"334 104 OFFCURVE",
"250 104 CURVE SMOOTH",
"188 104 OFFCURVE",
"137 150 OFFCURVE",
"75 150 CURVE SMOOTH",
"51 150 OFFCURVE",
"2 144 OFFCURVE",
"10 104 CURVE",
"18 41 OFFCURVE",
"86 19 OFFCURVE",
"137 19 CURVE SMOOTH",
"185 19 OFFCURVE",
"227 29 OFFCURVE",
"273 29 CURVE SMOOTH",
"330 29 OFFCURVE",
"384 0 OFFCURVE",
"440 0 CURVE SMOOTH"
);
}
);
width = 497;
}
);
unicode = 0032;
},
{
color = 3;
glyphname = three;
lastChange = "2016-08-30 17:03:42 +0000";
layers = (
{
layerId = UUID0;
paths = (
{
closed = 1;
nodes = (
"326 -1 OFFCURVE",
"404 33 OFFCURVE",
"404 112 CURVE SMOOTH",
"404 201 OFFCURVE",
"334 271 OFFCURVE",
"253 300 CURVE",
"252 305 LINE",
"252 345 OFFCURVE",
"338 355 OFFCURVE",
"338 411 CURVE SMOOTH",
"338 466 OFFCURVE",
"296 525 OFFCURVE",
"235 525 CURVE SMOOTH",
"94 525 LINE SMOOTH",
"71 525 OFFCURVE",
"36 509 OFFCURVE",
"36 482 CURVE SMOOTH",
"36 452 OFFCURVE",
"55 438 OFFCURVE",
"85 438 CURVE",
"85 460 LINE SMOOTH",
"85 476 OFFCURVE",
"169 479 OFFCURVE",
"195 479 CURVE SMOOTH",
"221 479 OFFCURVE",
"291 472 OFFCURVE",
"291 432 CURVE SMOOTH",
"291 358 OFFCURVE",
"126 337 OFFCURVE",
"85 329 CURVE",
"65 310 LINE",
"65 308 LINE",
"64 307 OFFCURVE",
"64 306 OFFCURVE",
"64 305 CURVE SMOOTH",
"64 252 OFFCURVE",
"348 281 OFFCURVE",
"348 116 CURVE SMOOTH",
"348 66 OFFCURVE",
"297 56 OFFCURVE",
"250 56 CURVE SMOOTH",
"127 56 OFFCURVE",
"70 169 OFFCURVE",
"54 169 CURVE SMOOTH",
"30 169 OFFCURVE",
"19 153 OFFCURVE",
"19 130 CURVE SMOOTH",
"19 122 LINE",
"152 2 OFFCURVE",
"193 4 OFFCURVE",
"259 -1 CURVE"
);
}
);
width = 432;
}
);
unicode = 0033;
},
{
color = 3;
glyphname = four;
lastChange = "2016-08-30 17:03:42 +0000";
layers = (
{
layerId = UUID0;
paths = (
{
closed = 1;
nodes = (
"368 -2 OFFCURVE",
"385 19 OFFCURVE",
"385 45 CURVE SMOOTH",
"385 104 OFFCURVE",
"364 168 OFFCURVE",
"364 230 CURVE SMOOTH",
"364 284 OFFCURVE",
"394 368 OFFCURVE",
"394 420 CURVE SMOOTH",
"394 439 OFFCURVE",
"387 449 OFFCURVE",
"355 449 CURVE SMOOTH",
"352 449 OFFCURVE",
"288 232 OFFCURVE",
"157 232 CURVE SMOOTH",
"92 232 OFFCURVE",
"64 314 OFFCURVE",
"64 370 CURVE SMOOTH",
"64 446 OFFCURVE",
"123 518 OFFCURVE",
"123 586 CURVE",
"126 608 OFFCURVE",
"70 608 OFFCURVE",
"65 581 CURVE",
"34 495 OFFCURVE",
"19 450 OFFCURVE",
"19 364 CURVE SMOOTH",
"19 289 OFFCURVE",
"53 159 OFFCURVE",
"154 159 CURVE",
"204 151 OFFCURVE",
"259 195 OFFCURVE",
"296 217 CURVE",
"331 217 OFFCURVE",
"292 -2 OFFCURVE",
"341 -2 CURVE SMOOTH"
);
}
);
width = 412;
}
);
unicode = 0034;
},
{
color = 3;
glyphname = five;
lastChange = "2016-08-30 17:03:42 +0000";
layers = (
{
layerId = UUID0;
paths = (
{
closed = 1;
nodes = (
"381 5 OFFCURVE",
"501 76 OFFCURVE",
"488 174 CURVE",
"488 338 OFFCURVE",
"350 408 OFFCURVE",
"206 432 CURVE",
"206 440 LINE SMOOTH",
"206 479 OFFCURVE",
"254 547 OFFCURVE",
"262 591 CURVE",
"291 600 LINE",
"294 600 OFFCURVE",
"344 602 OFFCURVE",
"360 602 CURVE SMOOTH",
"384 602 OFFCURVE",
"453 600 OFFCURVE",
"460 600 CURVE SMOOTH",
"466 600 OFFCURVE",
"509 591 OFFCURVE",
"517 591 CURVE SMOOTH",
"523 591 OFFCURVE",
"544 604 OFFCURVE",
"544 614 CURVE",
"543 619 LINE",
"505 668 OFFCURVE",
"428 657 OFFCURVE",
"375 657 CURVE SMOOTH",
"322 657 OFFCURVE",
"184 667 OFFCURVE",
"184 591 CURVE",
"206 591 LINE",
"206 581 LINE SMOOTH",
"206 575 OFFCURVE",
"197 556 OFFCURVE",
"197 554 CURVE",
"187 532 OFFCURVE",
"135 432 OFFCURVE",
"122 412 CURVE",
"122 411 OFFCURVE",
"121 406 OFFCURVE",
"121 403 CURVE SMOOTH",
"121 393 OFFCURVE",
"123 386 OFFCURVE",
"131 375 CURVE",
"243 355 OFFCURVE",
"434 358 OFFCURVE",
"434 193 CURVE SMOOTH",
"434 94 OFFCURVE",
"334 64 OFFCURVE",
"248 64 CURVE SMOOTH",
"231 64 OFFCURVE",
"61 82 OFFCURVE",
"61 122 CURVE",
"68 249 OFFCURVE",
"14 213 OFFCURVE",
"19 142 CURVE",
"19 8 OFFCURVE",
"204 0 OFFCURVE",
"296 0 CURVE"
);
}
);
width = 572;
}
);
unicode = 0035;
},
{
color = 3;
glyphname = six;
lastChange = "2016-08-30 17:03:42 +0000";
layers = (
{
layerId = UUID0;
paths = (
{
closed = 1;
nodes = (
"292 -1 OFFCURVE",
"413 43 OFFCURVE",
"413 164 CURVE SMOOTH",
"413 268 OFFCURVE",
"337 338 OFFCURVE",
"235 338 CURVE SMOOTH",
"184 338 OFFCURVE",
"157 339 OFFCURVE",
"104 318 CURVE",
"104 323 LINE SMOOTH",
"104 403 OFFCURVE",
"256 543 OFFCURVE",
"333 543 CURVE SMOOTH",
"338 543 LINE",
"347 541 OFFCURVE",
"384 514 OFFCURVE",
"389 514 CURVE SMOOTH",
"406 514 OFFCURVE",
"413 539 OFFCURVE",
"413 554 CURVE SMOOTH",
"413 587 OFFCURVE",
"362 603 OFFCURVE",
"338 600 CURVE SMOOTH",
"173 584 OFFCURVE",
"19 361 OFFCURVE",
"19 207 CURVE SMOOTH",
"19 104 OFFCURVE",
"65 -1 OFFCURVE",
"187 -1 CURVE SMOOTH"
);
},
{
closed = 1;
nodes = (
"130 69 OFFCURVE",
"82 106 OFFCURVE",
"65 188 CURVE",
"58 258 OFFCURVE",
"149 292 OFFCURVE",
"243 292 CURVE SMOOTH",
"289 292 OFFCURVE",
"356 224 OFFCURVE",
"356 176 CURVE SMOOTH",
"356 87 OFFCURVE",
"273 64 OFFCURVE",
"201 64 CURVE"
);
}
);
width = 440;
}
);
unicode = 0036;
},
{
color = 3;
glyphname = seven;
lastChange = "2016-08-30 17:03:42 +0000";
layers = (
{
layerId = UUID0;
paths = (
{
closed = 1;
nodes = (
"218 -1 OFFCURVE",
"230 3 OFFCURVE",
"235 19 CURVE",
"281 235 LINE",
"281 235 OFFCURVE",
"291 236 OFFCURVE",
"296 236 CURVE SMOOTH",
"324 236 OFFCURVE",
"348 215 OFFCURVE",
"376 215 CURVE SMOOTH",
"392 215 OFFCURVE",
"395 231 OFFCURVE",
"395 244 CURVE SMOOTH",
"395 296 OFFCURVE",
"322 288 OFFCURVE",
"291 288 CURVE",
"291 344 OFFCURVE",
"301 397 OFFCURVE",
"301 455 CURVE SMOOTH",
"300 525 LINE",
"220 518 OFFCURVE",
"85 529 OFFCURVE",
"36 534 CURVE",
"-14 453 OFFCURVE",
"171 482 OFFCURVE",
"244 479 CURVE",
"247 408 OFFCURVE",
"249 371 OFFCURVE",
"235 318 CURVE",
"231 310 OFFCURVE",
"226 290 OFFCURVE",
"225 291 CURVE",
"177 276 OFFCURVE",
"38 313 OFFCURVE",
"82 237 CURVE",
"121 237 OFFCURVE",
"171 231 OFFCURVE",
"214 231 CURVE",
"214 158 OFFCURVE",
"197 100 OFFCURVE",
"179 28 CURVE",
"184 14 OFFCURVE",
"190 -1 OFFCURVE",
"206 -1 CURVE SMOOTH"
);
}
);
width = 412;
}
);
unicode = 0037;
},
{
color = 3;
glyphname = eight;
lastChange = "2016-08-30 17:03:42 +0000";
layers = (
{
layerId = UUID0;
paths = (
{
closed = 1;
nodes = (
"306 -1 OFFCURVE",
"348 42 OFFCURVE",
"348 112 CURVE SMOOTH",
"348 222 OFFCURVE",
"206 269 OFFCURVE",
"206 314 CURVE SMOOTH",
"206 370 OFFCURVE",
"291 411 OFFCURVE",
"291 479 CURVE SMOOTH",
"291 537 OFFCURVE",
"217 572 OFFCURVE",
"168 572 CURVE",
"106 584 OFFCURVE",
"-4 468 OFFCURVE",
"19 423 CURVE",
"14 371 OFFCURVE",
"78 341 OFFCURVE",
"112 310 CURVE",
"113 305 LINE",
"113 304 OFFCURVE",
"112 303 OFFCURVE",
"112 303 CURVE",
"112 300 LINE",
"85 269 OFFCURVE",
"61 243 OFFCURVE",
"48 216 CURVE",
"15 100 OFFCURVE",
"132 -1 OFFCURVE",
"235 -1 CURVE SMOOTH"
);
},
{
closed = 1;
nodes = (
"160 45 OFFCURVE",
"102 104 OFFCURVE",
"102 173 CURVE SMOOTH",
"102 196 OFFCURVE",
"132 273 OFFCURVE",
"159 273 CURVE SMOOTH",
"162 273 OFFCURVE",
"168 272 OFFCURVE",
"168 272 CURVE",
"230 238 OFFCURVE",
"300 176 OFFCURVE",
"300 98 CURVE SMOOTH",
"300 65 OFFCURVE",
"257 45 OFFCURVE",
"229 45 CURVE SMOOTH"
);
},
{
closed = 1;
nodes = (
"131 357 OFFCURVE",
"58 394 OFFCURVE",
"65 432 CURVE",
"81 464 OFFCURVE",
"116 512 OFFCURVE",
"168 512 CURVE",
"244 509 OFFCURVE",
"243 450 OFFCURVE",
"217 427 CURVE",
"217 407 OFFCURVE",
"160 356 OFFCURVE",
"150 347 CURVE"
);
}
);
width = 375;
}
);
unicode = 0038;
},
{
color = 3;
glyphname = nine;
lastChange = "2016-08-30 17:03:42 +0000";
layers = (
{
layerId = UUID0;
paths = (
{
closed = 1;
nodes = (
"250 7 OFFCURVE",
"265 10 OFFCURVE",
"265 25 CURVE",
"254 55 OFFCURVE",
"256 308 OFFCURVE",
"291 469 CURVE",
"291 543 OFFCURVE",
"225 601 OFFCURVE",
"152 601 CURVE SMOOTH",
"63 601 OFFCURVE",
"10 527 OFFCURVE",
"10 440 CURVE SMOOTH",
"10 312 OFFCURVE",
"104 307 OFFCURVE",
"197 291 CURVE SMOOTH",
"227 286 OFFCURVE",
"185 6 OFFCURVE",
"227 7 CURVE SMOOTH"
);
},
{
closed = 1;
nodes = (
"95 346 OFFCURVE",
"65 400 OFFCURVE",
"65 448 CURVE SMOOTH",
"65 511 OFFCURVE",
"97 555 OFFCURVE",
"160 555 CURVE SMOOTH",
"182 555 OFFCURVE",
"227 531 OFFCURVE",
"227 506 CURVE SMOOTH",
"227 494 OFFCURVE",
"188 386 OFFCURVE",
"188 355 CURVE",
"177 345 OFFCURVE",
"162 346 OFFCURVE",
"149 346 CURVE SMOOTH"
);
}
);
width = 301;
}
);
unicode = 0039;
},
{
color = 3;
glyphname = fraction;
lastChange = "2016-08-30 17:03:42 +0000";
layers = (
{
layerId = UUID0;
paths = (
{
closed = 1;
nodes = (
"82 0 OFFCURVE",
"291 625 OFFCURVE",
"291 705 CURVE SMOOTH",
"291 721 OFFCURVE",
"296 745 OFFCURVE",
"272 750 CURVE",
"238 737 OFFCURVE",
"233 656 OFFCURVE",
"226 619 CURVE",
"65 179 LINE",
"50 150 OFFCURVE",
"10 67 OFFCURVE",
"10 33 CURVE SMOOTH",
"10 19 OFFCURVE",
"21 0 OFFCURVE",
"38 0 CURVE SMOOTH"
);
}
);
width = 310;
}
);
unicode = 2044;
},
{
color = 3;
glyphname = asterisk;
lastChange = "2016-08-30 17:03:42 +0000";
layers = (
{
layerId = UUID0;
paths = (
{
closed = 1;
nodes = (
"271 239 OFFCURVE",
"282 271 OFFCURVE",
"281 300 CURVE",
"286 295 OFFCURVE",
"313 275 OFFCURVE",
"318 272 CURVE",
"323 272 LINE SMOOTH",
"339 272 OFFCURVE",
"354 284 OFFCURVE",
"355 300 CURVE",
"343 337 OFFCURVE",
"300 374 OFFCURVE",
"300 413 CURVE SMOOTH",
"300 447 OFFCURVE",
"355 433 OFFCURVE",
"355 469 CURVE SMOOTH",
"355 493 OFFCURVE",
"292 490 OFFCURVE",
"272 487 CURVE",
"291 511 OFFCURVE",
"385 555 OFFCURVE",
"385 581 CURVE SMOOTH",
"385 593 OFFCURVE",
"383 599 OFFCURVE",
"375 610 CURVE",
"318 603 OFFCURVE",
"262 540 OFFCURVE",
"225 517 CURVE",
"197 563 LINE",
"188 564 LINE",
"166 564 OFFCURVE",
"165 530 OFFCURVE",
"168 517 CURVE",
"74 572 LINE",
"71 572 LINE",
"70 572 LINE SMOOTH",
"69 572 OFFCURVE",
"68 572 OFFCURVE",
"68 572 CURVE",
"65 572 LINE",
"62 568 OFFCURVE",
"48 555 OFFCURVE",
"48 554 CURVE",
"38 521 OFFCURVE",
"131 488 OFFCURVE",
"131 440 CURVE SMOOTH",
"131 439 OFFCURVE",
"125 433 OFFCURVE",
"122 432 CURVE",
"121 431 OFFCURVE",
"121 431 OFFCURVE",
"120 431 CURVE SMOOTH",
"117 431 LINE SMOOTH",
"102 431 OFFCURVE",
"110 450 OFFCURVE",
"90 450 CURVE SMOOTH",
"68 450 OFFCURVE",
"26 436 OFFCURVE",
"19 412 CURVE",
"13 394 OFFCURVE",
"30 394 OFFCURVE",
"41 394 CURVE SMOOTH",
"63 394 OFFCURVE",
"64 399 OFFCURVE",
"89 399 CURVE",
"89 365 OFFCURVE",
"64 339 OFFCURVE",
"64 305 CURVE SMOOTH",
"64 300 OFFCURVE",
"63 281 OFFCURVE",
"74 281 CURVE SMOOTH",
"80 281 OFFCURVE",
"99 286 OFFCURVE",
"104 291 CURVE",
"111 305 OFFCURVE",
"151 362 OFFCURVE",
"159 375 CURVE",
"165 381 OFFCURVE",
"176 394 OFFCURVE",
"179 394 CURVE",
"219 405 OFFCURVE",
"224 249 OFFCURVE",
"244 225 CURVE"
);
}
);
width = 412;
}
);
unicode = 002A;
},
{
color = 3;
glyphname = backslash;
lastChange = "2016-08-30 17:03:42 +0000";
layers = (
{
layerId = UUID0;
paths = (
{
closed = 1;
nodes = (
"396 -5 OFFCURVE",
"414 30 OFFCURVE",
"414 45 CURVE SMOOTH",
"414 135 OFFCURVE",
"34 544 OFFCURVE",
"28 544 CURVE SMOOTH",
"21 544 OFFCURVE",
"10 540 OFFCURVE",
"10 529 CURVE SMOOTH",
"10 489 OFFCURVE",
"72 409 OFFCURVE",
"85 394 CURVE",
"120 347 OFFCURVE",
"289 129 OFFCURVE",
"329 85 CURVE",
"351 56 OFFCURVE",
"328 11 OFFCURVE",
"376 0 CURVE SMOOTH"
);
}
);
width = 432;
}
);
unicode = 005C;
},
{
color = 3;
glyphname = periodcentered;
lastChange = "2016-08-30 17:03:42 +0000";
layers = (
{
layerId = UUID0;
paths = (
{
closed = 1;
nodes = (
"136 176 OFFCURVE",
"171 208 OFFCURVE",
"171 227 CURVE SMOOTH",
"171 253 OFFCURVE",
"148 291 OFFCURVE",
"99 291 CURVE SMOOTH",
"84 291 OFFCURVE",
"48 245 OFFCURVE",
"48 232 CURVE SMOOTH",
"48 214 OFFCURVE",
"69 176 OFFCURVE",
"104 176 CURVE SMOOTH"
);
}
);
width = 213;
}
);
unicode = 00B7;
},
{
color = 3;
glyphname = bullet;
lastChange = "2016-08-30 17:03:42 +0000";
layers = (
{
layerId = UUID0;
paths = (
{
closed = 1;
nodes = (
"228 163 OFFCURVE",
"279 216 OFFCURVE",
"279 247 CURVE SMOOTH",
"279 291 OFFCURVE",
"246 354 OFFCURVE",
"177 354 CURVE SMOOTH",
"156 354 OFFCURVE",
"104 280 OFFCURVE",
"104 258 CURVE SMOOTH",
"104 229 OFFCURVE",
"134 163 OFFCURVE",
"185 163 CURVE SMOOTH"
);
}
);
width = 342;
}
);
unicode = 2022;
},
{
color = 3;
glyphname = colon;
lastChange = "2016-08-30 17:03:42 +0000";
layers = (
{
layerId = UUID0;
paths = (
{
closed = 1;
nodes = (
"57 262 LINE",
"62 267 OFFCURVE",
"74 278 OFFCURVE",
"74 281 CURVE",
"82 304 OFFCURVE",
"55 338 OFFCURVE",
"33 338 CURVE SMOOTH",
"19 338 OFFCURVE",
"19 325 OFFCURVE",
"19 314 CURVE SMOOTH",
"19 297 OFFCURVE",
"30 262 OFFCURVE",
"52 262 CURVE SMOOTH"
);
},
{
closed = 1;
nodes = (
"61 74 OFFCURVE",
"66 79 OFFCURVE",
"66 98 CURVE SMOOTH",
"66 113 OFFCURVE",
"63 123 OFFCURVE",
"48 123 CURVE SMOOTH",
"33 123 OFFCURVE",
"19 113 OFFCURVE",
"19 98 CURVE SMOOTH",
"19 82 OFFCURVE",
"26 74 OFFCURVE",
"41 74 CURVE SMOOTH"
);
}
);
width = 85;
}
);
unicode = 003A;
},
{
color = 3;
glyphname = comma;
lastChange = "2016-08-30 17:03:42 +0000";
layers = (
{
layerId = UUID0;
paths = (
{
closed = 1;
nodes = (
"70 -189 OFFCURVE",
"95 -4 OFFCURVE",
"95 28 CURVE SMOOTH",
"95 60 OFFCURVE",
"104 142 OFFCURVE",
"54 142 CURVE SMOOTH",
"25 142 OFFCURVE",
"19 119 OFFCURVE",
"19 93 CURVE SMOOTH",
"19 82 OFFCURVE",
"20 74 OFFCURVE",
"38 74 CURVE",
"39 37 LINE",
"39 -27 OFFCURVE",
"9 -93 OFFCURVE",
"9 -154 CURVE SMOOTH",
"9 -169 OFFCURVE",
"10 -189 OFFCURVE",
"28 -189 CURVE SMOOTH"
);
}
);
width = 131;
}
);
unicode = 002C;
},
{
color = 3;
glyphname = ellipsis;
lastChange = "2016-08-30 17:03:42 +0000";
layers = (
{
layerId = UUID0;
paths = (
{
closed = 1;
nodes = (
"138 0 OFFCURVE",
"177 53 OFFCURVE",
"177 83 CURVE SMOOTH",
"177 127 OFFCURVE",
"151 188 OFFCURVE",
"100 188 CURVE SMOOTH",
"82 188 OFFCURVE",
"44 114 OFFCURVE",
"44 94 CURVE SMOOTH",
"44 64 OFFCURVE",
"66 0 OFFCURVE",
"104 0 CURVE SMOOTH"
);
},
{
closed = 1;
nodes = (
"343 0 OFFCURVE",
"380 53 OFFCURVE",
"380 83 CURVE SMOOTH",
"380 127 OFFCURVE",
"356 188 OFFCURVE",
"304 188 CURVE SMOOTH",
"286 188 OFFCURVE",
"248 114 OFFCURVE",
"248 94 CURVE SMOOTH",
"248 64 OFFCURVE",
"271 0 OFFCURVE",
"309 0 CURVE SMOOTH"
);
},
{
closed = 1;
nodes = (
"547 0 OFFCURVE",
"584 53 OFFCURVE",
"584 83 CURVE SMOOTH",
"584 127 OFFCURVE",
"561 188 OFFCURVE",
"508 188 CURVE SMOOTH",
"488 188 OFFCURVE",
"452 114 OFFCURVE",
"452 94 CURVE SMOOTH",
"452 64 OFFCURVE",
"474 0 OFFCURVE",
"513 0 CURVE SMOOTH"
);
}
);
width = 612;
}
);
unicode = 2026;
},
{
color = 3;
glyphname = exclam;
lastChange = "2016-08-30 17:03:42 +0000";
layers = (
{
layerId = UUID0;
paths = (
{
closed = 1;
nodes = (
"102 256 OFFCURVE",
"95 296 OFFCURVE",
"95 316 CURVE SMOOTH",
"94 361 LINE",
"90 429 OFFCURVE",
"87 823 OFFCURVE",
"85 824 CURVE",
"37 815 LINE",
"45 714 OFFCURVE",
"30 369 OFFCURVE",
"46 268 CURVE",
"50 253 OFFCURVE",
"63 256 OFFCURVE",
"71 256 CURVE SMOOTH"
);
},
{
closed = 1;
nodes = (
"85 -1 OFFCURVE",
"132 18 OFFCURVE",
"132 48 CURVE SMOOTH",
"132 69 OFFCURVE",
"117 104 OFFCURVE",
"89 104 CURVE SMOOTH",
"50 104 OFFCURVE",
"16 87 OFFCURVE",
"16 48 CURVE SMOOTH",
"16 17 OFFCURVE",
"28 -1 OFFCURVE",
"61 -1 CURVE SMOOTH"
);
}
);
width = 150;
}
);
unicode = 0021;
},
{
color = 3;
glyphname = numbersign;
lastChange = "2016-08-30 17:03:42 +0000";
layers = (
{
layerId = UUID0;
paths = (
{
closed = 1;
nodes = (
"495 -1 LINE SMOOTH",
"496 -1 OFFCURVE",
"496 -1 OFFCURVE",
"497 0 CURVE",
"505 5 OFFCURVE",
"531 34 OFFCURVE",
"534 37 CURVE",
"534 40 LINE SMOOTH",
"534 43 OFFCURVE",
"535 44 OFFCURVE",
"535 45 CURVE SMOOTH",
"535 76 OFFCURVE",
"524 104 OFFCURVE",
"524 136 CURVE SMOOTH",
"525 168 LINE",
"532 168 OFFCURVE",
"604 188 OFFCURVE",
"624 188 CURVE SMOOTH",
"628 188 LINE SMOOTH",
"637 188 OFFCURVE",
"704 179 OFFCURVE",
"713 179 CURVE SMOOTH",
"723 179 LINE SMOOTH",
"735 179 OFFCURVE",
"742 185 OFFCURVE",
"742 195 CURVE SMOOTH",
"742 253 OFFCURVE",
"691 244 OFFCURVE",
"648 244 CURVE SMOOTH",
"601 244 OFFCURVE",
"579 243 OFFCURVE",
"525 235 CURVE",
"517 244 LINE",
"517 310 LINE",
"549 313 LINE SMOOTH",
"565 315 OFFCURVE",
"586 317 OFFCURVE",
"601 318 CURVE",
"610 318 LINE",
"617 316 OFFCURVE",
"654 310 OFFCURVE",
"657 310 CURVE",
"657 308 OFFCURVE",
"674 300 OFFCURVE",
"676 300 CURVE SMOOTH",
"685 300 OFFCURVE",
"704 313 OFFCURVE",
"704 323 CURVE SMOOTH",
"704 326 LINE",
"704 329 LINE",
"693 340 OFFCURVE",
"667 366 OFFCURVE",
"666 366 CURVE SMOOTH",
"507 366 LINE SMOOTH",
"496 366 OFFCURVE",
"470 468 OFFCURVE",
"470 487 CURVE",
"460 488 LINE",
"440 488 OFFCURVE",
"432 468 OFFCURVE",
"432 449 CURVE SMOOTH",
"432 426 OFFCURVE",
"451 399 OFFCURVE",
"451 374 CURVE SMOOTH",
"451 358 OFFCURVE",
"422 346 OFFCURVE",
"409 346 CURVE SMOOTH",
"389 346 OFFCURVE",
"379 348 OFFCURVE",
"356 355 CURVE",
"346 395 OFFCURVE",
"336 451 OFFCURVE",
"336 492 CURVE",
"324 492 OFFCURVE",
"301 479 OFFCURVE",
"301 469 CURVE SMOOTH",
"301 338 LINE SMOOTH",
"301 316 OFFCURVE",
"9 310 OFFCURVE",
"9 235 CURVE SMOOTH",
"9 219 OFFCURVE",
"18 215 OFFCURVE",
"33 215 CURVE SMOOTH",
"99 215 OFFCURVE",
"188 273 OFFCURVE",
"273 273 CURVE",
"301 272 LINE",
"310 262 LINE",
"310 197 LINE SMOOTH",
"310 195 OFFCURVE",
"283 190 OFFCURVE",
"272 188 CURVE SMOOTH",
"209 177 OFFCURVE",
"148 165 OFFCURVE",
"85 150 CURVE",
"84 142 LINE",
"84 127 OFFCURVE",
"94 112 OFFCURVE",
"106 112 CURVE SMOOTH",
"113 112 LINE",
"132 116 OFFCURVE",
"283 137 OFFCURVE",
"301 142 CURVE",
"311 142 LINE SMOOTH",
"348 142 OFFCURVE",
"311 48 OFFCURVE",
"356 48 CURVE SMOOTH",
"359 48 OFFCURVE",
"372 53 OFFCURVE",
"376 57 CURVE SMOOTH",
"377 58 OFFCURVE",
"385 64 OFFCURVE",
"385 65 CURVE SMOOTH",
"385 150 LINE",
"450 168 LINE",
"460 159 LINE",
"471 148 OFFCURVE",
"472 -1 OFFCURVE",
"493 -1 CURVE SMOOTH"
);
},
{
closed = 1;
nodes = (
"371 214 OFFCURVE",
"366 255 OFFCURVE",
"366 262 CURVE SMOOTH",
"366 265 OFFCURVE",
"372 277 OFFCURVE",
"376 281 CURVE",
"377 284 OFFCURVE",
"384 291 OFFCURVE",
"385 291 CURVE SMOOTH",
"450 291 LINE SMOOTH",
"453 291 OFFCURVE",
"459 277 OFFCURVE",
"460 272 CURVE",
"460 271 OFFCURVE",
"462 251 OFFCURVE",
"462 244 CURVE SMOOTH",
"462 240 OFFCURVE",
"461 236 OFFCURVE",
"461 232 CURVE",
"460 229 OFFCURVE",
"460 228 OFFCURVE",
"460 225 CURVE",
"376 206 LINE"
);
}
);
width = 769;
}
);
unicode = 0023;
},
{
color = 3;
glyphname = period;
lastChange = "2016-08-30 17:03:42 +0000";
layers = (
{
layerId = UUID0;
paths = (
{
closed = 1;
nodes = (
"138 0 OFFCURVE",
"177 53 OFFCURVE",
"177 83 CURVE SMOOTH",
"177 127 OFFCURVE",
"151 188 OFFCURVE",
"100 188 CURVE SMOOTH",
"82 188 OFFCURVE",
"44 114 OFFCURVE",
"44 94 CURVE SMOOTH",
"44 64 OFFCURVE",
"66 0 OFFCURVE",
"104 0 CURVE SMOOTH"
);
}
);
width = 204;
}
);
unicode = 002E;
},
{
color = 3;
glyphname = question;
lastChange = "2016-08-30 17:03:42 +0000";
layers = (
{
layerId = UUID0;
paths = (
{
closed = 1;
nodes = (
"204 309 OFFCURVE",
"245 304 OFFCURVE",
"245 326 CURVE SMOOTH",
"245 338 OFFCURVE",
"239 361 OFFCURVE",
"226 361 CURVE",
"145 369 OFFCURVE",
"134 384 OFFCURVE",
"132 394 CURVE",
"179 472 OFFCURVE",
"254 590 OFFCURVE",
"254 689 CURVE SMOOTH",
"254 775 OFFCURVE",
"201 862 OFFCURVE",
"104 862 CURVE SMOOTH",
"68 862 OFFCURVE",
"9 845 OFFCURVE",
"9 804 CURVE SMOOTH",
"9 800 OFFCURVE",
"3 771 OFFCURVE",
"20 769 CURVE",
"34 792 OFFCURVE",
"68 807 OFFCURVE",
"93 807 CURVE SMOOTH",
"158 807 OFFCURVE",
"197 773 OFFCURVE",
"197 706 CURVE SMOOTH",
"197 581 OFFCURVE",
"75 492 OFFCURVE",
"75 375 CURVE SMOOTH",
"75 318 OFFCURVE",
"149 309 OFFCURVE",
"188 309 CURVE SMOOTH"
);
},
{
closed = 1;
nodes = (
"235 0 OFFCURVE",
"245 18 OFFCURVE",
"245 33 CURVE SMOOTH",
"245 52 OFFCURVE",
"238 75 OFFCURVE",
"216 75 CURVE SMOOTH",
"193 75 OFFCURVE",
"178 61 OFFCURVE",
"178 37 CURVE SMOOTH",
"178 15 OFFCURVE",
"191 0 OFFCURVE",
"216 0 CURVE SMOOTH"
);
}
);
width = 272;
}
);
unicode = 003F;
},
{
color = 3;
glyphname = quotedbl;
lastChange = "2016-08-30 17:03:42 +0000";
layers = (
{
layerId = UUID0;
paths = (
{
closed = 1;
nodes = (
"98 505 OFFCURVE",
"105 510 OFFCURVE",
"113 525 CURVE",
"86 580 OFFCURVE",
"66 770 OFFCURVE",
"29 770 CURVE SMOOTH",
"21 770 OFFCURVE",
"14 771 OFFCURVE",
"10 760 CURVE",
"10 715 OFFCURVE",
"31 505 OFFCURVE",
"85 505 CURVE SMOOTH"
);
},
{
closed = 1;
nodes = (
"188 487 LINE",
"192 490 OFFCURVE",
"206 502 OFFCURVE",
"207 506 CURVE",
"207 539 LINE SMOOTH",
"207 555 OFFCURVE",
"206 798 OFFCURVE",
"155 798 CURVE SMOOTH",
"153 798 LINE",
"150 798 LINE",
"149 795 OFFCURVE",
"142 790 OFFCURVE",
"142 787 CURVE SMOOTH",
"142 750 LINE SMOOTH",
"142 675 OFFCURVE",
"146 625 OFFCURVE",
"150 534 CURVE",
"150 531 OFFCURVE",
"167 487 OFFCURVE",
"183 487 CURVE SMOOTH"
);
}
);
width = 235;
}
);
unicode = 0022;
},
{
color = 3;
glyphname = quotesingle;
lastChange = "2016-08-30 17:03:42 +0000";
layers = (
{
layerId = UUID0;
paths = (
{
closed = 1;
nodes = (
"86 487 OFFCURVE",
"86 500 OFFCURVE",
"86 519 CURVE SMOOTH",
"86 566 OFFCURVE",
"81 706 OFFCURVE",
"37 730 CURVE",
"20 716 OFFCURVE",
"19 712 OFFCURVE",
"19 695 CURVE SMOOTH",
"19 685 OFFCURVE",
"17 487 OFFCURVE",
"65 487 CURVE SMOOTH"
);
}
);
width = 104;
}
);
unicode = 0027;
},
{
color = 3;
glyphname = semicolon;
lastChange = "2016-08-30 17:03:42 +0000";
layers = (
{
layerId = UUID0;
paths = (
{
closed = 1;
nodes = (
"66 -184 OFFCURVE",
"104 0 OFFCURVE",
"104 66 CURVE SMOOTH",
"104 94 OFFCURVE",
"102 125 OFFCURVE",
"74 142 CURVE",
"44 119 OFFCURVE",
"50 52 OFFCURVE",
"48 28 CURVE",
"32 -53 OFFCURVE",
"-15 -69 OFFCURVE",
"-15 -154 CURVE SMOOTH",
"-15 -166 OFFCURVE",
"-20 -184 OFFCURVE",
"0 -184 CURVE SMOOTH"
);
},
{
closed = 1;
nodes = (
"75 308 OFFCURVE",
"98 323 OFFCURVE",
"74 375 CURVE",
"85 380 OFFCURVE",
"19 407 OFFCURVE",
"19 375 CURVE",
"14 340 OFFCURVE",
"25 300 OFFCURVE",
"61 300 CURVE"
);
}
);
width = 130;
}
);
unicode = 003B;
},
{
color = 3;
glyphname = slash;
lastChange = "2016-08-30 17:03:42 +0000";
layers = (
{
layerId = UUID0;
paths = (
{
closed = 1;
nodes = (
"82 0 OFFCURVE",
"291 625 OFFCURVE",
"291 705 CURVE SMOOTH",
"291 721 OFFCURVE",
"296 745 OFFCURVE",
"272 750 CURVE",
"238 737 OFFCURVE",
"233 656 OFFCURVE",
"226 619 CURVE",
"65 179 LINE",
"50 150 OFFCURVE",
"10 67 OFFCURVE",
"10 33 CURVE SMOOTH",
"10 19 OFFCURVE",
"21 0 OFFCURVE",
"38 0 CURVE SMOOTH"
);
}
);
width = 310;
}
);
unicode = 002F;
},
{
color = 3;
glyphname = underscore;
lastChange = "2016-08-30 17:03:42 +0000";
layers = (
{
layerId = UUID0;
paths = (
{
closed = 1;
nodes = (
"629 0 OFFCURVE",
"639 16 OFFCURVE",
"639 28 CURVE SMOOTH",
"639 60 OFFCURVE",
"610 74 OFFCURVE",
"582 74 CURVE SMOOTH",
"403 74 LINE SMOOTH",
"385 74 OFFCURVE",
"235 85 OFFCURVE",
"216 85 CURVE SMOOTH",
"207 85 LINE",
"160 90 OFFCURVE",
"112 104 OFFCURVE",
"65 104 CURVE SMOOTH",
"46 104 OFFCURVE",
"27 105 OFFCURVE",
"27 85 CURVE SMOOTH",
"27 37 OFFCURVE",
"482 0 OFFCURVE",
"616 0 CURVE SMOOTH"
);
}
);
width = 656;
}
);
unicode = 005F;
},
{
color = 3;
glyphname = braceleft;
lastChange = "2016-08-30 17:03:42 +0000";
layers = (
{
layerId = UUID0;
paths = (
{
closed = 1;
nodes = (
"247 -95 OFFCURVE",
"396 -94 OFFCURVE",
"396 -28 CURVE",
"347 -28 OFFCURVE",
"301 -38 OFFCURVE",
"253 -46 CURVE",
"248 -46 LINE SMOOTH",
"182 -46 OFFCURVE",
"144 -8 OFFCURVE",
"112 48 CURVE",
"112 57 LINE SMOOTH",
"112 190 OFFCURVE",
"338 210 OFFCURVE",
"338 348 CURVE SMOOTH",
"338 394 OFFCURVE",
"284 421 OFFCURVE",
"300 469 CURVE",
"219 515 OFFCURVE",
"64 536 OFFCURVE",
"64 656 CURVE",
"91 761 OFFCURVE",
"166 834 OFFCURVE",
"277 845 CURVE",
"313 845 OFFCURVE",
"336 795 OFFCURVE",
"352 795 CURVE SMOOTH",
"364 795 OFFCURVE",
"367 813 OFFCURVE",
"367 824 CURVE SMOOTH",
"367 873 OFFCURVE",
"315 892 OFFCURVE",
"276 892 CURVE SMOOTH",
"169 892 OFFCURVE",
"19 796 OFFCURVE",
"19 678 CURVE SMOOTH",
"19 585 OFFCURVE",
"74 479 OFFCURVE",
"179 460 CURVE",
"166 410 OFFCURVE",
"74 374 OFFCURVE",
"37 355 CURVE",
"36 342 LINE",
"36 326 OFFCURVE",
"40 317 OFFCURVE",
"57 317 CURVE",
"65 318 LINE",
"98 337 OFFCURVE",
"198 394 OFFCURVE",
"248 394 CURVE SMOOTH",
"253 394 LINE SMOOTH",
"256 394 OFFCURVE",
"270 386 OFFCURVE",
"272 385 CURVE",
"273 355 LINE",
"273 229 OFFCURVE",
"64 213 OFFCURVE",
"64 70 CURVE SMOOTH",
"64 -6 OFFCURVE",
"117 -113 OFFCURVE",
"211 -95 CURVE"
);
}
);
width = 394;
}
);
unicode = 007B;
},
{
color = 3;
glyphname = braceright;
lastChange = "2016-08-30 17:03:42 +0000";
layers = (
{
layerId = UUID0;
paths = (
{
closed = 1;
nodes = (
"324 -226 OFFCURVE",
"414 -159 OFFCURVE",
"414 -29 CURVE SMOOTH",
"414 68 OFFCURVE",
"358 145 OFFCURVE",
"310 225 CURVE",
"285 261 OFFCURVE",
"168 381 OFFCURVE",
"168 394 CURVE",
"173 418 OFFCURVE",
"193 428 OFFCURVE",
"216 432 CURVE",
"236 432 OFFCURVE",
"327 440 OFFCURVE",
"347 440 CURVE",
"358 443 OFFCURVE",
"356 457 OFFCURVE",
"356 465 CURVE SMOOTH",
"356 479 OFFCURVE",
"356 489 OFFCURVE",
"338 497 CURVE",
"321 495 OFFCURVE",
"242 494 OFFCURVE",
"225 497 CURVE",
"194 500 OFFCURVE",
"168 497 OFFCURVE",
"168 529 CURVE SMOOTH",
"168 621 OFFCURVE",
"366 666 OFFCURVE",
"366 792 CURVE SMOOTH",
"366 863 OFFCURVE",
"317 914 OFFCURVE",
"253 938 CURVE",
"168 938 LINE SMOOTH",
"142 938 OFFCURVE",
"8 957 OFFCURVE",
"8 896 CURVE SMOOTH",
"8 851 OFFCURVE",
"37 824 OFFCURVE",
"85 824 CURVE SMOOTH",
"101 824 OFFCURVE",
"113 824 OFFCURVE",
"113 844 CURVE SMOOTH",
"113 878 OFFCURVE",
"69 848 OFFCURVE",
"57 881 CURVE",
"89 878 OFFCURVE",
"116 892 OFFCURVE",
"149 892 CURVE SMOOTH",
"214 892 OFFCURVE",
"301 886 OFFCURVE",
"301 807 CURVE SMOOTH",
"301 793 OFFCURVE",
"302 761 OFFCURVE",
"291 750 CURVE SMOOTH",
"131 591 LINE SMOOTH",
"112 571 OFFCURVE",
"112 554 OFFCURVE",
"112 529 CURVE SMOOTH",
"112 502 OFFCURVE",
"131 479 OFFCURVE",
"131 455 CURVE SMOOTH",
"131 436 OFFCURVE",
"121 423 OFFCURVE",
"121 398 CURVE SMOOTH",
"121 313 OFFCURVE",
"195 292 OFFCURVE",
"244 235 CURVE",
"280 183 OFFCURVE",
"366 52 OFFCURVE",
"366 -19 CURVE SMOOTH",
"366 -121 OFFCURVE",
"262 -201 OFFCURVE",
"159 -178 CURVE",
"158 -178 OFFCURVE",
"88 -146 OFFCURVE",
"65 -131 CURVE",
"48 -122 OFFCURVE",
"49 -84 OFFCURVE",
"23 -84 CURVE SMOOTH",
"12 -84 OFFCURVE",
"0 -104 OFFCURVE",
"0 -113 CURVE",
"19 -211 OFFCURVE",
"132 -233 OFFCURVE",
"206 -226 CURVE"
);
}
);
width = 440;
}
);
unicode = 007D;
},
{
color = 3;
glyphname = bracketleft;
lastChange = "2016-08-30 17:03:42 +0000";
layers = (
{
layerId = UUID0;
paths = (
{
closed = 1;
nodes = (
"152 -95 OFFCURVE",
"175 -86 OFFCURVE",
"179 -84 CURVE",
"185 -84 OFFCURVE",
"210 -75 OFFCURVE",
"216 -75 CURVE",
"291 -60 OFFCURVE",
"448 -63 OFFCURVE",
"525 -65 CURVE",
"529 -64 OFFCURVE",
"542 -58 OFFCURVE",
"543 -57 CURVE",
"543 -55 LINE",
"543 -55 OFFCURVE",
"544 -54 OFFCURVE",
"544 -53 CURVE SMOOTH",
"544 -36 OFFCURVE",
"528 -20 OFFCURVE",
"517 -9 CURVE",
"427 -8 LINE SMOOTH",
"352 -8 OFFCURVE",
"277 -20 OFFCURVE",
"200 -20 CURVE SMOOTH",
"169 -20 OFFCURVE",
"174 89 OFFCURVE",
"122 432 CURVE",
"104 455 OFFCURVE",
"86 538 OFFCURVE",
"86 563 CURVE",
"94 563 LINE",
"201 607 OFFCURVE",
"340 643 OFFCURVE",
"449 666 CURVE",
"452 666 OFFCURVE",
"457 674 OFFCURVE",
"460 675 CURVE",
"460 685 LINE",
"457 689 OFFCURVE",
"452 701 OFFCURVE",
"449 704 CURVE",
"446 704 LINE SMOOTH",
"320 704 OFFCURVE",
"151 644 OFFCURVE",
"37 600 CURVE",
"26 593 OFFCURVE",
"19 581 OFFCURVE",
"19 566 CURVE SMOOTH",
"19 563 LINE",
"74 366 LINE",
"74 355 LINE SMOOTH",
"74 354 OFFCURVE",
"83 329 OFFCURVE",
"85 329 CURVE",
"93 279 OFFCURVE",
"118 123 OFFCURVE",
"122 104 CURVE",
"124 86 OFFCURVE",
"130 -40 OFFCURVE",
"131 -57 CURVE",
"131 -61 OFFCURVE",
"138 -80 OFFCURVE",
"142 -84 CURVE",
"143 -88 OFFCURVE",
"149 -94 OFFCURVE",
"150 -94 CURVE"
);
}
);
width = 479;
}
);
unicode = 005B;
},
{
color = 3;
glyphname = bracketright;
lastChange = "2016-08-30 17:03:42 +0000";
layers = (
{
layerId = UUID0;
paths = (
{
closed = 1;
nodes = (
"366 -94 LINE SMOOTH",
"383 -94 OFFCURVE",
"413 -83 OFFCURVE",
"413 -63 CURVE SMOOTH",
"413 -46 LINE",
"407 54 OFFCURVE",
"379 528 OFFCURVE",
"376 628 CURVE",
"358 710 OFFCURVE",
"355 788 OFFCURVE",
"263 807 CURVE",
"237 807 OFFCURVE",
"25 855 OFFCURVE",
"9 811 CURVE",
"9 765 OFFCURVE",
"229 761 OFFCURVE",
"282 730 CURVE",
"366 563 OFFCURVE",
"347 193 OFFCURVE",
"347 -2 CURVE SMOOTH",
"347 -7 OFFCURVE",
"349 -20 OFFCURVE",
"338 -20 CURVE SMOOTH",
"85 -20 LINE",
"65 -28 LINE",
"64 -46 LINE",
"64 -74 OFFCURVE",
"68 -94 OFFCURVE",
"104 -94 CURVE SMOOTH"
);
}
);
width = 432;
}
);
unicode = 005D;
},
{
color = 3;
glyphname = parenleft;
lastChange = "2016-08-30 17:03:42 +0000";
layers = (
{
layerId = UUID0;
paths = (
{
closed = 1;
nodes = (
"220 -38 OFFCURVE",
"282 -46 OFFCURVE",
"282 -9 CURVE SMOOTH",
"282 -1 OFFCURVE",
"281 6 OFFCURVE",
"272 10 CURVE",
"167 22 OFFCURVE",
"74 47 OFFCURVE",
"74 173 CURVE SMOOTH",
"74 292 OFFCURVE",
"208 525 OFFCURVE",
"344 525 CURVE SMOOTH",
"362 525 OFFCURVE",
"372 505 OFFCURVE",
"389 505 CURVE SMOOTH",
"401 505 OFFCURVE",
"404 526 OFFCURVE",
"404 535 CURVE SMOOTH",
"404 559 OFFCURVE",
"370 582 OFFCURVE",
"347 582 CURVE SMOOTH",
"213 582 OFFCURVE",
"19 319 OFFCURVE",
"19 191 CURVE SMOOTH",
"19 82 OFFCURVE",
"79 -38 OFFCURVE",
"202 -38 CURVE SMOOTH"
);
}
);
width = 423;
}
);
unicode = 0028;
},
{
color = 3;
glyphname = parenright;
lastChange = "2016-08-30 17:03:42 +0000";
layers = (
{
layerId = UUID0;
paths = (
{
closed = 1;
nodes = (
"133 -58 OFFCURVE",
"273 217 OFFCURVE",
"273 310 CURVE SMOOTH",
"273 404 OFFCURVE",
"193 592 OFFCURVE",
"76 592 CURVE SMOOTH",
"60 592 OFFCURVE",
"46 592 OFFCURVE",
"46 572 CURVE SMOOTH",
"46 553 OFFCURVE",
"67 535 OFFCURVE",
"85 543 CURVE",
"155 480 OFFCURVE",
"217 398 OFFCURVE",
"217 300 CURVE SMOOTH",
"217 146 OFFCURVE",
"9 11 OFFCURVE",
"9 -20 CURVE SMOOTH",
"9 -31 OFFCURVE",
"18 -58 OFFCURVE",
"33 -58 CURVE SMOOTH"
);
}
);
width = 291;
}
);
unicode = 0029;
},
{
color = 3;
glyphname = emdash;
lastChange = "2016-08-30 17:03:42 +0000";
layers = (
{
layerId = UUID0;
paths = (
{
closed = 1;
nodes = (
"90 241 OFFCURVE",
"306 261 OFFCURVE",
"381 261 CURVE SMOOTH",
"411 261 OFFCURVE",
"434 250 OFFCURVE",
"461 250 CURVE SMOOTH",
"474 250 OFFCURVE",
"479 257 OFFCURVE",
"479 271 CURVE SMOOTH",
"479 316 OFFCURVE",
"426 317 OFFCURVE",
"389 317 CURVE",
"367 316 LINE",
"296 309 OFFCURVE",
"15 332 OFFCURVE",
"15 241 CURVE"
);
}
);
width = 513;
}
);
unicode = 2014;
},
{
color = 3;
glyphname = endash;
lastChange = "2016-08-30 17:03:42 +0000";
layers = (
{
layerId = UUID0;
paths = (
{
closed = 1;
nodes = (
"91 241 OFFCURVE",
"99 262 OFFCURVE",
"175 262 CURVE SMOOTH",
"205 262 OFFCURVE",
"227 250 OFFCURVE",
"255 250 CURVE SMOOTH",
"268 250 OFFCURVE",
"273 257 OFFCURVE",
"273 271 CURVE SMOOTH",
"273 318 OFFCURVE",
"221 317 OFFCURVE",
"183 317 CURVE SMOOTH",
"160 317 LINE",
"90 307 OFFCURVE",
"15 333 OFFCURVE",
"15 241 CURVE"
);
}
);
width = 288;
}
);
unicode = 2013;
},
{
color = 3;
glyphname = hyphen;
lastChange = "2016-08-30 17:03:42 +0000";
layers = (
{
layerId = UUID0;
paths = (
{
closed = 1;
nodes = (
"90 241 OFFCURVE",
"164 263 OFFCURVE",
"239 263 CURVE SMOOTH",
"270 263 OFFCURVE",
"291 252 OFFCURVE",
"319 252 CURVE SMOOTH",
"332 252 OFFCURVE",
"338 259 OFFCURVE",
"338 272 CURVE SMOOTH",
"338 318 OFFCURVE",
"285 319 OFFCURVE",
"247 319 CURVE",
"243 320 OFFCURVE",
"225 317 OFFCURVE",
"225 318 CURVE",
"154 311 OFFCURVE",
"15 333 OFFCURVE",
"15 241 CURVE"
);
}
);
width = 375;
}
);
unicode = 002D;
},
{
color = 3;
glyphname = guillemetleft;
lastChange = "2016-08-31 21:41:28 +0000";
layers = (
{
layerId = UUID0;
paths = (
{
closed = 1;
nodes = (
"416 0 OFFCURVE",
"425 8 OFFCURVE",
"425 23 CURVE SMOOTH",
"425 75 OFFCURVE",
"306 89 OFFCURVE",
"272 94 CURVE",
"258 94 OFFCURVE",
"111 116 OFFCURVE",
"104 131 CURVE",
"150 186 OFFCURVE",
"226 223 OFFCURVE",
"282 262 CURVE",
"297 276 OFFCURVE",
"460 378 OFFCURVE",
"460 385 CURVE",
"456 389 OFFCURVE",
"438 410 OFFCURVE",
"432 412 CURVE",
"401 399 OFFCURVE",
"355 376 OFFCURVE",
"329 355 CURVE",
"255 309 OFFCURVE",
"81 182 OFFCURVE",
"75 179 CURVE",
"10 112 LINE",
"-36 70 OFFCURVE",
"142 49 OFFCURVE",
"246 37 CURVE SMOOTH",
"292 32 LINE SMOOTH",
"305 31 OFFCURVE",
"314 29 OFFCURVE",
"319 28 CURVE SMOOTH",
"346 23 OFFCURVE",
"372 0 OFFCURVE",
"399 0 CURVE SMOOTH"
);
},
{
closed = 1;
nodes = (
"654 63 OFFCURVE",
"663 71 OFFCURVE",
"663 87 CURVE SMOOTH",
"663 139 OFFCURVE",
"543 152 OFFCURVE",
"511 157 CURVE",
"497 157 OFFCURVE",
"349 180 OFFCURVE",
"342 194 CURVE",
"389 249 OFFCURVE",
"465 288 OFFCURVE",
"521 326 CURVE",
"535 338 OFFCURVE",
"698 444 OFFCURVE",
"698 448 CURVE",
"693 453 OFFCURVE",
"677 473 OFFCURVE",
"670 476 CURVE",
"639 463 OFFCURVE",
"595 439 OFFCURVE",
"566 420 CURVE",
"498 370 OFFCURVE",
"314 246 OFFCURVE",
"314 242 CURVE",
"248 177 LINE",
"207 133 OFFCURVE",
"377 112 OFFCURVE",
"484 101 CURVE SMOOTH",
"531 96 LINE SMOOTH",
"544 95 OFFCURVE",
"553 93 OFFCURVE",
"558 92 CURVE SMOOTH",
"564 91 OFFCURVE",
"570 88 OFFCURVE",
"577 85 CURVE",
"597 75 LINE",
"611 70 OFFCURVE",
"625 63 OFFCURVE",
"637 63 CURVE SMOOTH"
);
}
);
width = 756;
}
);
unicode = 00AB;
},
{
color = 3;
glyphname = guillemetright;
lastChange = "2016-08-31 21:41:34 +0000";
layers = (
{
layerId = UUID0;
paths = (
{
closed = 1;
nodes = (
"63 -1 OFFCURVE",
"307 179 OFFCURVE",
"329 197 CURVE",
"357 229 OFFCURVE",
"406 255 OFFCURVE",
"396 303 CURVE",
"396 318 OFFCURVE",
"396 330 OFFCURVE",
"376 338 CURVE",
"301 349 OFFCURVE",
"220 379 OFFCURVE",
"150 403 CURVE SMOOTH",
"110 417 OFFCURVE",
"100 461 OFFCURVE",
"57 461 CURVE SMOOTH",
"42 461 OFFCURVE",
"27 457 OFFCURVE",
"27 440 CURVE",
"28 432 LINE",
"47 375 OFFCURVE",
"229 304 OFFCURVE",
"301 300 CURVE",
"396 265 OFFCURVE",
"40 80 OFFCURVE",
"27 33 CURVE",
"27 17 OFFCURVE",
"28 -1 OFFCURVE",
"51 -1 CURVE SMOOTH"
);
},
{
closed = 1;
nodes = (
"287 23 OFFCURVE",
"527 204 OFFCURVE",
"552 221 CURVE",
"581 252 OFFCURVE",
"629 280 OFFCURVE",
"618 326 CURVE",
"618 342 OFFCURVE",
"618 354 OFFCURVE",
"599 361 CURVE",
"523 373 OFFCURVE",
"442 401 OFFCURVE",
"373 428 CURVE",
"333 441 OFFCURVE",
"322 484 OFFCURVE",
"279 484 CURVE SMOOTH",
"265 484 OFFCURVE",
"250 480 OFFCURVE",
"250 465 CURVE",
"251 455 LINE",
"271 399 OFFCURVE",
"451 327 OFFCURVE",
"523 323 CURVE",
"618 288 OFFCURVE",
"262 104 OFFCURVE",
"250 58 CURVE",
"250 39 OFFCURVE",
"251 23 OFFCURVE",
"273 23 CURVE SMOOTH"
);
}
);
width = 660;
}
);
unicode = 00BB;
},
{
color = 3;
glyphname = guilsinglleft;
lastChange = "2016-08-30 17:03:42 +0000";
layers = (
{
layerId = UUID0;
paths = (
{
closed = 1;
nodes = (
"416 0 OFFCURVE",
"425 8 OFFCURVE",
"425 23 CURVE SMOOTH",
"425 75 OFFCURVE",
"306 89 OFFCURVE",
"272 94 CURVE",
"258 94 OFFCURVE",
"111 116 OFFCURVE",
"104 131 CURVE",
"150 186 OFFCURVE",
"226 223 OFFCURVE",
"282 262 CURVE",
"297 276 OFFCURVE",
"460 378 OFFCURVE",
"460 385 CURVE",
"456 389 OFFCURVE",
"438 410 OFFCURVE",
"432 412 CURVE",
"401 399 OFFCURVE",
"355 376 OFFCURVE",
"329 355 CURVE",
"255 309 OFFCURVE",
"81 182 OFFCURVE",
"75 179 CURVE",
"10 112 LINE",
"-36 70 OFFCURVE",
"142 49 OFFCURVE",
"246 37 CURVE SMOOTH",
"292 32 LINE SMOOTH",
"305 31 OFFCURVE",
"314 29 OFFCURVE",
"319 28 CURVE SMOOTH",
"346 23 OFFCURVE",
"372 0 OFFCURVE",
"399 0 CURVE SMOOTH"
);
}
);
width = 487;
}
);
unicode = 2039;
},
{
color = 3;
glyphname = guilsinglright;
lastChange = "2016-08-30 17:03:42 +0000";
layers = (
{
layerId = UUID0;
paths = (
{
closed = 1;
nodes = (
"63 -1 OFFCURVE",
"307 179 OFFCURVE",
"329 197 CURVE",
"357 229 OFFCURVE",
"406 255 OFFCURVE",
"396 303 CURVE",
"396 318 OFFCURVE",
"396 330 OFFCURVE",
"376 338 CURVE",
"301 349 OFFCURVE",
"220 379 OFFCURVE",
"150 403 CURVE SMOOTH",
"110 417 OFFCURVE",
"100 461 OFFCURVE",
"57 461 CURVE SMOOTH",
"42 461 OFFCURVE",
"27 457 OFFCURVE",
"27 440 CURVE",
"28 432 LINE",
"47 375 OFFCURVE",
"229 304 OFFCURVE",
"301 300 CURVE",
"396 265 OFFCURVE",
"40 80 OFFCURVE",
"27 33 CURVE",
"27 17 OFFCURVE",
"28 -1 OFFCURVE",
"51 -1 CURVE SMOOTH"
);
}
);
width = 403;
}
);
unicode = 203A;
},
{
color = 3;
glyphname = quotedblbase;
lastChange = "2016-08-30 17:03:42 +0000";
layers = (
{
layerId = UUID0;
paths = (
{
closed = 1;
nodes = (
"162 -107 OFFCURVE",
"169 -104 OFFCURVE",
"177 -89 CURVE",
"146 -34 OFFCURVE",
"133 156 OFFCURVE",
"92 156 CURVE SMOOTH",
"84 156 OFFCURVE",
"76 155 OFFCURVE",
"72 146 CURVE",
"76 103 OFFCURVE",
"93 -107 OFFCURVE",
"147 -107 CURVE SMOOTH"
);
},
{
closed = 1;
nodes = (
"249 -127 LINE SMOOTH",
"250 -127 OFFCURVE",
"250 -127 OFFCURVE",
"251 -126 CURVE",
"255 -125 OFFCURVE",
"268 -111 OFFCURVE",
"271 -107 CURVE",
"271 -74 LINE SMOOTH",
"271 -61 OFFCURVE",
"269 185 OFFCURVE",
"218 185 CURVE",
"216 184 LINE",
"214 184 LINE",
"211 183 OFFCURVE",
"205 177 OFFCURVE",
"204 174 CURVE",
"204 136 LINE SMOOTH",
"204 62 OFFCURVE",
"209 11 OFFCURVE",
"214 -79 CURVE",
"214 -83 OFFCURVE",
"229 -127 OFFCURVE",
"246 -127 CURVE SMOOTH"
);
}
);
width = 342;
}
);
unicode = 201E;
},
{
color = 3;
glyphname = quotedblleft;
lastChange = "2016-08-30 17:03:42 +0000";
layers = (
{
layerId = UUID0;
paths = (
{
closed = 1;
nodes = (
"98 505 OFFCURVE",
"105 510 OFFCURVE",
"113 525 CURVE",
"86 580 OFFCURVE",
"66 770 OFFCURVE",
"29 770 CURVE SMOOTH",
"21 770 OFFCURVE",
"14 771 OFFCURVE",
"10 760 CURVE",
"10 715 OFFCURVE",
"31 505 OFFCURVE",
"85 505 CURVE SMOOTH"
);
},
{
closed = 1;
nodes = (
"188 487 LINE",
"192 490 OFFCURVE",
"206 502 OFFCURVE",
"207 506 CURVE",
"207 539 LINE SMOOTH",
"207 555 OFFCURVE",
"206 798 OFFCURVE",
"155 798 CURVE SMOOTH",
"150 798 LINE",
"146 792 LINE",
"143 790 OFFCURVE",
"142 788 OFFCURVE",
"142 787 CURVE SMOOTH",
"142 750 LINE SMOOTH",
"142 675 OFFCURVE",
"146 625 OFFCURVE",
"150 534 CURVE",
"150 531 OFFCURVE",
"167 487 OFFCURVE",
"183 487 CURVE SMOOTH"
);
}
);
width = 235;
}
);
unicode = 201C;
},
{
color = 3;
glyphname = quotedblright;
lastChange = "2016-08-30 17:03:42 +0000";
layers = (
{
layerId = UUID0;
paths = (
{
closed = 1;
nodes = (
"98 505 OFFCURVE",
"105 510 OFFCURVE",
"113 525 CURVE",
"86 580 OFFCURVE",
"66 770 OFFCURVE",
"29 770 CURVE SMOOTH",
"21 770 OFFCURVE",
"14 771 OFFCURVE",
"10 760 CURVE",
"10 715 OFFCURVE",
"31 505 OFFCURVE",
"85 505 CURVE SMOOTH"
);
},
{
closed = 1;
nodes = (
"188 487 LINE",
"192 490 OFFCURVE",
"206 502 OFFCURVE",
"207 506 CURVE",
"207 539 LINE SMOOTH",
"207 555 OFFCURVE",
"206 798 OFFCURVE",
"155 798 CURVE SMOOTH",
"150 798 LINE",
"146 792 LINE",
"143 790 OFFCURVE",
"142 788 OFFCURVE",
"142 787 CURVE SMOOTH",
"142 750 LINE SMOOTH",
"142 675 OFFCURVE",
"146 625 OFFCURVE",
"150 534 CURVE",
"150 531 OFFCURVE",
"167 487 OFFCURVE",
"183 487 CURVE SMOOTH"
);
}
);
width = 235;
}
);
unicode = 201D;
},
{
color = 3;
glyphname = quoteleft;
lastChange = "2016-08-30 17:03:42 +0000";
layers = (
{
layerId = UUID0;
paths = (
{
closed = 1;
nodes = (
"86 487 OFFCURVE",
"86 500 OFFCURVE",
"86 519 CURVE SMOOTH",
"86 566 OFFCURVE",
"81 706 OFFCURVE",
"37 730 CURVE",
"20 716 OFFCURVE",
"19 712 OFFCURVE",
"19 695 CURVE SMOOTH",
"19 676 LINE SMOOTH",
"19 624 OFFCURVE",
"25 487 OFFCURVE",
"65 487 CURVE SMOOTH"
);
}
);
width = 104;
}
);
unicode = 2018;
},
{
color = 3;
glyphname = quoteright;
lastChange = "2016-08-30 17:03:42 +0000";
layers = (
{
layerId = UUID0;
paths = (
{
closed = 1;
nodes = (
"86 487 OFFCURVE",
"86 500 OFFCURVE",
"86 519 CURVE SMOOTH",
"86 566 OFFCURVE",
"81 706 OFFCURVE",
"37 730 CURVE",
"20 716 OFFCURVE",
"19 712 OFFCURVE",
"19 695 CURVE SMOOTH",
"19 676 LINE SMOOTH",
"19 624 OFFCURVE",
"25 487 OFFCURVE",
"65 487 CURVE SMOOTH"
);
}
);
width = 104;
}
);
unicode = 2019;
},
{
color = 3;
glyphname = quotesinglbase;
lastChange = "2016-08-30 17:03:42 +0000";
layers = (
{
layerId = UUID0;
paths = (
{
closed = 1;
nodes = (
"91 -31 OFFCURVE",
"90 -19 OFFCURVE",
"90 0 CURVE SMOOTH",
"90 47 OFFCURVE",
"86 188 OFFCURVE",
"42 213 CURVE",
"23 194 OFFCURVE",
"23 194 OFFCURVE",
"23 178 CURVE SMOOTH",
"23 158 LINE SMOOTH",
"23 104 OFFCURVE",
"28 -31 OFFCURVE",
"70 -31 CURVE SMOOTH"
);
}
);
width = 104;
}
);
unicode = 201A;
},
{
color = 3;
glyphname = cent;
lastChange = "2016-08-30 17:03:42 +0000";
layers = (
{
layerId = UUID0;
paths = (
{
closed = 1;
nodes = (
"235 -60 LINE SMOOTH",
"252 -60 OFFCURVE",
"267 -28 OFFCURVE",
"274 0 CURVE",
"335 8 OFFCURVE",
"434 8 OFFCURVE",
"423 42 CURVE",
"423 45 LINE",
"423 48 LINE",
"419 49 OFFCURVE",
"407 57 OFFCURVE",
"403 57 CURVE",
"363 54 OFFCURVE",
"319 54 OFFCURVE",
"276 55 CURVE",
"275 60 OFFCURVE",
"273 64 OFFCURVE",
"272 65 CURVE",
"275 202 OFFCURVE",
"277 288 OFFCURVE",
"259 391 CURVE",
"306 379 OFFCURVE",
"329 339 OFFCURVE",
"329 287 CURVE",
"342 287 OFFCURVE",
"356 345 OFFCURVE",
"356 356 CURVE SMOOTH",
"356 414 OFFCURVE",
"295 436 OFFCURVE",
"247 440 CURVE",
"259 486 OFFCURVE",
"182 615 OFFCURVE",
"197 469 CURVE",
"197 464 OFFCURVE",
"198 459 OFFCURVE",
"199 454 CURVE SMOOTH",
"202 439 LINE",
"100 424 OFFCURVE",
"19 323 OFFCURVE",
"19 218 CURVE SMOOTH",
"19 72 OFFCURVE",
"86 3 OFFCURVE",
"220 -5 CURVE",
"221 -27 OFFCURVE",
"221 -43 OFFCURVE",
"221 -50 CURVE",
"222 -53 OFFCURVE",
"229 -59 OFFCURVE",
"230 -60 CURVE"
);
},
{
closed = 1;
nodes = (
"138 75 OFFCURVE",
"74 112 OFFCURVE",
"74 216 CURVE SMOOTH",
"74 298 OFFCURVE",
"123 381 OFFCURVE",
"209 394 CURVE",
"213 352 OFFCURVE",
"215 314 OFFCURVE",
"215 275 CURVE SMOOTH",
"215 216 LINE SMOOTH",
"215 195 OFFCURVE",
"215 174 OFFCURVE",
"216 150 CURVE SMOOTH",
"218 60 LINE"
);
}
);
width = 449;
}
);
unicode = 00A2;
},
{
color = 3;
glyphname = currency;
lastChange = "2016-08-30 17:03:42 +0000";
layers = (
{
layerId = UUID0;
paths = (
{
closed = 1;
nodes = (
"112 21 OFFCURVE",
"146 69 OFFCURVE",
"181 119 CURVE",
"216 95 OFFCURVE",
"258 83 OFFCURVE",
"308 83 CURVE SMOOTH",
"344 83 OFFCURVE",
"378 90 OFFCURVE",
"410 104 CURVE",
"435 73 OFFCURVE",
"461 46 OFFCURVE",
"485 25 CURVE",
"494 24 LINE",
"510 24 OFFCURVE",
"519 39 OFFCURVE",
"522 54 CURVE",
"494 78 OFFCURVE",
"472 104 OFFCURVE",
"456 129 CURVE",
"506 165 OFFCURVE",
"540 220 OFFCURVE",
"540 293 CURVE SMOOTH",
"540 329 OFFCURVE",
"525 375 OFFCURVE",
"499 414 CURVE",
"521 440 OFFCURVE",
"545 465 OFFCURVE",
"573 489 CURVE",
"563 536 OFFCURVE",
"519 502 OFFCURVE",
"464 455 CURVE",
"437 481 OFFCURVE",
"402 499 OFFCURVE",
"366 499 CURVE SMOOTH",
"299 499 OFFCURVE",
"229 479 OFFCURVE",
"178 439 CURVE",
"132 480 OFFCURVE",
"86 519 OFFCURVE",
"55 531 CURVE",
"45 531 OFFCURVE",
"28 529 OFFCURVE",
"31 510 CURVE",
"45 479 OFFCURVE",
"88 436 OFFCURVE",
"132 392 CURVE",
"112 361 OFFCURVE",
"100 325 OFFCURVE",
"100 283 CURVE SMOOTH",
"100 233 OFFCURVE",
"114 191 OFFCURVE",
"138 159 CURVE",
"105 117 OFFCURVE",
"77 73 OFFCURVE",
"77 42 CURVE SMOOTH",
"77 30 OFFCURVE",
"84 24 OFFCURVE",
"97 24 CURVE"
);
},
{
closed = 1;
nodes = (
"211 129 OFFCURVE",
"146 199 OFFCURVE",
"146 279 CURVE SMOOTH",
"146 380 OFFCURVE",
"257 431 OFFCURVE",
"343 431 CURVE",
"632 380 OFFCURVE",
"457 113 OFFCURVE",
"294 129 CURVE"
);
}
);
width = 618;
}
);
unicode = 00A4;
},
{
color = 3;
glyphname = dollar;
lastChange = "2016-08-30 17:03:42 +0000";
layers = (
{
layerId = UUID0;
paths = (
{
closed = 1;
nodes = (
"358 -1 OFFCURVE",
"361 40 OFFCURVE",
"356 65 CURVE",
"488 74 OFFCURVE",
"563 148 OFFCURVE",
"563 285 CURVE SMOOTH",
"563 387 OFFCURVE",
"468 433 OFFCURVE",
"413 497 CURVE",
"411 539 LINE",
"411 590 OFFCURVE",
"427 633 OFFCURVE",
"432 685 CURVE",
"451 682 OFFCURVE",
"487 702 OFFCURVE",
"487 713 CURVE SMOOTH",
"487 729 OFFCURVE",
"448 732 OFFCURVE",
"440 750 CURVE",
"440 897 LINE",
"384 897 OFFCURVE",
"395 814 OFFCURVE",
"395 778 CURVE",
"380 777 LINE",
"363 777 OFFCURVE",
"354 778 OFFCURVE",
"338 787 CURVE",
"337 820 LINE SMOOTH",
"337 828 OFFCURVE",
"338 852 OFFCURVE",
"338 854 CURVE",
"338 854 OFFCURVE",
"347 869 OFFCURVE",
"347 872 CURVE",
"344 893 OFFCURVE",
"338 908 OFFCURVE",
"338 929 CURVE",
"280 905 OFFCURVE",
"285 811 OFFCURVE",
"282 760 CURVE",
"229 743 OFFCURVE",
"182 712 OFFCURVE",
"150 666 CURVE",
"149 643 LINE",
"149 573 OFFCURVE",
"216 554 OFFCURVE",
"253 506 CURVE",
"254 473 LINE",
"254 425 OFFCURVE",
"249 197 OFFCURVE",
"197 197 CURVE SMOOTH",
"137 197 OFFCURVE",
"92 311 OFFCURVE",
"38 311 CURVE SMOOTH",
"25 311 OFFCURVE",
"14 307 OFFCURVE",
"10 291 CURVE",
"-6 237 OFFCURVE",
"193 163 OFFCURVE",
"216 122 CURVE SMOOTH",
"227 103 OFFCURVE",
"199 8 OFFCURVE",
"254 8 CURVE SMOOTH",
"272 8 OFFCURVE",
"282 96 OFFCURVE",
"285 106 CURVE",
"293 103 OFFCURVE",
"299 75 OFFCURVE",
"304 51 CURVE",
"310 0 LINE",
"323 -1 LINE"
);
},
{
closed = 1;
nodes = (
"229 155 OFFCURVE",
"304 378 OFFCURVE",
"319 469 CURVE",
"316 474 OFFCURVE",
"348 475 OFFCURVE",
"342 466 CURVE",
"342 457 LINE SMOOTH",
"342 450 OFFCURVE",
"301 177 OFFCURVE",
"301 171 CURVE"
);
},
{
closed = 1;
nodes = (
"381 123 OFFCURVE",
"369 130 OFFCURVE",
"366 131 CURVE",
"365 183 LINE SMOOTH",
"365 237 OFFCURVE",
"362 404 OFFCURVE",
"413 432 CURVE",
"472 390 OFFCURVE",
"508 347 OFFCURVE",
"508 273 CURVE SMOOTH",
"508 206 OFFCURVE",
"472 122 OFFCURVE",
"389 122 CURVE SMOOTH",
"385 122 LINE"
);
},
{
closed = 1;
nodes = (
"251 566 OFFCURVE",
"235 582 OFFCURVE",
"235 581 CURVE",
"207 594 OFFCURVE",
"206 604 OFFCURVE",
"206 626 CURVE SMOOTH",
"206 652 OFFCURVE",
"218 685 OFFCURVE",
"249 685 CURVE SMOOTH",
"261 685 OFFCURVE",
"272 663 OFFCURVE",
"272 651 CURVE SMOOTH",
"272 630 OFFCURVE",
"273 585 OFFCURVE",
"255 571 CURVE"
);
},
{
closed = 1;
nodes = (
"314 510 OFFCURVE",
"317 550 OFFCURVE",
"317 569 CURVE SMOOTH",
"317 619 OFFCURVE",
"318 647 OFFCURVE",
"329 704 CURVE",
"329 705 OFFCURVE",
"335 713 OFFCURVE",
"338 713 CURVE SMOOTH",
"346 713 OFFCURVE",
"380 716 OFFCURVE",
"385 716 CURVE",
"385 667 OFFCURVE",
"396 535 OFFCURVE",
"338 497 CURVE"
);
}
);
width = 581;
}
);
unicode = 0024;
},
{
color = 3;
glyphname = euro;
lastChange = "2016-08-31 21:41:13 +0000";
layers = (
{
layerId = UUID0;
paths = (
{
closed = 1;
nodes = (
"440 -1 OFFCURVE",
"715 36 OFFCURVE",
"715 81 CURVE SMOOTH",
"715 98 OFFCURVE",
"711 104 OFFCURVE",
"685 104 CURVE SMOOTH",
"582 104 OFFCURVE",
"471 56 OFFCURVE",
"366 56 CURVE SMOOTH",
"260 56 OFFCURVE",
"226 133 OFFCURVE",
"226 230 CURVE SMOOTH",
"226 250 OFFCURVE",
"230 270 OFFCURVE",
"253 272 CURVE",
"450 300 LINE SMOOTH",
"486 305 OFFCURVE",
"522 289 OFFCURVE",
"544 329 CURVE",
"525 354 OFFCURVE",
"494 348 OFFCURVE",
"470 348 CURVE SMOOTH",
"403 348 OFFCURVE",
"339 326 OFFCURVE",
"276 326 CURVE SMOOTH",
"261 326 OFFCURVE",
"253 331 OFFCURVE",
"253 346 CURVE SMOOTH",
"253 418 OFFCURVE",
"308 470 OFFCURVE",
"376 470 CURVE SMOOTH",
"408 470 OFFCURVE",
"419 460 OFFCURVE",
"445 460 CURVE SMOOTH",
"450 460 LINE SMOOTH",
"453 460 OFFCURVE",
"475 469 OFFCURVE",
"479 469 CURVE SMOOTH",
"488 469 LINE SMOOTH",
"493 469 OFFCURVE",
"522 460 OFFCURVE",
"525 460 CURVE SMOOTH",
"530 460 LINE SMOOTH",
"543 460 OFFCURVE",
"555 464 OFFCURVE",
"555 479 CURVE SMOOTH",
"555 518 OFFCURVE",
"437 540 OFFCURVE",
"403 543 CURVE",
"403 554 LINE SMOOTH",
"403 587 OFFCURVE",
"582 648 OFFCURVE",
"587 648 CURVE SMOOTH",
"613 648 OFFCURVE",
"620 614 OFFCURVE",
"638 600 CURVE",
"649 611 OFFCURVE",
"648 625 OFFCURVE",
"648 640 CURVE SMOOTH",
"648 678 OFFCURVE",
"618 695 OFFCURVE",
"584 695 CURVE SMOOTH",
"464 695 OFFCURVE",
"389 585 OFFCURVE",
"301 525 CURVE SMOOTH",
"229 476 OFFCURVE",
"-1 549 OFFCURVE",
"-1 430 CURVE",
"62 430 OFFCURVE",
"121 450 OFFCURVE",
"183 450 CURVE",
"191 451 OFFCURVE",
"216 448 OFFCURVE",
"216 449 CURVE",
"223 449 OFFCURVE",
"235 443 OFFCURVE",
"235 440 CURVE",
"188 310 LINE",
"186 309 OFFCURVE",
"167 301 OFFCURVE",
"159 300 CURVE",
"156 300 OFFCURVE",
"92 291 OFFCURVE",
"65 291 CURVE SMOOTH",
"57 291 LINE",
"42 289 OFFCURVE",
"11 282 OFFCURVE",
"10 281 CURVE",
"10 241 LINE",
"62 241 OFFCURVE",
"110 253 OFFCURVE",
"160 253 CURVE SMOOTH",
"204 253 OFFCURVE",
"144 -1 OFFCURVE",
"376 -1 CURVE SMOOTH"
);
}
);
width = 741;
}
);
unicode = 20AC;
},
{
color = 3;
glyphname = florin;
lastChange = "2016-08-30 17:03:42 +0000";
layers = (
{
layerId = UUID0;
paths = (
{
closed = 1;
nodes = (
"153 -165 OFFCURVE",
"177 63 OFFCURVE",
"174 273 CURVE",
"275 250 OFFCURVE",
"370 261 OFFCURVE",
"348 291 CURVE",
"349 304 OFFCURVE",
"343 311 OFFCURVE",
"329 311 CURVE",
"202 318 OFFCURVE",
"164 325 OFFCURVE",
"160 329 CURVE",
"156 464 LINE",
"156 474 LINE SMOOTH",
"156 557 OFFCURVE",
"201 648 OFFCURVE",
"288 648 CURVE SMOOTH",
"354 648 OFFCURVE",
"382 554 OFFCURVE",
"433 554 CURVE SMOOTH",
"455 554 LINE",
"455 625 OFFCURVE",
"349 704 OFFCURVE",
"277 704 CURVE SMOOTH",
"89 704 OFFCURVE",
"87 436 OFFCURVE",
"95 318 CURVE",
"63 315 OFFCURVE",
"-9 315 OFFCURVE",
"-9 272 CURVE SMOOTH",
"-9 262 OFFCURVE",
"-6 253 OFFCURVE",
"5 253 CURVE SMOOTH",
"10 253 LINE",
"24 255 OFFCURVE",
"91 268 OFFCURVE",
"104 272 CURVE",
"114 262 LINE",
"127 232 OFFCURVE",
"98 -108 OFFCURVE",
"102 -156 CURVE",
"98 -277 OFFCURVE",
"-59 -76 OFFCURVE",
"-58 -75 CURVE",
"-203 -75 OFFCURVE",
"161 -378 OFFCURVE",
"156 -210 CURVE"
);
}
);
width = 377;
}
);
unicode = 0192;
},
{
color = 3;
glyphname = sterling;
lastChange = "2016-08-30 17:03:42 +0000";
layers = (
{
layerId = UUID0;
paths = (
{
closed = 1;
nodes = (
"193 -2 OFFCURVE",
"229 57 OFFCURVE",
"300 57 CURVE SMOOTH",
"347 57 OFFCURVE",
"391 45 OFFCURVE",
"438 45 CURVE SMOOTH",
"470 45 OFFCURVE",
"506 46 OFFCURVE",
"534 65 CURVE",
"496 134 OFFCURVE",
"398 119 OFFCURVE",
"329 122 CURVE",
"310 131 LINE",
"375 251 OFFCURVE",
"335 395 OFFCURVE",
"493 395 CURVE SMOOTH",
"503 395 LINE SMOOTH",
"514 395 OFFCURVE",
"523 394 OFFCURVE",
"534 394 CURVE SMOOTH",
"544 394 LINE",
"556 383 OFFCURVE",
"565 383 OFFCURVE",
"578 383 CURVE SMOOTH",
"599 383 OFFCURVE",
"602 401 OFFCURVE",
"602 418 CURVE SMOOTH",
"602 431 OFFCURVE",
"601 449 OFFCURVE",
"582 449 CURVE SMOOTH",
"413 449 LINE",
"403 460 LINE",
"404 465 LINE SMOOTH",
"406 476 OFFCURVE",
"409 498 OFFCURVE",
"413 506 CURVE",
"441 603 OFFCURVE",
"477 666 OFFCURVE",
"583 666 CURVE SMOOTH",
"687 666 OFFCURVE",
"685 552 OFFCURVE",
"713 552 CURVE SMOOTH",
"729 552 OFFCURVE",
"731 570 OFFCURVE",
"731 586 CURVE SMOOTH",
"731 670 OFFCURVE",
"656 723 OFFCURVE",
"581 723 CURVE SMOOTH",
"346 723 OFFCURVE",
"420 444 OFFCURVE",
"282 423 CURVE",
"272 423 LINE",
"150 394 LINE SMOOTH",
"146 393 OFFCURVE",
"133 379 OFFCURVE",
"132 375 CURVE",
"132 366 LINE",
"133 362 OFFCURVE",
"139 350 OFFCURVE",
"142 347 CURVE",
"145 347 LINE SMOOTH",
"192 347 OFFCURVE",
"236 367 OFFCURVE",
"283 367 CURVE SMOOTH",
"297 367 LINE SMOOTH",
"313 367 OFFCURVE",
"329 360 OFFCURVE",
"329 344 CURVE SMOOTH",
"329 283 OFFCURVE",
"281 152 OFFCURVE",
"235 122 CURVE",
"178 130 OFFCURVE",
"147 132 OFFCURVE",
"97 132 CURVE SMOOTH",
"63 132 OFFCURVE",
"10 131 OFFCURVE",
"10 85 CURVE SMOOTH",
"10 22 OFFCURVE",
"71 -2 OFFCURVE",
"123 -2 CURVE SMOOTH"
);
}
);
width = 760;
}
);
unicode = 00A3;
},
{
color = 3;
glyphname = yen;
lastChange = "2016-08-30 17:03:42 +0000";
layers = (
{
layerId = UUID0;
paths = (
{
closed = 1;
nodes = (
"219 -3 LINE",
"229 161 LINE",
"298 160 LINE",
"335 180 LINE",
"324 212 OFFCURVE",
"277 221 OFFCURVE",
"232 221 CURVE",
"237 281 LINE",
"321 274 LINE",
"322 274 OFFCURVE",
"323 274 OFFCURVE",
"324 275 CURVE",
"325 275 OFFCURVE",
"325 275 OFFCURVE",
"326 276 CURVE",
"333 280 OFFCURVE",
"346 293 OFFCURVE",
"346 294 CURVE SMOOTH",
"346 314 OFFCURVE",
"298 325 OFFCURVE",
"240 330 CURVE",
"243 378 LINE",
"385 663 LINE",
"419 702 OFFCURVE",
"404 723 OFFCURVE",
"342 695 CURVE",
"289 604 OFFCURVE",
"242 531 OFFCURVE",
"219 452 CURVE",
"117 534 OFFCURVE",
"157 703 OFFCURVE",
"66 747 CURVE",
"64 747 LINE",
"63 747 LINE",
"62 748 LINE",
"50 748 OFFCURVE",
"41 727 OFFCURVE",
"38 719 CURVE",
"188 373 LINE",
"185 333 LINE",
"87 336 OFFCURVE",
"-14 326 OFFCURVE",
"16 321 CURVE",
"16 301 OFFCURVE",
"35 297 OFFCURVE",
"51 297 CURVE",
"180 285 LINE",
"173 218 LINE",
"104 218 LINE",
"101 217 LINE",
"44 212 LINE",
"41 212 OFFCURVE",
"34 205 OFFCURVE",
"34 201 CURVE SMOOTH",
"34 165 OFFCURVE",
"56 164 OFFCURVE",
"91 164 CURVE SMOOTH",
"167 162 LINE",
"150 -6 LINE"
);
}
);
width = 390;
}
);
unicode = 00A5;
},
{
color = 3;
glyphname = plus;
lastChange = "2016-08-30 17:03:42 +0000";
layers = (
{
layerId = UUID0;
paths = (
{
closed = 1;
nodes = (
"232 -1 LINE SMOOTH",
"233 -1 OFFCURVE",
"234 -1 OFFCURVE",
"235 0 CURVE",
"242 4 OFFCURVE",
"262 19 OFFCURVE",
"263 19 CURVE",
"263 188 LINE",
"413 188 LINE SMOOTH",
"419 188 OFFCURVE",
"440 217 OFFCURVE",
"440 225 CURVE SMOOTH",
"440 242 OFFCURVE",
"403 244 OFFCURVE",
"395 244 CURVE",
"354 247 OFFCURVE",
"254 262 OFFCURVE",
"253 262 CURVE",
"244 272 LINE",
"207 403 LINE",
"188 423 LINE",
"183 423 LINE",
"181 423 LINE",
"179 423 LINE",
"175 419 OFFCURVE",
"162 407 OFFCURVE",
"159 403 CURVE",
"159 399 LINE SMOOTH",
"159 357 OFFCURVE",
"180 316 OFFCURVE",
"180 276 CURVE SMOOTH",
"180 271 OFFCURVE",
"182 244 OFFCURVE",
"169 244 CURVE",
"148 239 OFFCURVE",
"49 221 OFFCURVE",
"28 216 CURVE SMOOTH",
"9 211 OFFCURVE",
"7 208 OFFCURVE",
"7 191 CURVE SMOOTH",
"7 180 OFFCURVE",
"9 168 OFFCURVE",
"28 168 CURVE SMOOTH",
"78 168 OFFCURVE",
"126 188 OFFCURVE",
"179 188 CURVE SMOOTH",
"188 188 LINE",
"207 74 LINE",
"210 62 OFFCURVE",
"199 -1 OFFCURVE",
"229 -1 CURVE SMOOTH"
);
}
);
width = 460;
}
);
unicode = 002B;
},
{
color = 3;
glyphname = minus;
lastChange = "2016-08-30 17:03:42 +0000";
layers = (
{
layerId = UUID0;
paths = (
{
closed = 1;
nodes = (
"91 241 OFFCURVE",
"99 262 OFFCURVE",
"175 262 CURVE SMOOTH",
"205 262 OFFCURVE",
"227 250 OFFCURVE",
"255 250 CURVE SMOOTH",
"268 250 OFFCURVE",
"273 257 OFFCURVE",
"273 271 CURVE SMOOTH",
"273 318 OFFCURVE",
"221 317 OFFCURVE",
"183 317 CURVE SMOOTH",
"160 317 LINE",
"90 307 OFFCURVE",
"15 333 OFFCURVE",
"15 241 CURVE"
);
}
);
width = 288;
}
);
unicode = 2212;
},
{
color = 3;
glyphname = multiply;
lastChange = "2016-08-30 17:03:42 +0000";
layers = (
{
layerId = UUID0;
paths = (
{
closed = 1;
nodes = (
"173 116 OFFCURVE",
"185 146 OFFCURVE",
"200 148 CURVE",
"272 68 OFFCURVE",
"217 128 OFFCURVE",
"272 64 CURVE",
"293 80 OFFCURVE",
"313 88 OFFCURVE",
"320 104 CURVE",
"266 148 OFFCURVE",
"289 142 OFFCURVE",
"233 192 CURVE",
"272 236 OFFCURVE",
"345 270 OFFCURVE",
"345 288 CURVE",
"325 384 OFFCURVE",
"269 252 OFFCURVE",
"191 240 CURVE",
"139 268 OFFCURVE",
"152 271 OFFCURVE",
"96 323 CURVE",
"86 323 OFFCURVE",
"48 308 OFFCURVE",
"51 288 CURVE",
"108 241 OFFCURVE",
"104 234 OFFCURVE",
"149 192 CURVE",
"150 188 LINE",
"150 147 OFFCURVE",
"101 141 OFFCURVE",
"77 81 CURVE",
"77 69 OFFCURVE",
"101 59 OFFCURVE",
"112 59 CURVE"
);
}
);
width = 448;
}
);
unicode = 00D7;
},
{
color = 3;
glyphname = equal;
lastChange = "2016-08-30 17:03:42 +0000";
layers = (
{
layerId = UUID0;
paths = (
{
closed = 1;
nodes = (
"476 309 LINE SMOOTH",
"477 309 OFFCURVE",
"478 309 OFFCURVE",
"479 310 CURVE SMOOTH",
"482 313 OFFCURVE",
"497 325 OFFCURVE",
"497 329 CURVE SMOOTH",
"497 388 OFFCURVE",
"423 385 OFFCURVE",
"385 385 CURVE SMOOTH",
"250 385 OFFCURVE",
"45 400 OFFCURVE",
"19 352 CURVE",
"19 331 OFFCURVE",
"38 326 OFFCURVE",
"54 326 CURVE",
"286 315 OFFCURVE",
"336 338 OFFCURVE",
"396 338 CURVE SMOOTH",
"425 338 OFFCURVE",
"446 309 OFFCURVE",
"473 309 CURVE SMOOTH"
);
},
{
closed = 1;
nodes = (
"432 131 LINE",
"469 150 LINE",
"447 206 OFFCURVE",
"333 188 OFFCURVE",
"288 188 CURVE SMOOTH",
"190 188 OFFCURVE",
"139 187 OFFCURVE",
"28 179 CURVE",
"25 179 OFFCURVE",
"19 172 OFFCURVE",
"19 168 CURVE SMOOTH",
"19 133 OFFCURVE",
"43 131 OFFCURVE",
"74 131 CURVE SMOOTH"
);
}
);
width = 525;
}
);
unicode = 003D;
},
{
color = 3;
glyphname = greater;
lastChange = "2016-08-30 17:03:42 +0000";
layers = (
{
layerId = UUID0;
paths = (
{
closed = 1;
nodes = (
"63 -1 OFFCURVE",
"307 179 OFFCURVE",
"329 197 CURVE",
"357 229 OFFCURVE",
"406 255 OFFCURVE",
"396 303 CURVE",
"396 318 OFFCURVE",
"396 330 OFFCURVE",
"376 338 CURVE",
"301 349 OFFCURVE",
"220 379 OFFCURVE",
"150 403 CURVE SMOOTH",
"110 417 OFFCURVE",
"100 461 OFFCURVE",
"57 461 CURVE SMOOTH",
"42 461 OFFCURVE",
"27 457 OFFCURVE",
"27 440 CURVE",
"28 432 LINE",
"47 375 OFFCURVE",
"229 304 OFFCURVE",
"301 300 CURVE",
"396 265 OFFCURVE",
"40 80 OFFCURVE",
"27 33 CURVE",
"27 17 OFFCURVE",
"28 -1 OFFCURVE",
"51 -1 CURVE SMOOTH"
);
}
);
width = 403;
}
);
unicode = 003E;
},
{
color = 3;
glyphname = less;
lastChange = "2016-08-30 17:03:42 +0000";
layers = (
{
layerId = UUID0;
paths = (
{
closed = 1;
nodes = (
"416 0 OFFCURVE",
"425 8 OFFCURVE",
"425 23 CURVE SMOOTH",
"425 75 OFFCURVE",
"306 89 OFFCURVE",
"272 94 CURVE",
"258 94 OFFCURVE",
"111 116 OFFCURVE",
"104 131 CURVE",
"150 186 OFFCURVE",
"226 223 OFFCURVE",
"282 262 CURVE",
"297 276 OFFCURVE",
"460 378 OFFCURVE",
"460 385 CURVE",
"456 389 OFFCURVE",
"438 410 OFFCURVE",
"432 412 CURVE",
"401 399 OFFCURVE",
"355 376 OFFCURVE",
"329 355 CURVE",
"255 309 OFFCURVE",
"81 182 OFFCURVE",
"75 179 CURVE",
"10 112 LINE",
"-52 57 OFFCURVE",
"282 38 OFFCURVE",
"319 28 CURVE",
"346 23 OFFCURVE",
"372 0 OFFCURVE",
"399 0 CURVE SMOOTH"
);
}
);
width = 487;
}
);
unicode = 003C;
},
{
color = 3;
glyphname = plusminus;
lastChange = "2016-08-30 17:03:42 +0000";
layers = (
{
layerId = UUID0;
paths = (
{
closed = 1;
nodes = (
"134 30 OFFCURVE",
"205 53 OFFCURVE",
"281 53 CURVE SMOOTH",
"311 53 OFFCURVE",
"391 50 OFFCURVE",
"417 50 CURVE SMOOTH",
"430 50 OFFCURVE",
"437 57 OFFCURVE",
"437 69 CURVE SMOOTH",
"437 116 OFFCURVE",
"325 108 OFFCURVE",
"289 108 CURVE",
"271 107 LINE",
"271 245 LINE",
"420 245 LINE SMOOTH",
"427 245 OFFCURVE",
"448 275 OFFCURVE",
"448 282 CURVE SMOOTH",
"448 300 OFFCURVE",
"410 302 OFFCURVE",
"402 302 CURVE",
"371 304 OFFCURVE",
"309 312 OFFCURVE",
"276 317 CURVE",
"261 320 LINE",
"252 330 LINE",
"215 461 LINE",
"206 470 LINE SMOOTH",
"201 475 OFFCURVE",
"198 478 OFFCURVE",
"195 479 CURVE",
"193 479 LINE",
"191 479 LINE",
"190 480 LINE",
"188 479 LINE",
"186 479 LINE SMOOTH",
"182 479 OFFCURVE",
"168 465 OFFCURVE",
"167 461 CURVE",
"167 458 LINE SMOOTH",
"167 415 OFFCURVE",
"187 375 OFFCURVE",
"187 334 CURVE SMOOTH",
"187 328 OFFCURVE",
"190 304 OFFCURVE",
"177 302 CURVE",
"156 297 OFFCURVE",
"56 278 OFFCURVE",
"36 273 CURVE",
"17 270 OFFCURVE",
"15 266 OFFCURVE",
"15 250 CURVE SMOOTH",
"15 237 OFFCURVE",
"17 227 OFFCURVE",
"36 227 CURVE SMOOTH",
"84 227 OFFCURVE",
"136 245 OFFCURVE",
"186 245 CURVE SMOOTH",
"195 245 LINE",
"200 229 OFFCURVE",
"212 149 OFFCURVE",
"215 133 CURVE",
"215 126 OFFCURVE",
"214 115 OFFCURVE",
"215 101 CURVE",
"124 93 OFFCURVE",
"30 77 OFFCURVE",
"57 30 CURVE"
);
}
);
width = 460;
}
);
unicode = 00B1;
},
{
color = 3;
glyphname = asciitilde;
lastChange = "2016-08-30 17:03:42 +0000";
layers = (
{
layerId = UUID0;
paths = (
{
closed = 1;
nodes = (
"104 333 OFFCURVE",
"15 508 OFFCURVE",
"127 500 CURVE",
"181 475 OFFCURVE",
"217 413 OFFCURVE",
"284 438 CURVE",
"313 446 OFFCURVE",
"265 423 OFFCURVE",
"367 511 CURVE",
"374 518 OFFCURVE",
"375 539 OFFCURVE",
"343 542 CURVE",
"282 495 LINE",
"282 492 OFFCURVE",
"272 490 OFFCURVE",
"268 487 CURVE",
"247 479 OFFCURVE",
"235 480 OFFCURVE",
"212 495 CURVE",
"129 545 OFFCURVE",
"111 543 OFFCURVE",
"106 540 CURVE",
"53 540 OFFCURVE",
"4 486 OFFCURVE",
"27 425 CURVE"
);
}
);
width = 402;
}
);
unicode = 007E;
},
{
color = 3;
glyphname = logicalnot;
lastChange = "2016-08-30 17:03:42 +0000";
layers = (
{
layerId = UUID0;
paths = (
{
closed = 1;
nodes = (
"336 269 OFFCURVE",
"344 311 OFFCURVE",
"344 334 CURVE SMOOTH",
"344 401 LINE",
"50 399 LINE SMOOTH",
"38 399 OFFCURVE",
"33 351 OFFCURVE",
"33 345 CURVE SMOOTH",
"33 342 OFFCURVE",
"278 360 OFFCURVE",
"297 342 CURVE",
"298 335 OFFCURVE",
"297 328 OFFCURVE",
"296 320 CURVE",
"291 297 LINE",
"286 266 OFFCURVE",
"282 238 OFFCURVE",
"336 255 CURVE"
);
}
);
width = 369;
}
);
unicode = 00AC;
},
{
color = 3;
glyphname = micro;
lastChange = "2016-08-31 21:42:28 +0000";
layers = (
{
layerId = UUID0;
paths = (
{
closed = 1;
nodes = (
"65 -58 LINE",
"68 143 LINE",
"70 131 OFFCURVE",
"74 120 OFFCURVE",
"80 109 CURVE SMOOTH",
"98 74 OFFCURVE",
"139 48 OFFCURVE",
"222 30 CURVE",
"323 41 OFFCURVE",
"348 112 OFFCURVE",
"375 142 CURVE",
"417 67 OFFCURVE",
"411 0 OFFCURVE",
"457 5 CURVE",
"474 5 OFFCURVE",
"486 6 OFFCURVE",
"486 25 CURVE SMOOTH",
"486 51 OFFCURVE",
"445 135 OFFCURVE",
"432 188 CURVE",
"421 214 OFFCURVE",
"436 424 OFFCURVE",
"385 424 CURVE SMOOTH",
"372 424 OFFCURVE",
"363 418 OFFCURVE",
"355 403 CURVE",
"355 244 LINE SMOOTH",
"355 198 OFFCURVE",
"271 94 OFFCURVE",
"225 94 CURVE SMOOTH",
"114 94 OFFCURVE",
"65 285 OFFCURVE",
"65 366 CURVE SMOOTH",
"65 374 OFFCURVE",
"71 413 OFFCURVE",
"74 423 CURVE",
"95 504 OFFCURVE",
"-5 490 OFFCURVE",
"17 349 CURVE",
"15 -63 LINE"
);
}
);
width = 502;
}
);
unicode = 00B5;
},
{
color = 3;
glyphname = percent;
lastChange = "2016-08-30 17:03:42 +0000";
layers = (
{
layerId = UUID0;
paths = (
{
closed = 1;
nodes = (
"192 -1 OFFCURVE",
"313 262 OFFCURVE",
"338 300 CURVE",
"390 422 OFFCURVE",
"473 479 OFFCURVE",
"535 581 CURVE",
"535 586 OFFCURVE",
"538 610 OFFCURVE",
"525 610 CURVE SMOOTH",
"490 610 OFFCURVE",
"142 128 OFFCURVE",
"142 28 CURVE SMOOTH",
"142 16 OFFCURVE",
"144 -1 OFFCURVE",
"159 -1 CURVE SMOOTH"
);
},
{
closed = 1;
nodes = (
"72 346 OFFCURVE",
"65 384 OFFCURVE",
"65 408 CURVE SMOOTH",
"65 443 OFFCURVE",
"93 487 OFFCURVE",
"136 487 CURVE SMOOTH",
"175 487 OFFCURVE",
"216 452 OFFCURVE",
"216 412 CURVE SMOOTH",
"216 368 OFFCURVE",
"141 327 OFFCURVE",
"104 338 CURVE"
);
},
{
closed = 1;
nodes = (
"199 289 OFFCURVE",
"264 354 OFFCURVE",
"264 423 CURVE SMOOTH",
"264 492 OFFCURVE",
"191 544 OFFCURVE",
"130 544 CURVE SMOOTH",
"62 544 OFFCURVE",
"9 470 OFFCURVE",
"9 403 CURVE SMOOTH",
"9 342 OFFCURVE",
"74 289 OFFCURVE",
"132 289 CURVE SMOOTH"
);
},
{
closed = 1;
nodes = (
"426 64 OFFCURVE",
"414 63 OFFCURVE",
"403 74 CURVE",
"402 79 OFFCURVE",
"402 94 OFFCURVE",
"402 98 CURVE SMOOTH",
"402 145 OFFCURVE",
"447 244 OFFCURVE",
"507 244 CURVE SMOOTH",
"540 244 OFFCURVE",
"555 197 OFFCURVE",
"555 171 CURVE SMOOTH",
"555 112 OFFCURVE",
"497 64 OFFCURVE",
"440 64 CURVE SMOOTH"
);
},
{
closed = 1;
nodes = (
"533 8 OFFCURVE",
"610 102 OFFCURVE",
"610 177 CURVE SMOOTH",
"610 231 OFFCURVE",
"565 301 OFFCURVE",
"507 301 CURVE SMOOTH",
"425 301 OFFCURVE",
"355 168 OFFCURVE",
"355 98 CURVE SMOOTH",
"355 36 OFFCURVE",
"398 8 OFFCURVE",
"455 8 CURVE SMOOTH"
);
}
);
width = 637;
}
);
unicode = 0025;
},
{
color = 3;
glyphname = at;
lastChange = "2016-08-30 17:03:42 +0000";
layers = (
{
layerId = UUID0;
paths = (
{
closed = 1;
nodes = (
"552 -12 OFFCURVE",
"785 23 OFFCURVE",
"745 95 CURVE",
"653 95 OFFCURVE",
"564 45 OFFCURVE",
"469 45 CURVE SMOOTH",
"252 45 OFFCURVE",
"56 300 OFFCURVE",
"56 509 CURVE SMOOTH",
"56 670 OFFCURVE",
"213 831 OFFCURVE",
"375 844 CURVE",
"503 824 OFFCURVE",
"749 730 OFFCURVE",
"741 514 CURVE",
"741 462 OFFCURVE",
"709 330 OFFCURVE",
"637 310 CURVE",
"615 305 OFFCURVE",
"575 350 OFFCURVE",
"572 355 CURVE",
"572 368 OFFCURVE",
"589 498 OFFCURVE",
"534 498 CURVE SMOOTH",
"482 498 OFFCURVE",
"493 368 OFFCURVE",
"497 355 CURVE",
"474 315 OFFCURVE",
"412 262 OFFCURVE",
"361 262 CURVE SMOOTH",
"291 262 OFFCURVE",
"262 308 OFFCURVE",
"262 370 CURVE SMOOTH",
"262 473 OFFCURVE",
"324 582 OFFCURVE",
"441 582 CURVE SMOOTH",
"519 582 OFFCURVE",
"563 541 OFFCURVE",
"600 479 CURVE",
"615 487 OFFCURVE",
"628 506 OFFCURVE",
"628 525 CURVE SMOOTH",
"628 588 OFFCURVE",
"497 629 OFFCURVE",
"455 629 CURVE SMOOTH",
"313 629 OFFCURVE",
"215 504 OFFCURVE",
"215 370 CURVE SMOOTH",
"215 285 OFFCURVE",
"272 206 OFFCURVE",
"366 206 CURVE SMOOTH",
"430 206 OFFCURVE",
"498 264 OFFCURVE",
"534 310 CURVE",
"558 283 OFFCURVE",
"591 253 OFFCURVE",
"628 253 CURVE SMOOTH",
"752 253 OFFCURVE",
"788 424 OFFCURVE",
"788 517 CURVE SMOOTH",
"788 558 OFFCURVE",
"784 638 OFFCURVE",
"760 675 CURVE",
"688 773 OFFCURVE",
"511 892 OFFCURVE",
"382 892 CURVE SMOOTH",
"184 892 OFFCURVE",
"19 690 OFFCURVE",
"19 505 CURVE",
"21 264 OFFCURVE",
"160 88 OFFCURVE",
"375 0 CURVE"
);
}
);
width = 815;
}
);
unicode = 0040;
},
{
color = 3;
glyphname = ampersand;
lastChange = "2016-08-30 17:03:42 +0000";
layers = (
{
layerId = UUID0;
paths = (
{
closed = 1;
nodes = (
"199 -2 OFFCURVE",
"225 113 OFFCURVE",
"268 113 CURVE",
"268 112 OFFCURVE",
"268 112 OFFCURVE",
"269 112 CURVE SMOOTH",
"272 112 LINE",
"355 16 LINE",
"367 15 OFFCURVE",
"380 13 OFFCURVE",
"385 25 CURVE",
"369 52 OFFCURVE",
"300 132 OFFCURVE",
"300 168 CURVE SMOOTH",
"300 174 LINE SMOOTH",
"300 176 OFFCURVE",
"300 178 OFFCURVE",
"301 179 CURVE",
"342 232 OFFCURVE",
"328 276 OFFCURVE",
"362 352 CURVE",
"374 350 OFFCURVE",
"405 354 OFFCURVE",
"418 356 CURVE",
"435 357 OFFCURVE",
"438 363 OFFCURVE",
"438 376 CURVE SMOOTH",
"438 425 OFFCURVE",
"396 404 OFFCURVE",
"364 404 CURVE SMOOTH",
"352 404 OFFCURVE",
"313 409 OFFCURVE",
"301 394 CURVE",
"297 371 OFFCURVE",
"305 264 OFFCURVE",
"263 244 CURVE",
"244 244 LINE",
"221 280 OFFCURVE",
"196 335 OFFCURVE",
"196 375 CURVE",
"197 385 LINE",
"241 460 OFFCURVE",
"264 506 OFFCURVE",
"264 587 CURVE SMOOTH",
"264 631 OFFCURVE",
"242 707 OFFCURVE",
"179 693 CURVE SMOOTH",
"163 690 OFFCURVE",
"150 658 OFFCURVE",
"150 647 CURVE SMOOTH",
"150 621 OFFCURVE",
"142 495 OFFCURVE",
"142 469 CURVE SMOOTH",
"142 412 LINE",
"118 293 OFFCURVE",
"10 207 OFFCURVE",
"10 74 CURVE SMOOTH",
"10 48 OFFCURVE",
"46 17 OFFCURVE",
"65 0 CURVE",
"72 0 OFFCURVE",
"102 -2 OFFCURVE",
"107 -2 CURVE SMOOTH"
);
},
{
closed = 1;
nodes = (
"83 43 OFFCURVE",
"65 80 OFFCURVE",
"65 94 CURVE SMOOTH",
"65 113 OFFCURVE",
"121 292 OFFCURVE",
"169 300 CURVE",
"183 260 OFFCURVE",
"227 206 OFFCURVE",
"227 168 CURVE SMOOTH",
"227 130 OFFCURVE",
"140 53 OFFCURVE",
"104 48 CURVE"
);
}
);
width = 457;
}
);
unicode = 0026;
},
{
color = 3;
glyphname = paragraph;
lastChange = "2016-08-30 17:03:42 +0000";
layers = (
{
layerId = UUID0;
paths = (
{
closed = 1;
nodes = (
"259 -15 OFFCURVE",
"276 -12 OFFCURVE",
"276 3 CURVE",
"269 21 OFFCURVE",
"259 228 OFFCURVE",
"282 405 CURVE",
"286 401 OFFCURVE",
"299 411 OFFCURVE",
"303 408 CURVE SMOOTH",
"336 383 OFFCURVE",
"303 91 OFFCURVE",
"322 -15 CURVE",
"391 -114 OFFCURVE",
"392 341 OFFCURVE",
"351 479 CURVE",
"330 523 OFFCURVE",
"254 508 OFFCURVE",
"161 508 CURVE SMOOTH",
"74 508 OFFCURVE",
"19 433 OFFCURVE",
"19 348 CURVE SMOOTH",
"19 219 OFFCURVE",
"113 279 OFFCURVE",
"207 264 CURVE",
"237 256 OFFCURVE",
"194 -15 OFFCURVE",
"238 -15 CURVE SMOOTH"
);
}
);
width = 414;
}
);
unicode = 00B6;
},
{
color = 3;
glyphname = section;
lastChange = "2016-08-30 17:03:42 +0000";
layers = (
{
layerId = UUID0;
paths = (
{
closed = 1;
nodes = (
"393 0 OFFCURVE",
"486 36 OFFCURVE",
"486 117 CURVE SMOOTH",
"486 169 OFFCURVE",
"462 200 OFFCURVE",
"427 220 CURVE",
"470 237 OFFCURVE",
"506 271 OFFCURVE",
"506 320 CURVE SMOOTH",
"506 535 OFFCURVE",
"111 392 OFFCURVE",
"111 546 CURVE",
"104 612 OFFCURVE",
"298 623 OFFCURVE",
"356 561 CURVE",
"442 479 OFFCURVE",
"497 508 OFFCURVE",
"411 594 CURVE",
"305 688 OFFCURVE",
"75 688 OFFCURVE",
"56 563 CURVE",
"57 499 OFFCURVE",
"84 464 OFFCURVE",
"127 443 CURVE",
"80 431 OFFCURVE",
"43 401 OFFCURVE",
"35 358 CURVE",
"27 207 OFFCURVE",
"202 203 OFFCURVE",
"308 203 CURVE",
"372 195 OFFCURVE",
"420 177 OFFCURVE",
"420 123 CURVE SMOOTH",
"420 45 OFFCURVE",
"305 56 OFFCURVE",
"251 56 CURVE SMOOTH",
"165 56 OFFCURVE",
"130 96 OFFCURVE",
"68 132 CURVE",
"58 137 OFFCURVE",
"51 130 OFFCURVE",
"39 122 CURVE",
"88 1 OFFCURVE",
"227 0 OFFCURVE",
"325 0 CURVE SMOOTH"
);
},
{
closed = 1;
nodes = (
"187 259 OFFCURVE",
"126 268 OFFCURVE",
"95 317 CURVE",
"110 391 OFFCURVE",
"104 397 OFFCURVE",
"332 405 CURVE",
"395 397 OFFCURVE",
"440 378 OFFCURVE",
"440 326 CURVE SMOOTH",
"440 248 OFFCURVE",
"325 259 OFFCURVE",
"271 259 CURVE SMOOTH"
);
}
);
width = 515;
}
);
unicode = 00A7;
},
{
color = 3;
glyphname = copyright;
lastChange = "2016-08-30 17:03:42 +0000";
layers = (
{
layerId = UUID0;
paths = (
{
closed = 1;
nodes = (
"421 12 OFFCURVE",
"625 35 OFFCURVE",
"652 169 CURVE",
"668 415 OFFCURVE",
"469 582 OFFCURVE",
"251 555 CURVE",
"138 547 OFFCURVE",
"30 384 OFFCURVE",
"34 270 CURVE",
"34 105 OFFCURVE",
"152 -4 OFFCURVE",
"313 -4 CURVE"
);
},
{
closed = 1;
nodes = (
"402 89 OFFCURVE",
"502 91 OFFCURVE",
"502 135 CURVE",
"501 136 LINE",
"501 138 LINE",
"501 140 LINE",
"498 143 OFFCURVE",
"486 149 OFFCURVE",
"481 149 CURVE",
"354 157 OFFCURVE",
"239 91 OFFCURVE",
"224 242 CURVE",
"224 308 OFFCURVE",
"221 363 OFFCURVE",
"320 402 CURVE",
"387 402 OFFCURVE",
"420 356 OFFCURVE",
"420 294 CURVE",
"433 294 OFFCURVE",
"448 353 OFFCURVE",
"448 364 CURVE SMOOTH",
"448 429 OFFCURVE",
"371 449 OFFCURVE",
"320 449 CURVE",
"210 411 OFFCURVE",
"168 330 OFFCURVE",
"168 244 CURVE",
"179 108 OFFCURVE",
"237 102 OFFCURVE",
"380 89 CURVE"
);
},
{
closed = 1;
nodes = (
"199 63 OFFCURVE",
"78 154 OFFCURVE",
"81 273 CURVE SMOOTH",
"81 324 OFFCURVE",
"130 466 OFFCURVE",
"212 493 CURVE",
"320 541 OFFCURVE",
"622 429 OFFCURVE",
"603 186 CURVE",
"603 93 OFFCURVE",
"356 48 OFFCURVE",
"305 48 CURVE"
);
}
);
width = 669;
}
);
unicode = 00A9;
},
{
color = 3;
glyphname = registered;
lastChange = "2016-08-30 17:03:42 +0000";
layers = (
{
layerId = UUID0;
paths = (
{
closed = 1;
nodes = (
"421 29 OFFCURVE",
"627 53 OFFCURVE",
"654 188 CURVE",
"666 433 OFFCURVE",
"472 600 OFFCURVE",
"253 572 CURVE",
"144 564 OFFCURVE",
"28 401 OFFCURVE",
"36 287 CURVE",
"36 124 OFFCURVE",
"153 14 OFFCURVE",
"314 14 CURVE"
);
},
{
closed = 1;
nodes = (
"199 81 OFFCURVE",
"80 174 OFFCURVE",
"83 291 CURVE SMOOTH",
"83 344 OFFCURVE",
"132 482 OFFCURVE",
"213 511 CURVE",
"322 558 OFFCURVE",
"624 447 OFFCURVE",
"604 204 CURVE",
"604 162 OFFCURVE",
"555 129 OFFCURVE",
"497 106 CURVE",
"472 124 OFFCURVE",
"439 146 OFFCURVE",
"372 200 CURVE SMOOTH",
"295 258 LINE",
"298 257 OFFCURVE",
"303 256 OFFCURVE",
"310 256 CURVE",
"362 253 OFFCURVE",
"506 270 OFFCURVE",
"506 352 CURVE SMOOTH",
"506 424 OFFCURVE",
"394 452 OFFCURVE",
"320 452 CURVE SMOOTH",
"272 452 OFFCURVE",
"247 448 OFFCURVE",
"190 440 CURVE",
"170 433 OFFCURVE",
"146 416 OFFCURVE",
"146 396 CURVE SMOOTH",
"146 386 OFFCURVE",
"159 345 OFFCURVE",
"174 345 CURVE",
"174 404 OFFCURVE",
"243 408 OFFCURVE",
"294 408 CURVE SMOOTH",
"368 408 OFFCURVE",
"414 419 OFFCURVE",
"438 372 CURVE",
"429 333 LINE SMOOTH",
"421 293 OFFCURVE",
"332 300 OFFCURVE",
"294 300 CURVE",
"291 305 OFFCURVE",
"285 348 OFFCURVE",
"285 354 CURVE",
"288 370 OFFCURVE",
"262 383 OFFCURVE",
"238 372 CURVE",
"219 309 OFFCURVE",
"258 95 OFFCURVE",
"268 111 CURVE",
"318 98 OFFCURVE",
"306 147 OFFCURVE",
"282 222 CURVE",
"321 188 OFFCURVE",
"399 124 OFFCURVE",
"455 93 CURVE",
"395 75 OFFCURVE",
"330 65 OFFCURVE",
"306 65 CURVE"
);
}
);
width = 708;
}
);
unicode = 00AE;
},
{
color = 3;
glyphname = trademark;
lastChange = "2016-08-30 17:03:42 +0000";
layers = (
{
layerId = UUID0;
paths = (
{
closed = 1;
nodes = (
"1073 -2 OFFCURVE",
"1088 -3 OFFCURVE",
"1088 19 CURVE SMOOTH",
"1088 150 OFFCURVE",
"1039 280 OFFCURVE",
"1039 412 CURVE SMOOTH",
"1039 463 OFFCURVE",
"1051 505 OFFCURVE",
"1051 555 CURVE SMOOTH",
"1051 566 OFFCURVE",
"1050 613 OFFCURVE",
"1022 610 CURVE",
"967 622 OFFCURVE",
"989 412 OFFCURVE",
"831 420 CURVE",
"706 420 OFFCURVE",
"717 610 OFFCURVE",
"619 610 CURVE SMOOTH",
"605 610 OFFCURVE",
"599 604 OFFCURVE",
"599 591 CURVE SMOOTH",
"599 584 OFFCURVE",
"600 578 OFFCURVE",
"602 572 CURVE",
"444 607 OFFCURVE",
"64 611 OFFCURVE",
"3 611 CURVE",
"3 601 OFFCURVE",
"5 567 OFFCURVE",
"28 572 CURVE",
"117 558 OFFCURVE",
"216 543 OFFCURVE",
"309 543 CURVE",
"319 396 OFFCURVE",
"326 273 OFFCURVE",
"347 131 CURVE",
"354 95 OFFCURVE",
"354 -1 OFFCURVE",
"407 -1 CURVE SMOOTH",
"420 -1 LINE SMOOTH",
"435 -1 OFFCURVE",
"451 2 OFFCURVE",
"451 19 CURVE SMOOTH",
"451 50 OFFCURVE",
"419 80 OFFCURVE",
"413 112 CURVE SMOOTH",
"390 245 OFFCURVE",
"360 416 OFFCURVE",
"360 537 CURVE",
"458 566 OFFCURVE",
"545 514 OFFCURVE",
"635 506 CURVE",
"643 493 OFFCURVE",
"648 477 OFFCURVE",
"648 461 CURVE SMOOTH",
"648 375 OFFCURVE",
"637 292 OFFCURVE",
"637 206 CURVE SMOOTH",
"637 66 LINE",
"640 50 OFFCURVE",
"646 27 OFFCURVE",
"665 27 CURVE SMOOTH",
"677 27 OFFCURVE",
"697 32 OFFCURVE",
"697 48 CURVE SMOOTH",
"698 375 LINE SMOOTH",
"698 391 OFFCURVE",
"694 426 OFFCURVE",
"707 426 CURVE",
"745 379 OFFCURVE",
"783 355 OFFCURVE",
"821 355 CURVE SMOOTH",
"875 355 OFFCURVE",
"918 369 OFFCURVE",
"966 394 CURVE",
"997 377 OFFCURVE",
"988 316 OFFCURVE",
"994 291 CURVE",
"997 250 OFFCURVE",
"1018 60 OFFCURVE",
"1022 19 CURVE",
"1027 -2 OFFCURVE",
"1043 -2 OFFCURVE",
"1060 -2 CURVE SMOOTH"
);
}
);
width = 1116;
}
);
unicode = 2122;
},
{
color = 3;
glyphname = bar;
lastChange = "2016-08-30 17:03:42 +0000";
layers = (
{
layerId = UUID0;
paths = (
{
closed = 1;
nodes = (
"89 0 LINE SMOOTH",
"115 0 OFFCURVE",
"131 9 OFFCURVE",
"131 37 CURVE SMOOTH",
"131 42 OFFCURVE",
"125 63 OFFCURVE",
"122 65 CURVE",
"127 262 OFFCURVE",
"113 451 OFFCURVE",
"48 637 CURVE",
"44 641 OFFCURVE",
"32 647 OFFCURVE",
"28 647 CURVE SMOOTH",
"25 647 OFFCURVE",
"19 641 OFFCURVE",
"19 637 CURVE SMOOTH",
"19 610 LINE SMOOTH",
"19 563 OFFCURVE",
"37 513 OFFCURVE",
"48 469 CURVE",
"71 350 OFFCURVE",
"63 270 OFFCURVE",
"65 150 CURVE",
"65 128 OFFCURVE",
"74 29 OFFCURVE",
"74 10 CURVE",
"75 7 OFFCURVE",
"82 1 OFFCURVE",
"85 0 CURVE"
);
}
);
width = 150;
}
);
unicode = 007C;
},
{
color = 3;
glyphname = brokenbar;
lastChange = "2016-08-30 17:03:42 +0000";
layers = (
{
layerId = UUID0;
paths = (
{
closed = 1;
nodes = (
"78 3 OFFCURVE",
"93 -119 OFFCURVE",
"81 288 CURVE",
"23 288 LINE",
"21 167 OFFCURVE",
"21 129 OFFCURVE",
"40 7 CURVE"
);
},
{
closed = 1;
nodes = (
"77 362 OFFCURVE",
"88 460 OFFCURVE",
"85 517 CURVE",
"85 532 OFFCURVE",
"71 572 OFFCURVE",
"48 572 CURVE SMOOTH",
"37 572 OFFCURVE",
"28 569 OFFCURVE",
"28 559 CURVE SMOOTH",
"28 527 OFFCURVE",
"29 483 OFFCURVE",
"29 439 CURVE SMOOTH",
"29 376 LINE SMOOTH",
"29 354 OFFCURVE",
"29 336 OFFCURVE",
"28 320 CURVE",
"77 317 LINE"
);
}
);
width = 117;
}
);
unicode = 00A6;
},
{
color = 3;
glyphname = dagger;
lastChange = "2016-08-30 17:03:42 +0000";
layers = (
{
layerId = UUID0;
paths = (
{
closed = 1;
nodes = (
"201 0 LINE SMOOTH",
"228 0 OFFCURVE",
"244 9 OFFCURVE",
"244 37 CURVE SMOOTH",
"244 43 OFFCURVE",
"235 63 OFFCURVE",
"235 65 CURVE SMOOTH",
"238 171 OFFCURVE",
"235 272 OFFCURVE",
"221 374 CURVE",
"231 375 OFFCURVE",
"239 376 OFFCURVE",
"250 376 CURVE SMOOTH",
"280 376 OFFCURVE",
"302 364 OFFCURVE",
"330 364 CURVE SMOOTH",
"343 364 OFFCURVE",
"349 371 OFFCURVE",
"349 385 CURVE SMOOTH",
"349 433 OFFCURVE",
"293 432 OFFCURVE",
"258 432 CURVE SMOOTH",
"213 432 LINE",
"200 501 OFFCURVE",
"184 569 OFFCURVE",
"159 637 CURVE",
"158 641 OFFCURVE",
"146 647 OFFCURVE",
"142 647 CURVE SMOOTH",
"138 647 OFFCURVE",
"131 641 OFFCURVE",
"131 637 CURVE",
"130 610 LINE",
"130 564 OFFCURVE",
"151 511 OFFCURVE",
"159 469 CURVE SMOOTH",
"162 454 OFFCURVE",
"165 443 OFFCURVE",
"166 431 CURVE",
"90 428 OFFCURVE",
"15 420 OFFCURVE",
"25 353 CURVE",
"75 353 OFFCURVE",
"123 362 OFFCURVE",
"174 370 CURVE",
"177 335 OFFCURVE",
"177 300 OFFCURVE",
"177 265 CURVE SMOOTH",
"177 209 LINE SMOOTH",
"177 190 OFFCURVE",
"178 171 OFFCURVE",
"179 150 CURVE",
"179 129 OFFCURVE",
"185 28 OFFCURVE",
"188 10 CURVE",
"188 7 OFFCURVE",
"194 1 OFFCURVE",
"197 0 CURVE"
);
}
);
width = 375;
}
);
unicode = 2020;
},
{
color = 3;
glyphname = daggerdbl;
lastChange = "2016-08-30 17:03:42 +0000";
layers = (
{
layerId = UUID0;
paths = (
{
closed = 1;
nodes = (
"201 0 LINE SMOOTH",
"228 0 OFFCURVE",
"244 9 OFFCURVE",
"244 37 CURVE SMOOTH",
"244 43 OFFCURVE",
"235 63 OFFCURVE",
"235 65 CURVE SMOOTH",
"235 106 OFFCURVE",
"229 244 OFFCURVE",
"229 285 CURVE",
"368 285 LINE",
"405 304 LINE",
"385 360 OFFCURVE",
"273 342 OFFCURVE",
"228 342 CURVE",
"227 369 OFFCURVE",
"225 396 OFFCURVE",
"222 423 CURVE",
"268 427 OFFCURVE",
"293 432 OFFCURVE",
"320 432 CURVE SMOOTH",
"352 432 OFFCURVE",
"371 402 OFFCURVE",
"398 402 CURVE SMOOTH",
"401 402 LINE SMOOTH",
"402 402 OFFCURVE",
"402 402 OFFCURVE",
"403 403 CURVE",
"408 407 OFFCURVE",
"423 419 OFFCURVE",
"423 423 CURVE SMOOTH",
"423 481 OFFCURVE",
"346 479 OFFCURVE",
"310 479 CURVE SMOOTH",
"279 478 OFFCURVE",
"248 478 OFFCURVE",
"215 479 CURVE",
"204 564 OFFCURVE",
"201 661 OFFCURVE",
"171 745 CURVE",
"170 747 OFFCURVE",
"138 742 OFFCURVE",
"136 741 CURVE",
"132 741 OFFCURVE",
"126 734 OFFCURVE",
"126 730 CURVE",
"126 730 OFFCURVE",
"125 712 OFFCURVE",
"125 704 CURVE SMOOTH",
"125 659 OFFCURVE",
"145 604 OFFCURVE",
"154 563 CURVE SMOOTH",
"170 479 LINE",
"63 479 OFFCURVE",
"-34 479 OFFCURVE",
"-58 445 CURVE",
"-58 425 OFFCURVE",
"-37 420 OFFCURVE",
"-22 420 CURVE",
"70 416 OFFCURVE",
"132 416 OFFCURVE",
"179 419 CURVE",
"180 396 OFFCURVE",
"183 373 OFFCURVE",
"184 342 CURVE",
"110 342 OFFCURVE",
"59 340 OFFCURVE",
"-34 332 CURVE",
"-38 332 OFFCURVE",
"-44 325 OFFCURVE",
"-44 322 CURVE SMOOTH",
"-44 286 OFFCURVE",
"-22 285 OFFCURVE",
"12 285 CURVE SMOOTH",
"186 285 LINE",
"186 197 LINE SMOOTH",
"186 120 OFFCURVE",
"185 21 OFFCURVE",
"188 10 CURVE",
"188 7 OFFCURVE",
"194 1 OFFCURVE",
"197 0 CURVE"
);
}
);
width = 375;
}
);
unicode = 2021;
},
{
color = 3;
glyphname = asciicircum;
lastChange = "2016-08-30 17:03:42 +0000";
layers = (
{
layerId = UUID0;
paths = (
{
closed = 1;
nodes = (
"319 525 OFFCURVE",
"320 538 OFFCURVE",
"320 555 CURVE SMOOTH",
"320 579 OFFCURVE",
"318 583 OFFCURVE",
"301 610 CURVE SMOOTH",
"285 634 OFFCURVE",
"240 678 OFFCURVE",
"225 704 CURVE SMOOTH",
"213 724 OFFCURVE",
"207 731 OFFCURVE",
"188 731 CURVE SMOOTH",
"181 731 OFFCURVE",
"172 732 OFFCURVE",
"168 722 CURVE",
"145 627 OFFCURVE",
"125 627 OFFCURVE",
"49 559 CURVE",
"70 484 OFFCURVE",
"139 557 OFFCURVE",
"188 619 CURVE",
"237 588 OFFCURVE",
"263 525 OFFCURVE",
"301 525 CURVE SMOOTH"
);
}
);
width = 375;
}
);
unicode = 005E;
},
{
color = 9;
glyphname = hookabovecomb;
lastChange = "2016-09-01 14:00:57 +0000";
layers = (
{
anchors = (
{
name = _top;
position = "{310, 454}";
},
{
name = top;
position = "{327, 693}";
}
);
layerId = UUID0;
paths = (
{
closed = 1;
nodes = (
"333 494 OFFCURVE",
"342 516 OFFCURVE",
"340 523 CURVE",
"356 549 OFFCURVE",
"410 560 OFFCURVE",
"410 603 CURVE SMOOTH",
"410 636 OFFCURVE",
"397 693 OFFCURVE",
"331 693 CURVE SMOOTH",
"306 693 OFFCURVE",
"266 682 OFFCURVE",
"266 654 CURVE SMOOTH",
"266 651 OFFCURVE",
"262 631 OFFCURVE",
"273 630 CURVE",
"283 646 OFFCURVE",
"306 656 OFFCURVE",
"323 656 CURVE SMOOTH",
"367 656 OFFCURVE",
"371 635 OFFCURVE",
"371 614 CURVE SMOOTH",
"371 575 OFFCURVE",
"267 527 OFFCURVE",
"301 510 CURVE SMOOTH"
);
}
);
width = 600;
}
);
unicode = 0309;
},
{
color = 9;
glyphname = horncomb;
lastChange = "2016-09-01 14:00:35 +0000";
layers = (
{
anchors = (
{
name = _topright;
position = "{159, 454}";
},
{
name = topright;
position = "{159, 454}";
}
);
layerId = UUID0;
paths = (
{
closed = 1;
nodes = (
"168 400 OFFCURVE",
"228 443 OFFCURVE",
"228 507 CURVE SMOOTH",
"228 517 OFFCURVE",
"218 529 OFFCURVE",
"196 530 CURVE SMOOTH",
"182 532 OFFCURVE",
"174 526 OFFCURVE",
"172 520 CURVE",
"192 476 OFFCURVE",
"148 452 OFFCURVE",
"105 452 CURVE",
"109 400 LINE"
);
}
);
width = 225;
}
);
unicode = 031B;
},
